<?xml version="1.0" encoding="UTF-8"?>
<svg width="10.5px" height="12px" viewBox="0 0 10.5 12" version="1.1" xmlns="http://www.w3.org/2000/svg" xmlns:xlink="http://www.w3.org/1999/xlink">
    <title>book 2</title>
    <g id="Page-1" stroke="none" stroke-width="1" fill="none" fill-rule="evenodd">
        <g id="iconografia_sistema-copy" transform="translate(-33.000000, -202.500000)" fill="#000000" fill-rule="nonzero">
            <g id="book" transform="translate(33.000000, 202.500000)">
                <path d="M8.34375,3.75 L4.40625,3.75 C4.21875,3.75 4.125,3.65625 4.125,3.46875 L4.125,3.28125 C4.125,3.09375 4.21875,3 4.40625,3 L8.34375,3 C8.53125,3 8.625,3.09375 8.625,3.28125 L8.625,3.46875 C8.625,3.65625 8.53125,3.75 8.34375,3.75 Z M8.625,4.96875 C8.625,5.15625 8.53125,5.25 8.34375,5.25 L4.40625,5.25 C4.21875,5.25 4.125,5.15625 4.125,4.96875 L4.125,4.78125 C4.125,4.59375 4.21875,4.5 4.40625,4.5 L8.34375,4.5 C8.53125,4.5 8.625,4.59375 8.625,4.78125 L8.625,4.96875 Z M10.1484375,11.25 L10.21875,11.25 C10.40625,11.25 10.5,11.34375 10.5,11.53125 L10.5,11.71875 C10.5,11.90625 10.40625,12 10.21875,12 L1.875,12 C1.359375,12 0.91796875,11.8164062 0.55078125,11.4492188 C0.18359375,11.0820312 0,10.640625 0,10.125 L0,1.875 C0,1.359375 0.18359375,0.91796875 0.55078125,0.55078125 C0.91796875,0.18359375 1.359375,0 1.875,0 L9.9375,0 C10.09375,0 10.2265625,0.0546875 10.3359375,0.1640625 C10.4453125,0.2734375 10.5,0.40625 10.5,0.5625 L10.5,9.1875 C10.5,9.4375 10.3828125,9.609375 10.1484375,9.703125 C10.0390625,10.203125 10.0390625,10.71875 10.1484375,11.25 Z M3,9 L9.75,9 L9.75,0.75 L3,0.75 L3,9 Z M0.75,9.375 C1.078125,9.125 1.453125,9 1.875,9 L2.25,9 L2.25,0.75 L1.875,0.75 C1.5625,0.75 1.296875,0.859375 1.078125,1.078125 C0.859375,1.296875 0.75,1.5625 0.75,1.875 L0.75,9.375 Z M9.46875,11.25 C9.390625,10.75 9.390625,10.25 9.46875,9.75 L1.875,9.75 C1.40625,9.75 1.07421875,9.875 0.87890625,10.125 C0.68359375,10.375 0.68359375,10.625 0.87890625,10.875 C1.07421875,11.125 1.40625,11.25 1.875,11.25 L9.46875,11.25 Z" id="Shape"></path>
            </g>
        </g>
    </g>
</svg>