<?xml version="1.0" encoding="UTF-8"?>
<svg width="12px" height="12.0058594px" viewBox="0 0 12 12.0058594" version="1.1" xmlns="http://www.w3.org/2000/svg" xmlns:xlink="http://www.w3.org/1999/xlink">
    <title>book-reader_solid</title>
    <g id="Page-1" stroke="none" stroke-width="1" fill="none" fill-rule="evenodd">
        <g id="iconografia_sistema-copy" transform="translate(-325.000000, -1181.500000)" fill="#000000" fill-rule="nonzero">
            <g id="book-reader_solid" transform="translate(325.000000, 1181.500000)">
                <path d="M7.59375,0.65625 C8.03125,1.09375 8.25,1.625 8.25,2.25 C8.25,2.875 8.03125,3.40625 7.59375,3.84375 C7.15625,4.28125 6.625,4.5 6,4.5 C5.375,4.5 4.84375,4.28125 4.40625,3.84375 C3.96875,3.40625 3.75,2.875 3.75,2.25 C3.75,1.625 3.96875,1.09375 4.40625,0.65625 C4.84375,0.21875 5.375,0 6,0 C6.625,0 7.15625,0.21875 7.59375,0.65625 Z M5.484375,5.6484375 C5.578125,5.7109375 5.625,5.8046875 5.625,5.9296875 L5.625,11.6953125 C5.625,11.8046875 5.57421875,11.890625 5.47265625,11.953125 C5.37109375,12.015625 5.265625,12.015625 5.15625,11.953125 C4.0625,11.40625 2.546875,11.0859375 0.609375,10.9921875 C0.4375,10.9765625 0.29296875,10.9101562 0.17578125,10.7929688 C0.05859375,10.6757812 0,10.53125 0,10.359375 L0,5.1328125 C0,4.9453125 0.0703125,4.7890625 0.2109375,4.6640625 C0.3515625,4.5390625 0.515625,4.484375 0.703125,4.5 C2.828125,4.625 4.421875,5.0078125 5.484375,5.6484375 Z M11.296875,4.5 C11.421875,4.5 11.5390625,4.52734375 11.6484375,4.58203125 C11.7578125,4.63671875 11.84375,4.7109375 11.90625,4.8046875 C11.96875,4.8984375 12,5.0078125 12,5.1328125 L12,10.359375 C12,10.53125 11.9414062,10.6757812 11.8242188,10.7929688 C11.7070312,10.9101562 11.5625,10.9765625 11.390625,10.9921875 C9.453125,11.1015625 7.9453125,11.421875 6.8671875,11.953125 C6.7890625,12 6.7109375,12.015625 6.6328125,12 C6.5546875,11.984375 6.4921875,11.9453125 6.4453125,11.8828125 C6.3984375,11.8203125 6.375,11.7578125 6.375,11.6953125 L6.375,5.9296875 C6.375,5.8046875 6.421875,5.7109375 6.515625,5.6484375 C7.578125,5.0078125 9.171875,4.625 11.296875,4.5 Z" id="Shape"></path>
            </g>
        </g>
    </g>
</svg>