<?xml version="1.0" encoding="UTF-8"?>
<svg width="10.5px" height="10.5px" viewBox="0 0 10.5 10.5" version="1.1" xmlns="http://www.w3.org/2000/svg" xmlns:xlink="http://www.w3.org/1999/xlink">
    <title>check-double</title>
    <g id="Page-1" stroke="none" stroke-width="1" fill="none" fill-rule="evenodd">
        <g id="iconografia_sistema-copy" transform="translate(-33.000000, -293.250000)" fill="#000000" fill-rule="nonzero">
            <g id="check-double" transform="translate(33.000000, 293.250000)">
                <path d="M10.4296875,2.9765625 C10.4765625,3.0390625 10.5,3.109375 10.5,3.1875 C10.5,3.265625 10.4765625,3.328125 10.4296875,3.375 L3.3046875,10.40625 C3.2421875,10.46875 3.17578125,10.5 3.10546875,10.5 C3.03515625,10.5 2.96875,10.46875 2.90625,10.40625 L0.0703125,7.6171875 C0.0234375,7.5703125 0,7.5078125 0,7.4296875 C0,7.3515625 0.0234375,7.28125 0.0703125,7.21875 L0.3515625,6.9609375 C0.3984375,6.8984375 0.4609375,6.8671875 0.5390625,6.8671875 C0.6171875,6.8671875 0.6796875,6.8984375 0.7265625,6.9609375 L3.09375,9.28125 L9.7734375,2.71875 C9.8203125,2.65625 9.8828125,2.625 9.9609375,2.625 C10.0390625,2.625 10.1015625,2.65625 10.1484375,2.71875 L10.4296875,2.9765625 Z M2.9765625,5.90625 L0.8203125,3.75 C0.7734375,3.703125 0.75,3.640625 0.75,3.5625 C0.75,3.484375 0.7734375,3.4140625 0.8203125,3.3515625 L1.1015625,3.09375 C1.1484375,3.03125 1.2109375,3 1.2890625,3 C1.3671875,3 1.4296875,3.03125 1.4765625,3.09375 L3.1640625,4.78125 L7.8984375,0.09375 C7.9453125,0.03125 8.0078125,0 8.0859375,0 C8.1640625,0 8.2265625,0.03125 8.2734375,0.09375 L8.5546875,0.3515625 C8.6015625,0.4140625 8.625,0.484375 8.625,0.5625 C8.625,0.640625 8.6015625,0.703125 8.5546875,0.75 L3.375,5.90625 C3.3125,5.96875 3.24609375,6 3.17578125,6 C3.10546875,6 3.0390625,5.96875 2.9765625,5.90625 Z" id="Shape"></path>
            </g>
        </g>
    </g>
</svg>