<?xml version="1.0" encoding="UTF-8"?>
<svg width="12px" height="11.8007812px" viewBox="0 0 12 11.8007812" version="1.1" xmlns="http://www.w3.org/2000/svg" xmlns:xlink="http://www.w3.org/1999/xlink">
    <title>cube</title>
    <g id="Page-1" stroke="none" stroke-width="1" fill="none" fill-rule="evenodd">
        <g id="iconografia_sistema-copy" transform="translate(-32.000000, -310.570312)" fill="#000000" fill-rule="nonzero">
            <g id="cube" transform="translate(32.000000, 310.570312)">
                <path d="M5.6015625,0.0703125 C5.8671875,-0.0234375 6.1328125,-0.0234375 6.3984375,0.0703125 L11.2734375,1.8984375 C11.4921875,1.9921875 11.6679688,2.1328125 11.8007812,2.3203125 C11.9335938,2.5078125 12,2.71875 12,2.953125 L12,8.2265625 C12,8.6953125 11.7890625,9.03125 11.3671875,9.234375 L6.4921875,11.671875 C6.1640625,11.84375 5.828125,11.84375 5.484375,11.671875 L0.609375,9.234375 C0.203125,9.03125 0,8.6953125 0,8.2265625 L0,2.953125 C0,2.71875 0.06640625,2.5078125 0.19921875,2.3203125 C0.33203125,2.1328125 0.5078125,1.9921875 0.7265625,1.8984375 L5.6015625,0.0703125 Z M6,0.7265625 L0.75,2.6953125 L6,4.9921875 L11.25,2.6953125 L6,0.7265625 Z M0.75,3.515625 L0.75,8.4609375 L5.625,10.8984375 L5.625,5.6484375 L0.75,3.515625 Z M6.375,10.8984375 L11.25,8.4609375 L11.25,3.515625 L6.375,5.6484375 L6.375,10.8984375 Z" id="Shape"></path>
            </g>
        </g>
    </g>
</svg>