<?xml version="1.0" encoding="UTF-8"?>
<svg width="11.625px" height="11.625px" viewBox="0 0 11.625 11.625" version="1.1" xmlns="http://www.w3.org/2000/svg" xmlns:xlink="http://www.w3.org/1999/xlink">
    <title>dot-circle</title>
    <g id="Page-1" stroke="none" stroke-width="1" fill="none" fill-rule="evenodd">
        <g id="iconografia_sistema-copy" transform="translate(-32.187500, -1055.687500)" fill="#000000" fill-rule="nonzero">
            <g id="dot-circle" transform="translate(32.187500, 1055.687500)">
                <path d="M1.6875,1.7109375 C2.828125,0.5703125 4.203125,0 5.8125,0 C7.421875,0 8.79296875,0.56640625 9.92578125,1.69921875 C11.0585938,2.83203125 11.625,4.203125 11.625,5.8125 C11.625,7.421875 11.0585938,8.79296875 9.92578125,9.92578125 C8.79296875,11.0585938 7.421875,11.625 5.8125,11.625 C4.203125,11.625 2.83203125,11.0585938 1.69921875,9.92578125 C0.56640625,8.79296875 0,7.421875 0,5.8125 C0,4.203125 0.5625,2.8359375 1.6875,1.7109375 Z M5.8125,10.875 C7.21875,10.875 8.4140625,10.3789062 9.3984375,9.38671875 C10.3828125,8.39453125 10.875,7.203125 10.875,5.8125 C10.875,4.40625 10.3789062,3.2109375 9.38671875,2.2265625 C8.39453125,1.2421875 7.203125,0.75 5.8125,0.75 C4.40625,0.75 3.2109375,1.24609375 2.2265625,2.23828125 C1.2421875,3.23046875 0.75,4.421875 0.75,5.8125 C0.75,7.21875 1.24609375,8.4140625 2.23828125,9.3984375 C3.23046875,10.3828125 4.421875,10.875 5.8125,10.875 Z M4.4765625,4.5 C4.8515625,4.125 5.296875,3.9375 5.8125,3.9375 C6.328125,3.9375 6.76953125,4.12109375 7.13671875,4.48828125 C7.50390625,4.85546875 7.6875,5.296875 7.6875,5.8125 C7.6875,6.328125 7.50390625,6.76953125 7.13671875,7.13671875 C6.76953125,7.50390625 6.328125,7.6875 5.8125,7.6875 C5.296875,7.6875 4.85546875,7.50390625 4.48828125,7.13671875 C4.12109375,6.76953125 3.9375,6.328125 3.9375,5.8125 C3.9375,5.296875 4.1171875,4.859375 4.4765625,4.5 Z M5.015625,6.609375 C5.234375,6.828125 5.5,6.9375 5.8125,6.9375 C6.125,6.9375 6.390625,6.828125 6.609375,6.609375 C6.828125,6.390625 6.9375,6.125 6.9375,5.8125 C6.9375,5.5 6.828125,5.234375 6.609375,5.015625 C6.390625,4.796875 6.125,4.6875 5.8125,4.6875 C5.5,4.6875 5.234375,4.796875 5.015625,5.015625 C4.796875,5.234375 4.6875,5.5 4.6875,5.8125 C4.6875,6.125 4.796875,6.390625 5.015625,6.609375 Z" id="Shape"></path>
            </g>
        </g>
    </g>
</svg>