<?xml version="1.0" encoding="UTF-8"?>
<svg width="12px" height="12px" viewBox="0 0 12 12" version="1.1" xmlns="http://www.w3.org/2000/svg" xmlns:xlink="http://www.w3.org/1999/xlink">
    <title>envelope-open-text</title>
    <g id="Page-1" stroke="none" stroke-width="1" fill="none" fill-rule="evenodd">
        <g id="iconografia_sistema-copy" transform="translate(-368.000000, -349.500000)" fill="#000000" fill-rule="nonzero">
            <g id="envelope-open-text" transform="translate(368.000000, 349.500000)">
                <path d="M8.25,5.8125 C8.25,5.9375 8.1875,6 8.0625,6 L3.9375,6 C3.8125,6 3.75,5.9375 3.75,5.8125 L3.75,5.4375 C3.75,5.3125 3.8125,5.25 3.9375,5.25 L8.0625,5.25 C8.1875,5.25 8.25,5.3125 8.25,5.4375 L8.25,5.8125 Z M3.9375,4.5 C3.8125,4.5 3.75,4.4375 3.75,4.3125 L3.75,3.9375 C3.75,3.8125 3.8125,3.75 3.9375,3.75 L8.0625,3.75 C8.1875,3.75 8.25,3.8125 8.25,3.9375 L8.25,4.3125 C8.25,4.4375 8.1875,4.5 8.0625,4.5 L3.9375,4.5 Z M11.6015625,3.8671875 C11.8671875,4.0859375 12,4.375 12,4.734375 L12,10.875 C12,11.1875 11.890625,11.453125 11.671875,11.671875 C11.453125,11.890625 11.1875,12 10.875,12 L1.125,12 C0.8125,12 0.546875,11.890625 0.328125,11.671875 C0.109375,11.453125 0,11.1875 0,10.875 L0,4.7109375 C0,4.3671875 0.140625,4.078125 0.421875,3.84375 C0.484375,3.796875 0.84375,3.5078125 1.5,2.9765625 L1.5,2.25 C1.5,2.046875 1.57421875,1.87109375 1.72265625,1.72265625 C1.87109375,1.57421875 2.046875,1.5 2.25,1.5 L3.328125,1.5 C3.359375,1.484375 3.40234375,1.453125 3.45703125,1.40625 C3.51171875,1.359375 3.5546875,1.328125 3.5859375,1.3125 C3.6015625,1.28125 3.7109375,1.18359375 3.9140625,1.01953125 C4.1171875,0.85546875 4.2734375,0.734375 4.3828125,0.65625 C4.4921875,0.578125 4.64453125,0.4765625 4.83984375,0.3515625 C5.03515625,0.2265625 5.23046875,0.13671875 5.42578125,0.08203125 C5.62109375,0.02734375 5.8125,0 6,0 C6.1875,0 6.37890625,0.02734375 6.57421875,0.08203125 C6.76953125,0.13671875 6.96484375,0.2265625 7.16015625,0.3515625 C7.35546875,0.4765625 7.5078125,0.578125 7.6171875,0.65625 C7.7265625,0.734375 7.8828125,0.85546875 8.0859375,1.01953125 C8.2890625,1.18359375 8.3984375,1.28125 8.4140625,1.3125 C8.5078125,1.375 8.59375,1.4375 8.671875,1.5 L9.75,1.5 C9.953125,1.5 10.1289062,1.57421875 10.2773438,1.72265625 C10.4257812,1.87109375 10.5,2.046875 10.5,2.25 L10.5,2.9765625 C11.171875,3.5234375 11.5390625,3.8203125 11.6015625,3.8671875 Z M7.4765625,1.5 C6.8671875,1 6.375,0.75 6,0.75 C5.625,0.75 5.1328125,1 4.5234375,1.5 L7.4765625,1.5 Z M2.25,2.25 L2.25,6.3046875 C3.171875,7.0546875 3.8515625,7.6015625 4.2890625,7.9453125 C4.2890625,7.9453125 4.3984375,8.03515625 4.6171875,8.21484375 C4.8359375,8.39453125 5,8.5234375 5.109375,8.6015625 C5.21875,8.6796875 5.36328125,8.765625 5.54296875,8.859375 C5.72265625,8.953125 5.875,9 6,9 C6.125,9 6.27734375,8.953125 6.45703125,8.859375 C6.63671875,8.765625 6.78125,8.6796875 6.890625,8.6015625 C7,8.5234375 7.1640625,8.39453125 7.3828125,8.21484375 C7.6015625,8.03515625 7.7109375,7.9453125 7.7109375,7.9453125 C8.1640625,7.5859375 8.84375,7.0390625 9.75,6.3046875 L9.75,2.25 L2.25,2.25 Z M0.75,4.7109375 L0.75,5.109375 C1.046875,5.34375 1.296875,5.546875 1.5,5.71875 L1.5,3.9375 C1.109375,4.25 0.90625,4.4140625 0.890625,4.4296875 C0.796875,4.5078125 0.75,4.6015625 0.75,4.7109375 Z M11.25,10.875 L11.25,6.0703125 C9.78125,7.2578125 8.7578125,8.078125 8.1796875,8.53125 C8.1484375,8.546875 8.04296875,8.6328125 7.86328125,8.7890625 C7.68359375,8.9453125 7.5390625,9.0625 7.4296875,9.140625 C7.3203125,9.21875 7.1796875,9.3125 7.0078125,9.421875 C6.8359375,9.53125 6.6640625,9.61328125 6.4921875,9.66796875 C6.3203125,9.72265625 6.15625,9.75 6,9.75 C5.84375,9.75 5.6796875,9.72265625 5.5078125,9.66796875 C5.3359375,9.61328125 5.16015625,9.53125 4.98046875,9.421875 C4.80078125,9.3125 4.65625,9.21875 4.546875,9.140625 C4.4375,9.0625 4.296875,8.9453125 4.125,8.7890625 C3.953125,8.6328125 3.8515625,8.546875 3.8203125,8.53125 C3.2109375,8.046875 2.1875,7.2265625 0.75,6.0703125 L0.75,10.875 C0.75,10.984375 0.78515625,11.0742188 0.85546875,11.1445312 C0.92578125,11.2148438 1.015625,11.25 1.125,11.25 L10.875,11.25 C10.984375,11.25 11.0742188,11.2148438 11.1445312,11.1445312 C11.2148438,11.0742188 11.25,10.984375 11.25,10.875 Z M11.25,5.109375 L11.25,4.734375 C11.25,4.609375 11.203125,4.5078125 11.109375,4.4296875 C11.078125,4.3984375 10.875,4.234375 10.5,3.9375 L10.5,5.71875 C10.59375,5.640625 10.7265625,5.53125 10.8984375,5.390625 C11.0703125,5.25 11.1875,5.15625 11.25,5.109375 Z" id="Shape"></path>
            </g>
        </g>
    </g>
</svg>