<?xml version="1.0" encoding="UTF-8"?>
<svg width="12px" height="12px" viewBox="0 0 12 12" version="1.1" xmlns="http://www.w3.org/2000/svg" xmlns:xlink="http://www.w3.org/1999/xlink">
    <title>external-link</title>
    <g id="Page-1" stroke="none" stroke-width="1" fill="none" fill-rule="evenodd">
        <g id="iconografia_sistema-copy" transform="translate(-368.000000, -715.500000)" fill="#000000" fill-rule="nonzero">
            <g id="external-link" transform="translate(368.000000, 715.500000)">
                <path d="M10.3125,6 C10.4375,6 10.5,6.0625 10.5,6.1875 L10.5,10.875 C10.5,11.1875 10.390625,11.453125 10.171875,11.671875 C9.953125,11.890625 9.6875,12 9.375,12 L1.125,12 C0.8125,12 0.546875,11.890625 0.328125,11.671875 C0.109375,11.453125 0,11.1875 0,10.875 L0,2.625 C0,2.3125 0.109375,2.046875 0.328125,1.828125 C0.546875,1.609375 0.8125,1.5 1.125,1.5 L5.8125,1.5 C5.9375,1.5 6,1.5625 6,1.6875 L6,2.0625 C6,2.1875 5.9375,2.25 5.8125,2.25 L1.125,2.25 C1.015625,2.25 0.92578125,2.28515625 0.85546875,2.35546875 C0.78515625,2.42578125 0.75,2.515625 0.75,2.625 L0.75,10.875 C0.75,10.984375 0.78515625,11.0742188 0.85546875,11.1445312 C0.92578125,11.2148438 1.015625,11.25 1.125,11.25 L9.375,11.25 C9.484375,11.25 9.57421875,11.2148438 9.64453125,11.1445312 C9.71484375,11.0742188 9.75,10.984375 9.75,10.875 L9.75,6.1875 C9.75,6.0625 9.8125,6 9.9375,6 L10.3125,6 Z M11.71875,0 C11.90625,0 12,0.09375 12,0.28125 L12,3.46875 C12,3.546875 11.9726562,3.61328125 11.9179688,3.66796875 C11.8632812,3.72265625 11.796875,3.75 11.71875,3.75 L11.484375,3.75 C11.40625,3.75 11.3398438,3.72265625 11.2851562,3.66796875 C11.2304688,3.61328125 11.203125,3.546875 11.203125,3.46875 L11.203125,1.359375 L11.1796875,1.3359375 L3.609375,8.9296875 C3.5625,8.9765625 3.5,9 3.421875,9 C3.34375,9 3.2734375,8.9765625 3.2109375,8.9296875 L3.09375,8.7890625 C3.03125,8.7265625 3,8.65625 3,8.578125 C3,8.5 3.03125,8.4375 3.09375,8.390625 L10.6640625,0.8203125 L10.640625,0.796875 L8.53125,0.796875 C8.453125,0.796875 8.38671875,0.76953125 8.33203125,0.71484375 C8.27734375,0.66015625 8.25,0.59375 8.25,0.515625 L8.25,0.28125 C8.25,0.203125 8.27734375,0.13671875 8.33203125,0.08203125 C8.38671875,0.02734375 8.453125,0 8.53125,0 L11.71875,0 Z" id="Shape"></path>
            </g>
        </g>
    </g>
</svg>