<?xml version="1.0" encoding="UTF-8"?>
<svg width="9px" height="12px" viewBox="0 0 9 12" version="1.1" xmlns="http://www.w3.org/2000/svg" xmlns:xlink="http://www.w3.org/1999/xlink">
    <title>file-invoice_solid</title>
    <g id="Page-1" stroke="none" stroke-width="1" fill="none" fill-rule="evenodd">
        <g id="iconografia_sistema-copy" transform="translate(-34.000000, -1073.500000)" fill="#000000" fill-rule="nonzero">
            <g id="file-invoice_solid" transform="translate(34.000000, 1073.500000)">
                <path d="M6.75,6 L6.75,7.5 L2.25,7.5 L2.25,6 L6.75,6 Z M8.8359375,2.4609375 C8.9453125,2.5703125 9,2.703125 9,2.859375 L9,3 L6,3 L6,0 L6.140625,0 C6.296875,0 6.4296875,0.0546875 6.5390625,0.1640625 L8.8359375,2.4609375 Z M5.25,3.1875 C5.25,3.34375 5.3046875,3.4765625 5.4140625,3.5859375 C5.5234375,3.6953125 5.65625,3.75 5.8125,3.75 L9,3.75 L9,11.4375 C9,11.59375 8.9453125,11.7265625 8.8359375,11.8359375 C8.7265625,11.9453125 8.59375,12 8.4375,12 L0.5625,12 C0.40625,12 0.2734375,11.9453125 0.1640625,11.8359375 C0.0546875,11.7265625 0,11.59375 0,11.4375 L0,0.5625 C0,0.40625 0.0546875,0.2734375 0.1640625,0.1640625 C0.2734375,0.0546875 0.40625,0 0.5625,0 L5.25,0 L5.25,3.1875 Z M1.5,1.6875 L1.5,2.0625 C1.5,2.1875 1.5625,2.25 1.6875,2.25 L3.5625,2.25 C3.6875,2.25 3.75,2.1875 3.75,2.0625 L3.75,1.6875 C3.75,1.5625 3.6875,1.5 3.5625,1.5 L1.6875,1.5 C1.5625,1.5 1.5,1.5625 1.5,1.6875 Z M1.5,3.1875 L1.5,3.5625 C1.5,3.6875 1.5625,3.75 1.6875,3.75 L3.5625,3.75 C3.6875,3.75 3.75,3.6875 3.75,3.5625 L3.75,3.1875 C3.75,3.0625 3.6875,3 3.5625,3 L1.6875,3 C1.5625,3 1.5,3.0625 1.5,3.1875 Z M7.5,10.3125 L7.5,9.9375 C7.5,9.8125 7.4375,9.75 7.3125,9.75 L5.4375,9.75 C5.3125,9.75 5.25,9.8125 5.25,9.9375 L5.25,10.3125 C5.25,10.4375 5.3125,10.5 5.4375,10.5 L7.3125,10.5 C7.4375,10.5 7.5,10.4375 7.5,10.3125 Z M7.5,5.625 C7.5,5.515625 7.46484375,5.42578125 7.39453125,5.35546875 C7.32421875,5.28515625 7.234375,5.25 7.125,5.25 L1.875,5.25 C1.765625,5.25 1.67578125,5.28515625 1.60546875,5.35546875 C1.53515625,5.42578125 1.5,5.515625 1.5,5.625 L1.5,7.875 C1.5,7.984375 1.53515625,8.07421875 1.60546875,8.14453125 C1.67578125,8.21484375 1.765625,8.25 1.875,8.25 L7.125,8.25 C7.234375,8.25 7.32421875,8.21484375 7.39453125,8.14453125 C7.46484375,8.07421875 7.5,7.984375 7.5,7.875 L7.5,5.625 Z" id="Shape"></path>
            </g>
        </g>
    </g>
</svg>