<?xml version="1.0" encoding="UTF-8"?>
<svg width="9px" height="12px" viewBox="0 0 9 12" version="1.1" xmlns="http://www.w3.org/2000/svg" xmlns:xlink="http://www.w3.org/1999/xlink">
    <title>file-pdf 4</title>
    <g id="Page-1" stroke="none" stroke-width="1" fill="none" fill-rule="evenodd">
        <g id="iconografia_sistema-copy" transform="translate(-34.000000, -890.500000)" fill="#000000" fill-rule="nonzero">
            <g id="file-pdf" transform="translate(34.000000, 890.500000)">
                <path d="M8.671875,2.296875 C8.890625,2.515625 9,2.78125 9,3.09375 L9,10.875 C9,11.1875 8.890625,11.453125 8.671875,11.671875 C8.453125,11.890625 8.1875,12 7.875,12 L1.125,12 C0.8125,12 0.546875,11.890625 0.328125,11.671875 C0.109375,11.453125 0,11.1875 0,10.875 L0,1.125 C0,0.8125 0.109375,0.546875 0.328125,0.328125 C0.546875,0.109375 0.8125,0 1.125,0 L5.90625,0 C6.21875,0 6.484375,0.109375 6.703125,0.328125 L8.671875,2.296875 Z M8.1328125,2.8359375 L6.1640625,0.8671875 C6.1171875,0.8203125 6.0625,0.78125 6,0.75 L6,3 L8.25,3 C8.21875,2.9375 8.1796875,2.8828125 8.1328125,2.8359375 Z M7.875,11.25 C7.984375,11.25 8.07421875,11.2148438 8.14453125,11.1445312 C8.21484375,11.0742188 8.25,10.984375 8.25,10.875 L8.25,3.75 L5.8125,3.75 C5.65625,3.75 5.5234375,3.6953125 5.4140625,3.5859375 C5.3046875,3.4765625 5.25,3.34375 5.25,3.1875 L5.25,0.75 L1.125,0.75 C1.015625,0.75 0.92578125,0.78515625 0.85546875,0.85546875 C0.78515625,0.92578125 0.75,1.015625 0.75,1.125 L0.75,10.875 C0.75,10.984375 0.78515625,11.0742188 0.85546875,11.1445312 C0.92578125,11.2148438 1.015625,11.25 1.125,11.25 L7.875,11.25 Z M7.359375,7.2421875 C7.515625,7.3671875 7.5546875,7.5546875 7.4765625,7.8046875 C7.3984375,8.0546875 7.21875,8.1796875 6.9375,8.1796875 C6.484375,8.1796875 5.9765625,8.03125 5.4140625,7.734375 C5.1328125,7.765625 4.4921875,7.953125 3.4921875,8.296875 C3.2109375,8.765625 2.96875,9.1171875 2.765625,9.3515625 C2.546875,9.5859375 2.328125,9.71484375 2.109375,9.73828125 C1.890625,9.76171875 1.73046875,9.71484375 1.62890625,9.59765625 C1.52734375,9.48046875 1.484375,9.3515625 1.5,9.2109375 C1.59375,8.8203125 2.0546875,8.40625 2.8828125,7.96875 C3.1796875,7.46875 3.5078125,6.78125 3.8671875,5.90625 C3.6484375,5.03125 3.5859375,4.421875 3.6796875,4.078125 C3.7109375,3.9375 3.8046875,3.83984375 3.9609375,3.78515625 C4.1171875,3.73046875 4.27734375,3.73828125 4.44140625,3.80859375 C4.60546875,3.87890625 4.703125,4.0234375 4.734375,4.2421875 C4.8125,4.4921875 4.7578125,5 4.5703125,5.765625 C4.8046875,6.359375 5.15625,6.796875 5.625,7.078125 C6.546875,6.953125 7.125,7.0078125 7.359375,7.2421875 Z M1.9921875,9.328125 C1.9921875,9.34375 2.0234375,9.328125 2.0859375,9.28125 C2.1484375,9.234375 2.24609375,9.1328125 2.37890625,8.9765625 C2.51171875,8.8203125 2.65625,8.6171875 2.8125,8.3671875 C2.328125,8.8203125 2.0546875,9.140625 1.9921875,9.328125 Z M4.21875,4.125 C4.203125,4.125 4.19140625,4.1875 4.18359375,4.3125 C4.17578125,4.4375 4.1796875,4.59375 4.1953125,4.78125 C4.2109375,4.96875 4.234375,5.1171875 4.265625,5.2265625 C4.34375,5.1171875 4.37890625,4.90625 4.37109375,4.59375 C4.36328125,4.28125 4.3125,4.125 4.21875,4.125 Z M3.5625,7.8515625 C4.359375,7.5390625 4.859375,7.3671875 5.0625,7.3359375 C4.71875,7.0859375 4.4375,6.7578125 4.21875,6.3515625 C3.984375,6.9765625 3.765625,7.4765625 3.5625,7.8515625 Z M7.1484375,7.7109375 C7.2421875,7.6484375 7.1953125,7.59375 7.0078125,7.546875 C6.7890625,7.484375 6.5,7.46875 6.140625,7.5 C6.390625,7.609375 6.6015625,7.68359375 6.7734375,7.72265625 C6.9453125,7.76171875 7.0546875,7.765625 7.1015625,7.734375 L7.1484375,7.7109375 Z" id="Shape"></path>
            </g>
        </g>
    </g>
</svg>