<?xml version="1.0" encoding="UTF-8"?>
<svg width="9px" height="12px" viewBox="0 0 9 12" version="1.1" xmlns="http://www.w3.org/2000/svg" xmlns:xlink="http://www.w3.org/1999/xlink">
    <title>file-download</title>
    <g id="Page-1" stroke="none" stroke-width="1" fill="none" fill-rule="evenodd">
        <g id="iconografia_sistema-copy" transform="translate(-34.000000, -728.500000)" fill="#000000" fill-rule="nonzero">
            <g id="file-download" transform="translate(34.000000, 728.500000)">
                <path d="M8.671875,2.296875 C8.890625,2.515625 9,2.78125 9,3.09375 L9,10.875 C9,11.1875 8.890625,11.453125 8.671875,11.671875 C8.453125,11.890625 8.1875,12 7.875,12 L1.125,12 C0.8125,12 0.546875,11.890625 0.328125,11.671875 C0.109375,11.453125 0,11.1875 0,10.875 L0,1.125 C0,0.921875 0.05078125,0.734375 0.15234375,0.5625 C0.25390625,0.390625 0.390625,0.25390625 0.5625,0.15234375 C0.734375,0.05078125 0.921875,0 1.125,0 L5.90625,0 C6.21875,0 6.484375,0.109375 6.703125,0.328125 L8.671875,2.296875 Z M6,0.7734375 L6,3 L8.25,3 C8.21875,2.9375 8.1796875,2.8828125 8.1328125,2.8359375 L6.1640625,0.8671875 C6.1171875,0.8203125 6.0625,0.7890625 6,0.7734375 Z M8.25,10.875 L8.25,3.75 L5.8125,3.75 C5.65625,3.75 5.5234375,3.6953125 5.4140625,3.5859375 C5.3046875,3.4765625 5.25,3.34375 5.25,3.1875 L5.25,0.75 L1.125,0.75 C1.015625,0.75 0.92578125,0.78515625 0.85546875,0.85546875 C0.78515625,0.92578125 0.75,1.015625 0.75,1.125 L0.75,10.875 C0.75,10.984375 0.78515625,11.0742188 0.85546875,11.1445312 C0.92578125,11.2148438 1.015625,11.25 1.125,11.25 L7.875,11.25 C7.984375,11.25 8.07421875,11.2148438 8.14453125,11.1445312 C8.21484375,11.0742188 8.25,10.984375 8.25,10.875 Z M4.875,5.0625 L4.875,7.125 L6.1171875,7.125 C6.3828125,7.125 6.578125,7.2578125 6.703125,7.5234375 C6.8125,7.7890625 6.765625,8.03125 6.5625,8.25 L4.96875,9.9140625 C4.84375,10.0546875 4.6875,10.125 4.5,10.125 C4.3125,10.125 4.15625,10.0546875 4.03125,9.9140625 L2.4375,8.25 C2.234375,8.03125 2.1875,7.7890625 2.296875,7.5234375 C2.40625,7.2578125 2.6015625,7.125 2.8828125,7.125 L4.125,7.125 L4.125,5.0625 C4.125,4.9375 4.1875,4.875 4.3125,4.875 L4.6875,4.875 C4.8125,4.875 4.875,4.9375 4.875,5.0625 Z M5.8828125,7.875 L3.1171875,7.875 L4.5,9.328125 L5.8828125,7.875 Z" id="Shape"></path>
            </g>
        </g>
    </g>
</svg>