<?xml version="1.0" encoding="UTF-8"?>
<svg width="9px" height="12px" viewBox="0 0 9 12" version="1.1" xmlns="http://www.w3.org/2000/svg" xmlns:xlink="http://www.w3.org/1999/xlink">
    <title>file-invoice</title>
    <g id="Page-1" stroke="none" stroke-width="1" fill="none" fill-rule="evenodd">
        <g id="iconografia_sistema-copy" transform="translate(-34.000000, -983.500000)" fill="#000000" fill-rule="nonzero">
            <g id="file-invoice" transform="translate(34.000000, 983.500000)">
                <path d="M7.3125,9.75 C7.4375,9.75 7.5,9.8125 7.5,9.9375 L7.5,10.3125 C7.5,10.4375 7.4375,10.5 7.3125,10.5 L5.4375,10.5 C5.3125,10.5 5.25,10.4375 5.25,10.3125 L5.25,9.9375 C5.25,9.8125 5.3125,9.75 5.4375,9.75 L7.3125,9.75 Z M1.5,5.625 C1.5,5.515625 1.54296875,5.42578125 1.62890625,5.35546875 C1.71484375,5.28515625 1.8125,5.25 1.921875,5.25 L7.078125,5.25 C7.1875,5.25 7.28515625,5.28515625 7.37109375,5.35546875 C7.45703125,5.42578125 7.5,5.515625 7.5,5.625 L7.5,7.875 C7.5,7.984375 7.45703125,8.07421875 7.37109375,8.14453125 C7.28515625,8.21484375 7.1875,8.25 7.078125,8.25 L1.921875,8.25 C1.8125,8.25 1.71484375,8.21484375 1.62890625,8.14453125 C1.54296875,8.07421875 1.5,7.984375 1.5,7.875 L1.5,5.625 Z M2.25,6 L2.25,7.5 L6.75,7.5 L6.75,6 L2.25,6 Z M1.6875,2.25 C1.5625,2.25 1.5,2.1875 1.5,2.0625 L1.5,1.6875 C1.5,1.5625 1.5625,1.5 1.6875,1.5 L4.3125,1.5 C4.4375,1.5 4.5,1.5625 4.5,1.6875 L4.5,2.0625 C4.5,2.1875 4.4375,2.25 4.3125,2.25 L1.6875,2.25 Z M1.6875,3.75 C1.5625,3.75 1.5,3.6875 1.5,3.5625 L1.5,3.1875 C1.5,3.0625 1.5625,3 1.6875,3 L4.3125,3 C4.4375,3 4.5,3.0625 4.5,3.1875 L4.5,3.5625 C4.5,3.6875 4.4375,3.75 4.3125,3.75 L1.6875,3.75 Z M8.671875,2.296875 C8.890625,2.515625 9,2.78125 9,3.09375 L9,10.875 C9,11.1875 8.890625,11.453125 8.671875,11.671875 C8.453125,11.890625 8.1875,12 7.875,12 L1.125,12 C0.8125,12 0.546875,11.890625 0.328125,11.671875 C0.109375,11.453125 0,11.1875 0,10.875 L0,1.125 C0,0.921875 0.05078125,0.734375 0.15234375,0.5625 C0.25390625,0.390625 0.390625,0.25390625 0.5625,0.15234375 C0.734375,0.05078125 0.921875,0 1.125,0 L5.90625,0 C6.21875,0 6.484375,0.109375 6.703125,0.328125 L8.671875,2.296875 Z M6,0.7734375 L6,3 L8.25,3 C8.21875,2.9375 8.1796875,2.8828125 8.1328125,2.8359375 L6.1640625,0.8671875 C6.1171875,0.8203125 6.0625,0.7890625 6,0.7734375 Z M8.25,10.875 L8.25,3.75 L5.8125,3.75 C5.65625,3.75 5.5234375,3.6953125 5.4140625,3.5859375 C5.3046875,3.4765625 5.25,3.34375 5.25,3.1875 L5.25,0.75 L1.125,0.75 C1.015625,0.75 0.92578125,0.78515625 0.85546875,0.85546875 C0.78515625,0.92578125 0.75,1.015625 0.75,1.125 L0.75,10.875 C0.75,10.984375 0.78515625,11.0742188 0.85546875,11.1445312 C0.92578125,11.2148438 1.015625,11.25 1.125,11.25 L7.875,11.25 C7.984375,11.25 8.07421875,11.2148438 8.14453125,11.1445312 C8.21484375,11.0742188 8.25,10.984375 8.25,10.875 Z" id="Shape"></path>
            </g>
        </g>
    </g>
</svg>