<?xml version="1.0" encoding="UTF-8"?>
<svg width="13.502983px" height="9px" viewBox="0 0 13.502983 9" version="1.1" xmlns="http://www.w3.org/2000/svg" xmlns:xlink="http://www.w3.org/1999/xlink">
    <title>folder-open</title>
    <g id="Page-1" stroke="none" stroke-width="1" fill="none" fill-rule="evenodd">
        <g id="iconografia_sistema-copy" transform="translate(-367.000000, -480.000000)" fill="#000000" fill-rule="nonzero">
            <g id="folder-open" transform="translate(367.000000, 480.000000)">
                <path d="M12.375,3.75 C12.8125,3.75 13.1367188,3.94140625 13.3476562,4.32421875 C13.5585938,4.70703125 13.5546875,5.0859375 13.3359375,5.4609375 L11.765625,8.0859375 C11.390625,8.6953125 10.8515625,9 10.1484375,9 L1.125,9 C0.8125,9 0.546875,8.890625 0.328125,8.671875 C0.109375,8.453125 0,8.1875 0,7.875 L0,1.125 C0,0.8125 0.109375,0.546875 0.328125,0.328125 C0.546875,0.109375 0.8125,0 1.125,0 L4.875,0 L6.375,1.5 L10.125,1.5 C10.4375,1.5 10.703125,1.609375 10.921875,1.828125 C11.140625,2.046875 11.25,2.3125 11.25,2.625 L11.25,3.75 L12.375,3.75 Z M1.125,0.75 C1.015625,0.75 0.92578125,0.78515625 0.85546875,0.85546875 C0.78515625,0.92578125 0.75,1.015625 0.75,1.125 L0.75,7.40625 L2.4140625,4.6640625 C2.7734375,4.0546875 3.3046875,3.75 4.0078125,3.75 L10.5,3.75 L10.5,2.625 C10.5,2.515625 10.4648438,2.42578125 10.3945312,2.35546875 C10.3242188,2.28515625 10.234375,2.25 10.125,2.25 L6.0703125,2.25 L4.5703125,0.75 L1.125,0.75 Z M12.703125,5.0625 C12.765625,4.9375 12.7617188,4.8125 12.6914062,4.6875 C12.6210938,4.5625 12.515625,4.5 12.375,4.5 L3.9375,4.5 C3.765625,4.5 3.5859375,4.5546875 3.3984375,4.6640625 C3.2109375,4.7734375 3.0703125,4.8984375 2.9765625,5.0390625 L1.0546875,8.25 L10.1484375,8.25 C10.3203125,8.25 10.5,8.1953125 10.6875,8.0859375 C10.875,7.9765625 11.015625,7.8515625 11.109375,7.7109375 L12.703125,5.0625 Z" id="Shape"></path>
            </g>
        </g>
    </g>
</svg>