<?xml version="1.0" encoding="UTF-8"?>
<svg width="11.625px" height="11.625px" viewBox="0 0 11.625 11.625" version="1.1" xmlns="http://www.w3.org/2000/svg" xmlns:xlink="http://www.w3.org/1999/xlink">
    <title>globe</title>
    <g id="Page-1" stroke="none" stroke-width="1" fill="none" fill-rule="evenodd">
        <g id="iconografia_sistema-copy" transform="translate(-32.000000, -256.687500)" fill="#000000" fill-rule="nonzero">
            <g id="globe" transform="translate(32.000000, 256.687500)">
                <path d="M1.6875,1.7109375 C2.828125,0.5703125 4.203125,0 5.8125,0 C7.421875,0 8.79296875,0.56640625 9.92578125,1.69921875 C11.0585938,2.83203125 11.625,4.203125 11.625,5.8125 C11.625,7.421875 11.0585938,8.79296875 9.92578125,9.92578125 C8.79296875,11.0585938 7.421875,11.625 5.8125,11.625 C4.203125,11.625 2.83203125,11.0585938 1.69921875,9.92578125 C0.56640625,8.79296875 0,7.421875 0,5.8125 C0,4.203125 0.5625,2.8359375 1.6875,1.7109375 Z M10.3359375,3.5625 C9.7109375,2.296875 8.734375,1.4453125 7.40625,1.0078125 C7.859375,1.6484375 8.1953125,2.5 8.4140625,3.5625 L10.3359375,3.5625 Z M7.78125,7.3125 C7.84375,6.8125 7.875,6.3125 7.875,5.8125 C7.875,5.3125 7.84375,4.8125 7.78125,4.3125 L3.84375,4.3125 C3.78125,4.8125 3.75,5.3125 3.75,5.8125 C3.75,6.3125 3.78125,6.8125 3.84375,7.3125 L7.78125,7.3125 Z M5.8125,0.75 C5.484375,0.75 5.14453125,1.00390625 4.79296875,1.51171875 C4.44140625,2.01953125 4.171875,2.703125 3.984375,3.5625 L7.640625,3.5625 C7.546875,3.125 7.42578125,2.7265625 7.27734375,2.3671875 C7.12890625,2.0078125 6.97265625,1.7109375 6.80859375,1.4765625 C6.64453125,1.2421875 6.4765625,1.0625 6.3046875,0.9375 C6.1328125,0.8125 5.96875,0.75 5.8125,0.75 Z M4.21875,1.0078125 C2.890625,1.4453125 1.9140625,2.296875 1.2890625,3.5625 L3.2109375,3.5625 C3.4296875,2.515625 3.765625,1.6640625 4.21875,1.0078125 Z M0.984375,4.3125 C0.828125,4.796875 0.75,5.296875 0.75,5.8125 C0.75,6.328125 0.828125,6.828125 0.984375,7.3125 L3.09375,7.3125 C3.03125,6.8125 3,6.3125 3,5.8125 C3,5.328125 3.03125,4.828125 3.09375,4.3125 L0.984375,4.3125 Z M1.2890625,8.0625 C1.9140625,9.328125 2.890625,10.1796875 4.21875,10.6171875 C3.765625,9.9765625 3.4296875,9.125 3.2109375,8.0625 L1.2890625,8.0625 Z M5.8125,10.875 C6.140625,10.875 6.48046875,10.6210938 6.83203125,10.1132812 C7.18359375,9.60546875 7.453125,8.921875 7.640625,8.0625 L3.984375,8.0625 C4.109375,8.640625 4.27734375,9.14453125 4.48828125,9.57421875 C4.69921875,10.0039062 4.91796875,10.328125 5.14453125,10.546875 C5.37109375,10.765625 5.59375,10.875 5.8125,10.875 Z M7.40625,10.6171875 C8.734375,10.1796875 9.7109375,9.328125 10.3359375,8.0625 L8.4140625,8.0625 C8.1953125,9.109375 7.859375,9.9609375 7.40625,10.6171875 Z M8.53125,7.3125 L10.640625,7.3125 C10.796875,6.828125 10.875,6.328125 10.875,5.8125 C10.875,5.296875 10.796875,4.796875 10.640625,4.3125 L8.53125,4.3125 C8.59375,4.8125 8.625,5.3125 8.625,5.8125 C8.625,6.296875 8.59375,6.796875 8.53125,7.3125 Z" id="Shape"></path>
            </g>
        </g>
    </g>
</svg>