<?xml version="1.0" encoding="UTF-8"?>
<svg width="10.5px" height="10.5px" viewBox="0 0 10.5 10.5" version="1.1" xmlns="http://www.w3.org/2000/svg" xmlns:xlink="http://www.w3.org/1999/xlink">
    <title>image-polaroid</title>
    <g id="Page-1" stroke="none" stroke-width="1" fill="none" fill-rule="evenodd">
        <g id="iconografia_sistema-copy" transform="translate(-33.000000, -1182.250000)" fill="#000000" fill-rule="nonzero">
            <g id="image-polaroid" transform="translate(33.000000, 1182.250000)">
                <path d="M3.421875,3.421875 C3.203125,3.640625 2.9375,3.75 2.625,3.75 C2.3125,3.75 2.046875,3.640625 1.828125,3.421875 C1.609375,3.203125 1.5,2.9375 1.5,2.625 C1.5,2.3125 1.609375,2.046875 1.828125,1.828125 C2.046875,1.609375 2.3125,1.5 2.625,1.5 C2.9375,1.5 3.203125,1.609375 3.421875,1.828125 C3.640625,2.046875 3.75,2.3125 3.75,2.625 C3.75,2.9375 3.640625,3.203125 3.421875,3.421875 Z M2.8828125,2.3671875 C2.8203125,2.2890625 2.734375,2.25 2.625,2.25 C2.515625,2.25 2.42578125,2.28515625 2.35546875,2.35546875 C2.28515625,2.42578125 2.25,2.515625 2.25,2.625 C2.25,2.734375 2.28515625,2.82421875 2.35546875,2.89453125 C2.42578125,2.96484375 2.515625,3 2.625,3 C2.734375,3 2.82421875,2.96484375 2.89453125,2.89453125 C2.96484375,2.82421875 3,2.734375 3,2.625 C3,2.515625 2.9609375,2.4296875 2.8828125,2.3671875 Z M9.75,0 C9.953125,0 10.1289062,0.07421875 10.2773438,0.22265625 C10.4257812,0.37109375 10.5,0.546875 10.5,0.75 L10.5,9.75 C10.5,9.953125 10.4257812,10.1289062 10.2773438,10.2773438 C10.1289062,10.4257812 9.953125,10.5 9.75,10.5 L0.75,10.5 C0.546875,10.5 0.37109375,10.4257812 0.22265625,10.2773438 C0.07421875,10.1289062 0,9.953125 0,9.75 L0,0.75 C0,0.546875 0.07421875,0.37109375 0.22265625,0.22265625 C0.37109375,0.07421875 0.546875,0 0.75,0 L9.75,0 Z M9.75,9.75 L9.75,7.875 L0.75,7.875 L0.75,9.75 L9.75,9.75 Z M1.9921875,7.125 L3.8671875,7.125 L4.1484375,6.75 L3.2109375,5.5078125 L1.9921875,7.125 Z M4.8046875,7.125 L8.3671875,7.125 L6.5859375,4.7578125 L4.8046875,7.125 Z M9.75,7.125 L9.75,0.75 L0.75,0.75 L0.75,7.125 L1.0546875,7.125 L2.90625,4.640625 C2.984375,4.546875 3.0859375,4.5 3.2109375,4.5 C3.3359375,4.5 3.4375,4.546875 3.515625,4.640625 L4.6171875,6.1171875 L6.28125,3.890625 C6.359375,3.796875 6.4609375,3.75 6.5859375,3.75 C6.7109375,3.75 6.8125,3.796875 6.890625,3.890625 L9.3046875,7.125 L9.75,7.125 Z" id="Shape"></path>
            </g>
        </g>
    </g>
</svg>