<?xml version="1.0" encoding="UTF-8"?>
<svg width="10.5117188px" height="6.0234375px" viewBox="0 0 10.5117188 6.0234375" version="1.1" xmlns="http://www.w3.org/2000/svg" xmlns:xlink="http://www.w3.org/1999/xlink">
    <title>long-arrow-left</title>
    <g id="Page-1" stroke="none" stroke-width="1" fill="none" fill-rule="evenodd">
        <g id="iconografia_sistema-copy" transform="translate(-369.011719, -610.488281)" fill="#000000" fill-rule="nonzero">
            <g id="long-arrow-left" transform="translate(369.011719, 610.488281)">
                <path d="M3.22265625,5.91796875 C3.08203125,6.05859375 2.94921875,6.05859375 2.82421875,5.91796875 L0.10546875,3.19921875 C-0.03515625,3.07421875 -0.03515625,2.94921875 0.10546875,2.82421875 L2.82421875,0.10546875 C2.94921875,-0.03515625 3.08203125,-0.03515625 3.22265625,0.10546875 L3.38671875,0.26953125 C3.52734375,0.39453125 3.52734375,0.52734375 3.38671875,0.66796875 L1.41796875,2.61328125 L10.2304688,2.61328125 C10.4179688,2.61328125 10.5117188,2.70703125 10.5117188,2.89453125 L10.5117188,3.12890625 C10.5117188,3.31640625 10.4179688,3.41015625 10.2304688,3.41015625 L1.41796875,3.41015625 L3.38671875,5.35546875 C3.52734375,5.49609375 3.52734375,5.62890625 3.38671875,5.75390625 L3.22265625,5.91796875 Z" id="Path"></path>
            </g>
        </g>
    </g>
</svg>