<?xml version="1.0" encoding="UTF-8"?>
<svg width="12.011849px" height="12.0318057px" viewBox="0 0 12.011849 12.0318057" version="1.1" xmlns="http://www.w3.org/2000/svg" xmlns:xlink="http://www.w3.org/1999/xlink">
    <title>paper-plane</title>
    <g id="Page-1" stroke="none" stroke-width="1" fill="none" fill-rule="evenodd">
        <g id="iconografia_sistema-copy" transform="translate(-368.022135, -589.484738)" fill="#000000" fill-rule="nonzero">
            <g id="paper-plane" transform="translate(368.022135, 589.484738)">
                <path d="M10.8763021,0.109011628 C11.1419271,-0.0472383721 11.4075521,-0.0355196221 11.6731771,0.144167878 C11.9388021,0.323855378 12.0481771,0.569949128 12.0013021,0.882449128 L10.5013021,10.6558866 C10.4544271,10.8902616 10.3255208,11.0699491 10.1145833,11.1949491 C9.90364583,11.3199491 9.68880208,11.3355741 9.47005208,11.2418241 L6.49348958,9.99963663 L5.08723958,11.7340116 C4.86848958,12.0152616 4.59114583,12.0972929 4.25520833,11.9801054 C3.91927083,11.8629179 3.75130208,11.6246366 3.75130208,11.2652616 L3.75130208,8.87463663 L0.470052083,7.51526163 C0.173177083,7.39026163 0.0169270833,7.17541788 0.00130208333,6.87073038 C-0.0143229167,6.56604288 0.110677083,6.33557413 0.376302083,6.17932413 L10.8763021,0.109011628 Z M4.50130208,11.2652616 L5.76692708,9.71838663 L4.50130208,9.17932413 L4.50130208,11.2652616 Z M9.75130208,10.5386991 L11.2513021,0.765261628 L0.751302083,6.81213663 L3.42317708,7.91369913 L9.39973958,2.82776163 C9.46223958,2.76526163 9.52473958,2.76526163 9.58723958,2.82776163 C9.64973958,2.89026163 9.64973958,2.95276163 9.58723958,3.01526163 L4.92317708,8.54651163 L9.75130208,10.5386991 Z" id="Shape"></path>
            </g>
        </g>
    </g>
</svg>