<?xml version="1.0" encoding="UTF-8"?>
<svg width="11.0625px" height="12px" viewBox="0 0 11.0625 12" version="1.1" xmlns="http://www.w3.org/2000/svg" xmlns:xlink="http://www.w3.org/1999/xlink">
    <title>paperclip</title>
    <g id="Page-1" stroke="none" stroke-width="1" fill="none" fill-rule="evenodd">
        <g id="iconografia_sistema-copy" transform="translate(-368.468750, -751.500000)" fill="#000000" fill-rule="nonzero">
            <g id="paperclip" transform="translate(368.468750, 751.500000)">
                <path d="M5.15625,11.109375 C4.578125,11.703125 3.87109375,12 3.03515625,12 C2.19921875,12 1.484375,11.703125 0.890625,11.109375 C0.296875,10.515625 0,9.80078125 0,8.96484375 C0,8.12890625 0.296875,7.421875 0.890625,6.84375 L7.03125,0.6796875 C7.484375,0.2265625 8.0390625,0 8.6953125,0 C9.3515625,0 9.91015625,0.23046875 10.3710938,0.69140625 C10.8320312,1.15234375 11.0625,1.7109375 11.0625,2.3671875 C11.0625,3.0234375 10.8359375,3.578125 10.3828125,4.03125 L5.15625,9.2578125 C4.828125,9.5859375 4.42578125,9.75 3.94921875,9.75 C3.47265625,9.75 3.0703125,9.5859375 2.7421875,9.2578125 C2.4140625,8.9296875 2.25,8.52734375 2.25,8.05078125 C2.25,7.57421875 2.4140625,7.171875 2.7421875,6.84375 L6.75,2.859375 C6.875,2.71875 7,2.71875 7.125,2.859375 L7.265625,2.9765625 C7.40625,3.1171875 7.40625,3.25 7.265625,3.375 L3.28125,7.3828125 C3.09375,7.5703125 3,7.79296875 3,8.05078125 C3,8.30859375 3.09375,8.53125 3.28125,8.71875 C3.46875,8.90625 3.69140625,9 3.94921875,9 C4.20703125,9 4.4296875,8.90625 4.6171875,8.71875 L9.84375,3.515625 C10.15625,3.1875 10.3125,2.80078125 10.3125,2.35546875 C10.3125,1.91015625 10.15625,1.53125 9.84375,1.21875 C9.53125,0.90625 9.15234375,0.75 8.70703125,0.75 C8.26171875,0.75 7.875,0.90625 7.546875,1.21875 L1.40625,7.359375 C0.96875,7.8125 0.75,8.3515625 0.75,8.9765625 C0.75,9.6015625 0.97265625,10.1367188 1.41796875,10.5820312 C1.86328125,11.0273438 2.3984375,11.25 3.0234375,11.25 C3.6484375,11.25 4.1875,11.03125 4.640625,10.59375 L9.75,5.484375 C9.875,5.34375 10.0078125,5.34375 10.1484375,5.484375 L10.265625,5.625 C10.40625,5.75 10.40625,5.875 10.265625,6 L5.15625,11.109375 Z" id="Path"></path>
            </g>
        </g>
    </g>
</svg>