<?xml version="1.0" encoding="UTF-8"?>
<svg width="12px" height="12px" viewBox="0 0 12 12" version="1.1" xmlns="http://www.w3.org/2000/svg" xmlns:xlink="http://www.w3.org/1999/xlink">
    <title>print 2</title>
    <g id="Page-1" stroke="none" stroke-width="1" fill="none" fill-rule="evenodd">
        <g id="iconografia_sistema-copy" transform="translate(-32.000000, -473.500000)" fill="#000000" fill-rule="nonzero">
            <g id="print" transform="translate(32.000000, 473.500000)">
                <path d="M10.125,4.5 C10.640625,4.5 11.0820312,4.68359375 11.4492188,5.05078125 C11.8164062,5.41796875 12,5.859375 12,6.375 L12,8.625 C12,8.734375 11.9648438,8.82421875 11.8945312,8.89453125 C11.8242188,8.96484375 11.734375,9 11.625,9 L9.75,9 L9.75,11.625 C9.75,11.734375 9.71484375,11.8242188 9.64453125,11.8945312 C9.57421875,11.9648438 9.484375,12 9.375,12 L2.625,12 C2.515625,12 2.42578125,11.9648438 2.35546875,11.8945312 C2.28515625,11.8242188 2.25,11.734375 2.25,11.625 L2.25,9 L0.375,9 C0.265625,9 0.17578125,8.96484375 0.10546875,8.89453125 C0.03515625,8.82421875 0,8.734375 0,8.625 L0,6.375 C0,5.859375 0.18359375,5.41796875 0.55078125,5.05078125 C0.91796875,4.68359375 1.359375,4.5 1.875,4.5 L2.25,4.5 L2.25,0.75 C2.25,0.609375 2.28125,0.484375 2.34375,0.375 C2.40625,0.265625 2.4921875,0.17578125 2.6015625,0.10546875 C2.7109375,0.03515625 2.828125,0 2.953125,0 L7.1953125,0 C7.3984375,0 7.5703125,0.0703125 7.7109375,0.2109375 L9.5390625,2.0390625 C9.6796875,2.1796875 9.75,2.3515625 9.75,2.5546875 L9.75,4.5 L10.125,4.5 Z M7.5,1.0546875 L7.5,2.25 L8.6953125,2.25 L7.5,1.0546875 Z M3,0.75 L3,4.5 L9,4.5 L9,3 L7.5,3 C7.296875,3 7.12109375,2.92578125 6.97265625,2.77734375 C6.82421875,2.62890625 6.75,2.453125 6.75,2.25 L6.75,0.75 L3,0.75 Z M9,11.25 L9,9 L3,9 L3,11.25 L9,11.25 Z M11.25,8.25 L11.25,6.375 C11.25,6.0625 11.140625,5.796875 10.921875,5.578125 C10.703125,5.359375 10.4375,5.25 10.125,5.25 L1.875,5.25 C1.5625,5.25 1.296875,5.359375 1.078125,5.578125 C0.859375,5.796875 0.75,6.0625 0.75,6.375 L0.75,8.25 L11.25,8.25 Z M8.9765625,6.3515625 C9.0859375,6.2421875 9.21875,6.1875 9.375,6.1875 C9.53125,6.1875 9.6640625,6.2421875 9.7734375,6.3515625 C9.8828125,6.4609375 9.9375,6.59375 9.9375,6.75 C9.9375,6.90625 9.8828125,7.0390625 9.7734375,7.1484375 C9.6640625,7.2578125 9.53125,7.3125 9.375,7.3125 C9.21875,7.3125 9.0859375,7.2578125 8.9765625,7.1484375 C8.8671875,7.0390625 8.8125,6.90625 8.8125,6.75 C8.8125,6.59375 8.8671875,6.4609375 8.9765625,6.3515625 Z" id="Shape"></path>
            </g>
        </g>
    </g>
</svg>