<?xml version="1.0" encoding="UTF-8"?>
<svg width="10.5px" height="10.5px" viewBox="0 0 10.5 10.5" version="1.1" xmlns="http://www.w3.org/2000/svg" xmlns:xlink="http://www.w3.org/1999/xlink">
    <title>save</title>
    <g id="Page-1" stroke="none" stroke-width="1" fill="none" fill-rule="evenodd">
        <g id="iconografia_sistema-copy" transform="translate(-369.000000, -770.250000)" fill="#000000" fill-rule="nonzero">
            <g id="save" transform="translate(369.000000, 770.250000)">
                <path d="M10.171875,2.296875 C10.390625,2.515625 10.5,2.78125 10.5,3.09375 L10.5,9.375 C10.5,9.6875 10.390625,9.953125 10.171875,10.171875 C9.953125,10.390625 9.6875,10.5 9.375,10.5 L1.125,10.5 C0.8125,10.5 0.546875,10.390625 0.328125,10.171875 C0.109375,9.953125 0,9.6875 0,9.375 L0,1.125 C0,0.8125 0.109375,0.546875 0.328125,0.328125 C0.546875,0.109375 0.8125,0 1.125,0 L7.40625,0 C7.71875,0 7.984375,0.109375 8.203125,0.328125 L10.171875,2.296875 Z M6.75,0.75 L2.25,0.75 L2.25,3 L6.75,3 L6.75,0.75 Z M9.75,9.375 L9.75,3.09375 C9.75,2.984375 9.7109375,2.8984375 9.6328125,2.8359375 L7.6640625,0.8671875 C7.6171875,0.8203125 7.5625,0.78125 7.5,0.75 L7.5,3.1875 C7.5,3.34375 7.4453125,3.4765625 7.3359375,3.5859375 C7.2265625,3.6953125 7.09375,3.75 6.9375,3.75 L2.0625,3.75 C1.90625,3.75 1.7734375,3.6953125 1.6640625,3.5859375 C1.5546875,3.4765625 1.5,3.34375 1.5,3.1875 L1.5,0.75 L1.125,0.75 C1.015625,0.75 0.92578125,0.78515625 0.85546875,0.85546875 C0.78515625,0.92578125 0.75,1.015625 0.75,1.125 L0.75,9.375 C0.75,9.484375 0.78515625,9.57421875 0.85546875,9.64453125 C0.92578125,9.71484375 1.015625,9.75 1.125,9.75 L9.375,9.75 C9.484375,9.75 9.57421875,9.71484375 9.64453125,9.64453125 C9.71484375,9.57421875 9.75,9.484375 9.75,9.375 Z M3.796875,5.296875 C4.203125,4.890625 4.6875,4.6875 5.25,4.6875 C5.8125,4.6875 6.296875,4.890625 6.703125,5.296875 C7.109375,5.703125 7.3125,6.1875 7.3125,6.75 C7.3125,7.3125 7.109375,7.796875 6.703125,8.203125 C6.296875,8.609375 5.8125,8.8125 5.25,8.8125 C4.6875,8.8125 4.203125,8.609375 3.796875,8.203125 C3.390625,7.796875 3.1875,7.3125 3.1875,6.75 C3.1875,6.1875 3.390625,5.703125 3.796875,5.296875 Z M4.3125,7.6875 C4.578125,7.9375 4.890625,8.0625 5.25,8.0625 C5.609375,8.0625 5.91796875,7.93359375 6.17578125,7.67578125 C6.43359375,7.41796875 6.5625,7.109375 6.5625,6.75 C6.5625,6.390625 6.43359375,6.08203125 6.17578125,5.82421875 C5.91796875,5.56640625 5.609375,5.4375 5.25,5.4375 C4.890625,5.4375 4.58203125,5.56640625 4.32421875,5.82421875 C4.06640625,6.08203125 3.9375,6.390625 3.9375,6.75 C3.9375,7.109375 4.0625,7.421875 4.3125,7.6875 Z" id="Shape"></path>
            </g>
        </g>
    </g>
</svg>