<?xml version="1.0" encoding="UTF-8"?>
<svg width="12px" height="10.5px" viewBox="0 0 12 10.5" version="1.1" xmlns="http://www.w3.org/2000/svg" xmlns:xlink="http://www.w3.org/1999/xlink">
    <title>sliders-h</title>
    <g id="Page-1" stroke="none" stroke-width="1" fill="none" fill-rule="evenodd">
        <g id="iconografia_sistema-copy" transform="translate(-368.000000, -443.250000)" fill="#000000" fill-rule="nonzero">
            <g id="sliders-h" transform="translate(368.000000, 443.250000)">
                <path d="M11.8125,8.25 C11.9375,8.25 12,8.3125 12,8.4375 L12,8.8125 C12,8.9375 11.9375,9 11.8125,9 L4.5,9 L4.5,9.9375 C4.5,10.09375 4.4453125,10.2265625 4.3359375,10.3359375 C4.2265625,10.4453125 4.09375,10.5 3.9375,10.5 L2.8125,10.5 C2.65625,10.5 2.5234375,10.4453125 2.4140625,10.3359375 C2.3046875,10.2265625 2.25,10.09375 2.25,9.9375 L2.25,9 L0.1875,9 C0.0625,9 0,8.9375 0,8.8125 L0,8.4375 C0,8.3125 0.0625,8.25 0.1875,8.25 L2.25,8.25 L2.25,7.3125 C2.25,7.15625 2.3046875,7.0234375 2.4140625,6.9140625 C2.5234375,6.8046875 2.65625,6.75 2.8125,6.75 L3.9375,6.75 C4.09375,6.75 4.2265625,6.8046875 4.3359375,6.9140625 C4.4453125,7.0234375 4.5,7.15625 4.5,7.3125 L4.5,8.25 L11.8125,8.25 Z M3.75,9.75 L3.75,7.5 L3,7.5 L3,9.75 L3.75,9.75 Z M11.8125,1.5 C11.9375,1.5 12,1.5625 12,1.6875 L12,2.0625 C12,2.1875 11.9375,2.25 11.8125,2.25 L6,2.25 L6,3.1875 C6,3.34375 5.9453125,3.4765625 5.8359375,3.5859375 C5.7265625,3.6953125 5.59375,3.75 5.4375,3.75 L4.3125,3.75 C4.15625,3.75 4.0234375,3.6953125 3.9140625,3.5859375 C3.8046875,3.4765625 3.75,3.34375 3.75,3.1875 L3.75,2.25 L0.1875,2.25 C0.0625,2.25 0,2.1875 0,2.0625 L0,1.6875 C0,1.5625 0.0625,1.5 0.1875,1.5 L3.75,1.5 L3.75,0.5625 C3.75,0.40625 3.8046875,0.2734375 3.9140625,0.1640625 C4.0234375,0.0546875 4.15625,0 4.3125,0 L5.4375,0 C5.59375,0 5.7265625,0.0546875 5.8359375,0.1640625 C5.9453125,0.2734375 6,0.40625 6,0.5625 L6,1.5 L11.8125,1.5 Z M5.25,3 L5.25,0.75 L4.5,0.75 L4.5,3 L5.25,3 Z M11.8125,4.875 C11.9375,4.875 12,4.9375 12,5.0625 L12,5.4375 C12,5.5625 11.9375,5.625 11.8125,5.625 L9.75,5.625 L9.75,6.5625 C9.75,6.71875 9.6953125,6.8515625 9.5859375,6.9609375 C9.4765625,7.0703125 9.34375,7.125 9.1875,7.125 L8.0625,7.125 C7.90625,7.125 7.7734375,7.0703125 7.6640625,6.9609375 C7.5546875,6.8515625 7.5,6.71875 7.5,6.5625 L7.5,5.625 L0.1875,5.625 C0.0625,5.625 0,5.5625 0,5.4375 L0,5.0625 C0,4.9375 0.0625,4.875 0.1875,4.875 L7.5,4.875 L7.5,3.9375 C7.5,3.78125 7.5546875,3.6484375 7.6640625,3.5390625 C7.7734375,3.4296875 7.90625,3.375 8.0625,3.375 L9.1875,3.375 C9.34375,3.375 9.4765625,3.4296875 9.5859375,3.5390625 C9.6953125,3.6484375 9.75,3.78125 9.75,3.9375 L9.75,4.875 L11.8125,4.875 Z M9,6.375 L9,4.125 L8.25,4.125 L8.25,6.375 L9,6.375 Z" id="Shape"></path>
            </g>
        </g>
    </g>
</svg>