<?xml version="1.0" encoding="UTF-8"?>
<svg width="12px" height="10.5px" viewBox="0 0 12 10.5" version="1.1" xmlns="http://www.w3.org/2000/svg" xmlns:xlink="http://www.w3.org/1999/xlink">
    <title>th-large</title>
    <g id="Page-1" stroke="none" stroke-width="1" fill="none" fill-rule="evenodd">
        <g id="iconografia_sistema-copy" transform="translate(-32.000000, -275.250000)" fill="#000000" fill-rule="nonzero">
            <g id="th-large" transform="translate(32.000000, 275.250000)">
                <path d="M0,1.125 C0,0.8125 0.109375,0.546875 0.328125,0.328125 C0.546875,0.109375 0.8125,0 1.125,0 L10.875,0 C11.1875,0 11.453125,0.109375 11.671875,0.328125 C11.890625,0.546875 12,0.8125 12,1.125 L12,9.375 C12,9.6875 11.890625,9.953125 11.671875,10.171875 C11.453125,10.390625 11.1875,10.5 10.875,10.5 L1.125,10.5 C0.8125,10.5 0.546875,10.390625 0.328125,10.171875 C0.109375,9.953125 0,9.6875 0,9.375 L0,1.125 Z M5.625,0.75 L1.125,0.75 C1.015625,0.75 0.92578125,0.78515625 0.85546875,0.85546875 C0.78515625,0.92578125 0.75,1.015625 0.75,1.125 L0.75,4.875 L5.625,4.875 L5.625,0.75 Z M0.75,9.375 C0.75,9.484375 0.78515625,9.57421875 0.85546875,9.64453125 C0.92578125,9.71484375 1.015625,9.75 1.125,9.75 L5.625,9.75 L5.625,5.625 L0.75,5.625 L0.75,9.375 Z M6.375,9.75 L10.875,9.75 C10.984375,9.75 11.0742188,9.71484375 11.1445312,9.64453125 C11.2148438,9.57421875 11.25,9.484375 11.25,9.375 L11.25,5.625 L6.375,5.625 L6.375,9.75 Z M11.25,4.875 L11.25,1.125 C11.25,1.015625 11.2148438,0.92578125 11.1445312,0.85546875 C11.0742188,0.78515625 10.984375,0.75 10.875,0.75 L6.375,0.75 L6.375,4.875 L11.25,4.875 Z" id="Shape"></path>
            </g>
        </g>
    </g>
</svg>