<?xml version="1.0" encoding="UTF-8"?>
<svg width="11.625px" height="11.625px" viewBox="0 0 11.625 11.625" version="1.1" xmlns="http://www.w3.org/2000/svg" xmlns:xlink="http://www.w3.org/1999/xlink">
    <title>undo_regular</title>
    <g id="Page-1" stroke="none" stroke-width="1" fill="none" fill-rule="evenodd">
        <g id="iconografia_sistema-copy" transform="translate(-368.187500, -514.687500)" fill="#000000" fill-rule="nonzero">
            <g id="undo_regular" transform="translate(368.187500, 514.687500)">
                <path d="M0.46875,0.46875 L1.7109375,1.7109375 C2.8359375,0.5703125 4.203125,0 5.8125,0 C7.40625,0 8.7734375,0.5703125 9.9140625,1.7109375 C11.0546875,2.8515625 11.625,4.21875 11.625,5.8125 C11.625,6.609375 11.4726562,7.36328125 11.1679688,8.07421875 C10.8632812,8.78515625 10.4492188,9.40234375 9.92578125,9.92578125 C9.40234375,10.4492188 8.78125,10.8632812 8.0625,11.1679688 C7.34375,11.4726562 6.59375,11.625 5.8125,11.625 C4.328125,11.625 3.03125,11.125 1.921875,10.125 C1.765625,10 1.7578125,9.8671875 1.8984375,9.7265625 L2.3671875,9.2578125 C2.4921875,9.1328125 2.625,9.125 2.765625,9.234375 C3.625,10.015625 4.640625,10.40625 5.8125,10.40625 C7.078125,10.40625 8.16015625,9.95703125 9.05859375,9.05859375 C9.95703125,8.16015625 10.40625,7.078125 10.40625,5.8125 C10.40625,4.546875 9.95703125,3.46484375 9.05859375,2.56640625 C8.16015625,1.66796875 7.078125,1.21875 5.8125,1.21875 C4.546875,1.21875 3.4609375,1.6640625 2.5546875,2.5546875 L3.84375,3.84375 C3.921875,3.921875 3.9375,4.01953125 3.890625,4.13671875 C3.84375,4.25390625 3.7578125,4.3125 3.6328125,4.3125 L0.28125,4.3125 C0.09375,4.3125 0,4.21875 0,4.03125 L0,0.6796875 C0,0.5546875 0.05859375,0.46875 0.17578125,0.421875 C0.29296875,0.375 0.390625,0.390625 0.46875,0.46875 Z" id="Path"></path>
            </g>
        </g>
    </g>
</svg>