<?xml version="1.0" encoding="UTF-8"?>
<svg width="10.5px" height="12px" viewBox="0 0 10.5 12" version="1.1" xmlns="http://www.w3.org/2000/svg" xmlns:xlink="http://www.w3.org/1999/xlink">
    <title>user-tie</title>
    <g id="Page-1" stroke="none" stroke-width="1" fill="none" fill-rule="evenodd">
        <g id="iconografia_sistema-copy" transform="translate(-326.000000, -1019.500000)" fill="#000000" fill-rule="nonzero">
            <g id="user-tie" transform="translate(326.000000, 1019.500000)">
                <path d="M7.359375,5.1328125 C6.78125,5.7109375 6.078125,6 5.25,6 C4.421875,6 3.71484375,5.70703125 3.12890625,5.12109375 C2.54296875,4.53515625 2.25,3.828125 2.25,3 C2.25,2.171875 2.54296875,1.46484375 3.12890625,0.87890625 C3.71484375,0.29296875 4.421875,0 5.25,0 C6.078125,0 6.78515625,0.29296875 7.37109375,0.87890625 C7.95703125,1.46484375 8.25,2.171875 8.25,3 C8.25,3.828125 7.953125,4.5390625 7.359375,5.1328125 Z M6.84375,1.40625 C6.40625,0.96875 5.875,0.75 5.25,0.75 C4.625,0.75 4.09375,0.96875 3.65625,1.40625 C3.21875,1.84375 3,2.375 3,3 C3,3.625 3.21875,4.15625 3.65625,4.59375 C4.09375,5.03125 4.625,5.25 5.25,5.25 C5.875,5.25 6.40625,5.03125 6.84375,4.59375 C7.28125,4.15625 7.5,3.625 7.5,3 C7.5,2.375 7.28125,1.84375 6.84375,1.40625 Z M7.40625,7.125 C8.265625,7.140625 8.99609375,7.453125 9.59765625,8.0625 C10.1992188,8.671875 10.5,9.40625 10.5,10.265625 L10.5,10.875 C10.5,11.1875 10.390625,11.453125 10.171875,11.671875 C9.953125,11.890625 9.6875,12 9.375,12 L1.125,12 C0.8125,12 0.546875,11.890625 0.328125,11.671875 C0.109375,11.453125 0,11.1875 0,10.875 L0,10.265625 C0,9.40625 0.30078125,8.671875 0.90234375,8.0625 C1.50390625,7.453125 2.234375,7.140625 3.09375,7.125 L4.03125,10.359375 L4.828125,7.96875 L4.2421875,7.3828125 C4.1171875,7.2734375 4.0859375,7.140625 4.1484375,6.984375 C4.2109375,6.828125 4.328125,6.75 4.5,6.75 L6,6.75 C6.171875,6.75 6.2890625,6.828125 6.3515625,6.984375 C6.4140625,7.140625 6.3828125,7.2734375 6.2578125,7.3828125 L5.671875,7.96875 L6.46875,10.359375 L7.40625,7.125 Z M1.125,11.25 L3.515625,11.25 L2.5546875,7.96875 C2.2109375,8.046875 1.90234375,8.19921875 1.62890625,8.42578125 C1.35546875,8.65234375 1.140625,8.92578125 0.984375,9.24609375 C0.828125,9.56640625 0.75,9.90625 0.75,10.265625 L0.75,10.875 C0.75,10.984375 0.78515625,11.0742188 0.85546875,11.1445312 C0.92578125,11.2148438 1.015625,11.25 1.125,11.25 Z M4.5234375,11.25 L5.9765625,11.25 L5.25,9.0703125 L4.5234375,11.25 Z M9.75,10.875 L9.75,10.265625 C9.75,9.71875 9.578125,9.23046875 9.234375,8.80078125 C8.890625,8.37109375 8.4609375,8.09375 7.9453125,7.96875 L6.984375,11.25 L9.375,11.25 C9.484375,11.25 9.57421875,11.2148438 9.64453125,11.1445312 C9.71484375,11.0742188 9.75,10.984375 9.75,10.875 Z" id="Shape"></path>
            </g>
        </g>
    </g>
</svg>