<?xml version="1.0" encoding="UTF-8"?>
<svg width="10.5px" height="12px" viewBox="0 0 10.5 12" version="1.1" xmlns="http://www.w3.org/2000/svg" xmlns:xlink="http://www.w3.org/1999/xlink">
    <title>user-tie_solid</title>
    <g id="Page-1" stroke="none" stroke-width="1" fill="none" fill-rule="evenodd">
        <g id="iconografia_sistema-copy" transform="translate(-326.000000, -1145.500000)" fill="#000000" fill-rule="nonzero">
            <g id="user-tie_solid" transform="translate(326.000000, 1145.500000)">
                <path d="M7.359375,5.1328125 C6.78125,5.7109375 6.078125,6 5.25,6 C4.421875,6 3.71484375,5.70703125 3.12890625,5.12109375 C2.54296875,4.53515625 2.25,3.828125 2.25,3 C2.25,2.171875 2.54296875,1.46484375 3.12890625,0.87890625 C3.71484375,0.29296875 4.421875,0 5.25,0 C6.078125,0 6.78515625,0.29296875 7.37109375,0.87890625 C7.95703125,1.46484375 8.25,2.171875 8.25,3 C8.25,3.828125 7.953125,4.5390625 7.359375,5.1328125 Z M7.5,6.7734375 C8.328125,6.8046875 9.03515625,7.125 9.62109375,7.734375 C10.2070312,8.34375 10.5,9.0625 10.5,9.890625 L10.5,10.875 C10.5,11.1875 10.390625,11.453125 10.171875,11.671875 C9.953125,11.890625 9.6875,12 9.375,12 L1.125,12 C0.8125,12 0.546875,11.890625 0.328125,11.671875 C0.109375,11.453125 0,11.1875 0,10.875 L0,9.890625 C0,9.0625 0.29296875,8.34375 0.87890625,7.734375 C1.46484375,7.125 2.171875,6.8046875 3,6.7734375 L4.125,11.25 L4.875,8.0625 L4.125,6.75 L6.375,6.75 L5.625,8.0625 L6.375,11.25 L7.5,6.7734375 Z" id="Shape"></path>
            </g>
        </g>
    </g>
</svg>