<?xml version="1.0" encoding="UTF-8"?>
<svg width="10.5px" height="12px" viewBox="0 0 10.5 12" version="1.1" xmlns="http://www.w3.org/2000/svg" xmlns:xlink="http://www.w3.org/1999/xlink">
    <title>user-graduate_solid</title>
    <g id="Page-1" stroke="none" stroke-width="1" fill="none" fill-rule="evenodd">
        <g id="iconografia_sistema-copy" transform="translate(-326.000000, -1127.500000)" fill="#000000" fill-rule="nonzero">
            <g id="user-graduate_solid" transform="translate(326.000000, 1127.500000)">
                <path d="M7.4765625,7.5234375 C8.3203125,7.5546875 9.03515625,7.87109375 9.62109375,8.47265625 C10.2070312,9.07421875 10.5,9.796875 10.5,10.640625 L10.5,10.875 C10.5,11.1875 10.390625,11.453125 10.171875,11.671875 C9.953125,11.890625 9.6875,12 9.375,12 L1.125,12 C0.8125,12 0.546875,11.890625 0.328125,11.671875 C0.109375,11.453125 0,11.1875 0,10.875 L0,10.640625 C0,9.796875 0.29296875,9.07421875 0.87890625,8.47265625 C1.46484375,7.87109375 2.1796875,7.5546875 3.0234375,7.5234375 L5.25,9.75 L7.4765625,7.5234375 Z M0.328125,1.875 C0.109375,1.828125 0,1.703125 0,1.5 C0,1.296875 0.109375,1.171875 0.328125,1.125 L4.78125,0.046875 C5.09375,-0.015625 5.40625,-0.015625 5.71875,0.046875 L10.171875,1.125 C10.390625,1.1875 10.5,1.31640625 10.5,1.51171875 C10.5,1.70703125 10.390625,1.828125 10.171875,1.875 L7.921875,2.4140625 C8.140625,2.8515625 8.25,3.296875 8.25,3.75 C8.25,4.578125 7.95703125,5.28515625 7.37109375,5.87109375 C6.78515625,6.45703125 6.078125,6.75 5.25,6.75 C4.421875,6.75 3.71484375,6.45703125 3.12890625,5.87109375 C2.54296875,5.28515625 2.25,4.578125 2.25,3.75 C2.25,3.296875 2.359375,2.8515625 2.578125,2.4140625 L1.03125,2.0390625 L1.03125,3.28125 C1.21875,3.390625 1.3125,3.546875 1.3125,3.75 C1.3125,3.9375 1.2265625,4.09375 1.0546875,4.21875 L1.40625,5.671875 C1.421875,5.734375 1.42578125,5.7890625 1.41796875,5.8359375 C1.41015625,5.8828125 1.390625,5.921875 1.359375,5.953125 C1.328125,5.984375 1.2890625,6 1.2421875,6 L0.2578125,6 C0.1953125,6 0.14453125,5.96484375 0.10546875,5.89453125 C0.06640625,5.82421875 0.0625,5.75 0.09375,5.671875 L0.4453125,4.21875 C0.2734375,4.09375 0.1875,3.9375 0.1875,3.75 C0.1875,3.546875 0.28125,3.390625 0.46875,3.28125 L0.46875,1.8984375 L0.328125,1.875 Z" id="Shape"></path>
            </g>
        </g>
    </g>
</svg>