<?xml version="1.0" encoding="UTF-8"?>
<svg width="13.5px" height="9px" viewBox="0 0 13.5 9" version="1.1" xmlns="http://www.w3.org/2000/svg" xmlns:xlink="http://www.w3.org/1999/xlink">
    <title>video_solid 2</title>
    <g id="Page-1" stroke="none" stroke-width="1" fill="none" fill-rule="evenodd">
        <g id="iconografia_sistema-copy" transform="translate(-31.000000, -1129.000000)" fill="#000000" fill-rule="nonzero">
            <g id="video_solid" transform="translate(31.000000, 1129.000000)">
                <path d="M7.875,0 C8.1875,0 8.453125,0.109375 8.671875,0.328125 C8.890625,0.546875 9,0.8125 9,1.125 L9,7.875 C9,8.1875 8.890625,8.453125 8.671875,8.671875 C8.453125,8.890625 8.1875,9 7.875,9 L1.125,9 C0.8125,9 0.546875,8.890625 0.328125,8.671875 C0.109375,8.453125 0,8.1875 0,7.875 L0,1.125 C0,0.8125 0.109375,0.546875 0.328125,0.328125 C0.546875,0.109375 0.8125,0 1.125,0 L7.875,0 Z M12.328125,0.890625 C12.578125,0.71875 12.8359375,0.69921875 13.1015625,0.83203125 C13.3671875,0.96484375 13.5,1.1875 13.5,1.5 L13.5,7.5 C13.5,7.8125 13.3632812,8.03515625 13.0898438,8.16796875 C12.8164062,8.30078125 12.5625,8.28125 12.328125,8.109375 L9.75,6.3515625 L9.75,2.6484375 L12.328125,0.890625 Z" id="Shape"></path>
            </g>
        </g>
    </g>
</svg>