<?xml version="1.0" encoding="UTF-8"?>
<svg width="11.25px" height="9px" viewBox="0 0 11.25 9" version="1.1" xmlns="http://www.w3.org/2000/svg" xmlns:xlink="http://www.w3.org/1999/xlink">
    <title>volume 2</title>
    <g id="Page-1" stroke="none" stroke-width="1" fill="none" fill-rule="evenodd">
        <g id="iconografia_sistema-copy" transform="translate(-32.000000, -1021.000000)" fill="#000000" fill-rule="nonzero">
            <g id="volume" transform="translate(32.000000, 1021.000000)">
                <path d="M8.0390625,3.046875 C8.2265625,3.140625 8.39453125,3.26171875 8.54296875,3.41015625 C8.69140625,3.55859375 8.8046875,3.7265625 8.8828125,3.9140625 C8.9609375,4.1015625 9,4.296875 9,4.5 C9,4.703125 8.9609375,4.8984375 8.8828125,5.0859375 C8.8046875,5.2734375 8.69140625,5.44140625 8.54296875,5.58984375 C8.39453125,5.73828125 8.2265625,5.859375 8.0390625,5.953125 C7.9453125,6 7.84765625,6.0078125 7.74609375,5.9765625 C7.64453125,5.9453125 7.57421875,5.8828125 7.53515625,5.7890625 C7.49609375,5.6953125 7.4921875,5.59765625 7.5234375,5.49609375 C7.5546875,5.39453125 7.6171875,5.328125 7.7109375,5.296875 C8.0703125,5.125 8.25,4.859375 8.25,4.5 C8.25,4.140625 8.0703125,3.875 7.7109375,3.703125 C7.6171875,3.671875 7.5546875,3.60546875 7.5234375,3.50390625 C7.4921875,3.40234375 7.49609375,3.3046875 7.53515625,3.2109375 C7.57421875,3.1171875 7.64453125,3.0546875 7.74609375,3.0234375 C7.84765625,2.9921875 7.9453125,3 8.0390625,3.046875 Z M5.0390625,0.1640625 C5.1484375,0.0546875 5.27734375,0 5.42578125,0 C5.57421875,0 5.70703125,0.0546875 5.82421875,0.1640625 C5.94140625,0.2734375 6,0.40625 6,0.5625 L6,8.4375 C6,8.59375 5.94140625,8.7265625 5.82421875,8.8359375 C5.70703125,8.9453125 5.57421875,9 5.42578125,9 C5.27734375,9 5.1484375,8.9453125 5.0390625,8.8359375 L2.953125,6.75 L0.5625,6.75 C0.40625,6.75 0.2734375,6.6953125 0.1640625,6.5859375 C0.0546875,6.4765625 0,6.34375 0,6.1875 L0,2.8125 C0,2.65625 0.0546875,2.5234375 0.1640625,2.4140625 C0.2734375,2.3046875 0.40625,2.25 0.5625,2.25 L2.953125,2.25 L5.0390625,0.1640625 Z M5.25,7.9921875 L5.25,1.0078125 L3.2578125,3 L0.75,3 L0.75,6 L3.2578125,6 L5.25,7.9921875 Z M10.6875,2.34375 C11.0625,3 11.25,3.71875 11.25,4.5 C11.25,5.28125 11.0625,6 10.6875,6.65625 C10.3125,7.3125 9.8046875,7.828125 9.1640625,8.203125 C9.0703125,8.25 8.97265625,8.26171875 8.87109375,8.23828125 C8.76953125,8.21484375 8.6953125,8.15625 8.6484375,8.0625 C8.6015625,7.96875 8.58984375,7.87109375 8.61328125,7.76953125 C8.63671875,7.66796875 8.6953125,7.59375 8.7890625,7.546875 C9.3203125,7.25 9.73828125,6.828125 10.0429688,6.28125 C10.3476562,5.734375 10.5,5.140625 10.5,4.5 C10.5,3.859375 10.3476562,3.265625 10.0429688,2.71875 C9.73828125,2.171875 9.3203125,1.75 8.7890625,1.453125 C8.6953125,1.40625 8.63671875,1.33203125 8.61328125,1.23046875 C8.58984375,1.12890625 8.6015625,1.03125 8.6484375,0.9375 C8.6953125,0.84375 8.76953125,0.78515625 8.87109375,0.76171875 C8.97265625,0.73828125 9.0703125,0.75 9.1640625,0.796875 C9.8046875,1.171875 10.3125,1.6875 10.6875,2.34375 Z" id="Shape"></path>
            </g>
        </g>
    </g>
</svg>