<?xml version="1.0" encoding="UTF-8"?>
<svg width="10.5px" height="8.34375px" viewBox="0 0 10.5 8.34375" version="1.1" xmlns="http://www.w3.org/2000/svg" xmlns:xlink="http://www.w3.org/1999/xlink">
    <title>bars</title>
    <g id="Page-1" stroke="none" stroke-width="1" fill="none" fill-rule="evenodd">
        <g id="iconografia_sistema-copy" transform="translate(-369.000000, -186.328125)" fill="#000000" fill-rule="nonzero">
            <g id="bars" transform="translate(369.000000, 186.328125)">
                <path d="M10.359375,0.84375 L0.140625,0.84375 C0.046875,0.84375 0,0.796875 0,0.703125 L0,0.140625 C0,0.046875 0.046875,0 0.140625,0 L10.359375,0 C10.453125,0 10.5,0.046875 10.5,0.140625 L10.5,0.703125 C10.5,0.796875 10.453125,0.84375 10.359375,0.84375 Z M10.359375,4.59375 L0.140625,4.59375 C0.046875,4.59375 0,4.546875 0,4.453125 L0,3.890625 C0,3.796875 0.046875,3.75 0.140625,3.75 L10.359375,3.75 C10.453125,3.75 10.5,3.796875 10.5,3.890625 L10.5,4.453125 C10.5,4.546875 10.453125,4.59375 10.359375,4.59375 Z M10.359375,8.34375 L0.140625,8.34375 C0.046875,8.34375 0,8.296875 0,8.203125 L0,7.640625 C0,7.546875 0.046875,7.5 0.140625,7.5 L10.359375,7.5 C10.453125,7.5 10.5,7.546875 10.5,7.640625 L10.5,8.203125 C10.5,8.296875 10.453125,8.34375 10.359375,8.34375 Z" id="Shape"></path>
            </g>
        </g>
    </g>
</svg>