<?xml version="1.0" encoding="UTF-8"?>
<svg width="15px" height="12px" viewBox="0 0 15 12" version="1.1" xmlns="http://www.w3.org/2000/svg" xmlns:xlink="http://www.w3.org/1999/xlink">
    <title>bell-on</title>
    <g id="Page-1" stroke="none" stroke-width="1" fill="none" fill-rule="evenodd">
        <g id="iconografia_sistema-copy" transform="translate(-367.000000, -331.500000)" fill="#444444" fill-rule="nonzero">
            <g id="bell-on" transform="translate(367.000000, 331.500000)">
                <path d="M12.375,1.5 C12.265625,1.5 12.1757812,1.46484375 12.1054688,1.39453125 C12.0351562,1.32421875 12,1.234375 12,1.125 C12,0.96875 12.0703125,0.859375 12.2109375,0.796875 L13.7109375,0.046875 C13.7578125,0.015625 13.8125,0 13.875,0 C13.984375,0 14.0742188,0.03515625 14.1445312,0.10546875 C14.2148438,0.17578125 14.25,0.265625 14.25,0.375 C14.25,0.53125 14.1796875,0.640625 14.0390625,0.703125 L12.5390625,1.453125 C12.4921875,1.484375 12.4375,1.5 12.375,1.5 Z M1.875,3.75 C1.984375,3.75 2.07421875,3.78515625 2.14453125,3.85546875 C2.21484375,3.92578125 2.25,4.015625 2.25,4.125 C2.25,4.234375 2.21484375,4.32421875 2.14453125,4.39453125 C2.07421875,4.46484375 1.984375,4.5 1.875,4.5 L0.375,4.5 C0.265625,4.5 0.17578125,4.46484375 0.10546875,4.39453125 C0.03515625,4.32421875 0,4.234375 0,4.125 C0,4.015625 0.03515625,3.92578125 0.10546875,3.85546875 C0.17578125,3.78515625 0.265625,3.75 0.375,3.75 L1.875,3.75 Z M0.9609375,0.703125 C0.8203125,0.640625 0.75,0.53125 0.75,0.375 C0.75,0.265625 0.78515625,0.17578125 0.85546875,0.10546875 C0.92578125,0.03515625 1.015625,0 1.125,0 C1.1875,0 1.2421875,0.015625 1.2890625,0.046875 L2.7890625,0.796875 C2.9296875,0.859375 3,0.96875 3,1.125 C3,1.234375 2.96484375,1.32421875 2.89453125,1.39453125 C2.82421875,1.46484375 2.734375,1.5 2.625,1.5 C2.5625,1.5 2.5078125,1.484375 2.4609375,1.453125 L0.9609375,0.703125 Z M14.625,3.75 C14.734375,3.75 14.8242188,3.78515625 14.8945312,3.85546875 C14.9648438,3.92578125 15,4.015625 15,4.125 C15,4.234375 14.9648438,4.32421875 14.8945312,4.39453125 C14.8242188,4.46484375 14.734375,4.5 14.625,4.5 L13.125,4.5 C13.015625,4.5 12.9257812,4.46484375 12.8554688,4.39453125 C12.7851562,4.32421875 12.75,4.234375 12.75,4.125 C12.75,4.015625 12.7851562,3.92578125 12.8554688,3.85546875 C12.9257812,3.78515625 13.015625,3.75 13.125,3.75 L14.625,3.75 Z M6.9609375,11.015625 C7.1171875,11.171875 7.296875,11.25 7.5,11.25 C7.703125,11.25 7.87890625,11.1757812 8.02734375,11.0273438 C8.17578125,10.8789062 8.25,10.703125 8.25,10.5 L9,10.5 C9,10.90625 8.8515625,11.2578125 8.5546875,11.5546875 C8.2578125,11.8515625 7.90625,12 7.5,12 C7.09375,12 6.7421875,11.8515625 6.4453125,11.5546875 C6.1484375,11.2578125 6,10.90625 6,10.5 L6.75,10.5 C6.75,10.703125 6.8203125,10.875 6.9609375,11.015625 Z M11.25,4.359375 C11.25,5.359375 11.34375,6.09765625 11.53125,6.57421875 C11.71875,7.05078125 12.0078125,7.4765625 12.3984375,7.8515625 C12.6328125,8.0703125 12.75,8.3359375 12.75,8.6484375 C12.75,8.7890625 12.7265625,8.921875 12.6796875,9.046875 C12.6015625,9.234375 12.4609375,9.3984375 12.2578125,9.5390625 C12.0546875,9.6796875 11.84375,9.75 11.625,9.75 L3.375,9.75 C3.15625,9.75 2.9453125,9.6796875 2.7421875,9.5390625 C2.5390625,9.3984375 2.3984375,9.234375 2.3203125,9.046875 C2.2734375,8.921875 2.25,8.7890625 2.25,8.6484375 C2.25,8.3359375 2.3671875,8.0703125 2.6015625,7.8515625 C2.9921875,7.4765625 3.28125,7.05078125 3.46875,6.57421875 C3.65625,6.09765625 3.75,5.359375 3.75,4.359375 C3.75,3.4375 4.07421875,2.6328125 4.72265625,1.9453125 C5.37109375,1.2578125 6.171875,0.875 7.125,0.796875 L7.125,0.375 C7.125,0.265625 7.16015625,0.17578125 7.23046875,0.10546875 C7.30078125,0.03515625 7.390625,0 7.5,0 C7.609375,0 7.69921875,0.03515625 7.76953125,0.10546875 C7.83984375,0.17578125 7.875,0.265625 7.875,0.375 L7.875,0.796875 C8.828125,0.875 9.62890625,1.2578125 10.2773438,1.9453125 C10.9257812,2.6328125 11.25,3.4375 11.25,4.359375 Z M11.625,9 C11.796875,9 11.9140625,8.92578125 11.9765625,8.77734375 C12.0390625,8.62890625 12.0078125,8.5 11.8828125,8.390625 C11.4140625,7.9375 11.0664062,7.42578125 10.8398438,6.85546875 C10.6132812,6.28515625 10.5,5.453125 10.5,4.359375 C10.5,3.84375 10.3671875,3.3671875 10.1015625,2.9296875 C9.8359375,2.4921875 9.47265625,2.14453125 9.01171875,1.88671875 C8.55078125,1.62890625 8.046875,1.5 7.5,1.5 C6.953125,1.5 6.44921875,1.62890625 5.98828125,1.88671875 C5.52734375,2.14453125 5.1640625,2.4921875 4.8984375,2.9296875 C4.6328125,3.3671875 4.5,3.84375 4.5,4.359375 C4.5,5.453125 4.38671875,6.28515625 4.16015625,6.85546875 C3.93359375,7.42578125 3.5859375,7.9375 3.1171875,8.390625 C2.9921875,8.5 2.9609375,8.62890625 3.0234375,8.77734375 C3.0859375,8.92578125 3.203125,9 3.375,9 L11.625,9 Z" id="Shape"></path>
            </g>
        </g>
    </g>
</svg>