<?xml version="1.0" encoding="UTF-8"?>
<svg width="10.5px" height="12px" viewBox="0 0 10.5 12" version="1.1" xmlns="http://www.w3.org/2000/svg" xmlns:xlink="http://www.w3.org/1999/xlink">
    <title>book-user_solid</title>
    <g id="Page-1" stroke="none" stroke-width="1" fill="none" fill-rule="evenodd">
        <g id="iconografia_sistema-copy" transform="translate(-33.000000, -818.500000)" fill="#000000" fill-rule="nonzero">
            <g id="book-user_solid" transform="translate(33.000000, 818.500000)">
                <path d="M10.5,8.390625 C10.5,8.625 10.421875,8.78125 10.265625,8.859375 C10.234375,9 10.21875,9.2734375 10.21875,9.6796875 C10.21875,10.0859375 10.234375,10.3828125 10.265625,10.5703125 C10.421875,10.7265625 10.5,10.875 10.5,11.015625 L10.5,11.390625 C10.5,11.578125 10.4414062,11.7265625 10.3242188,11.8359375 C10.2070312,11.9453125 10.0625,12 9.890625,12 L2.25,12 C1.609375,12 1.07421875,11.7851562 0.64453125,11.3554688 C0.21484375,10.9257812 0,10.390625 0,9.75 L0,2.25 C0,1.609375 0.21484375,1.07421875 0.64453125,0.64453125 C1.07421875,0.21484375 1.609375,0 2.25,0 L9.890625,0 C10.296875,0 10.5,0.203125 10.5,0.609375 L10.5,8.390625 Z M6.6796875,1.9453125 C6.3828125,1.6484375 6.03125,1.5 5.625,1.5 C5.21875,1.5 4.8671875,1.6484375 4.5703125,1.9453125 C4.2734375,2.2421875 4.125,2.59375 4.125,3 C4.125,3.40625 4.2734375,3.7578125 4.5703125,4.0546875 C4.8671875,4.3515625 5.21875,4.5 5.625,4.5 C6.03125,4.5 6.3828125,4.3515625 6.6796875,4.0546875 C6.9765625,3.7578125 7.125,3.40625 7.125,3 C7.125,2.59375 6.9765625,2.2421875 6.6796875,1.9453125 Z M3,6.609375 L3,7.0546875 C3,7.1328125 3.0234375,7.20703125 3.0703125,7.27734375 C3.1171875,7.34765625 3.1796875,7.40234375 3.2578125,7.44140625 C3.3359375,7.48046875 3.421875,7.5 3.515625,7.5 L7.734375,7.5 C7.875,7.5 7.99609375,7.45703125 8.09765625,7.37109375 C8.19921875,7.28515625 8.25,7.1796875 8.25,7.0546875 L8.25,6.609375 C8.25,6.234375 8.09765625,5.9140625 7.79296875,5.6484375 C7.48828125,5.3828125 7.1171875,5.25 6.6796875,5.25 L6.5625,5.25 C6.265625,5.375 5.953125,5.4375 5.625,5.4375 C5.296875,5.4375 4.984375,5.375 4.6875,5.25 L4.5703125,5.25 C4.1328125,5.25 3.76171875,5.3828125 3.45703125,5.6484375 C3.15234375,5.9140625 3,6.234375 3,6.609375 Z M8.9296875,10.5 L8.9296875,9 L2.25,9 C2.046875,9 1.87109375,9.0703125 1.72265625,9.2109375 C1.57421875,9.3515625 1.5,9.53125 1.5,9.75 C1.5,9.96875 1.5703125,10.1484375 1.7109375,10.2890625 C1.8515625,10.4296875 2.03125,10.5 2.25,10.5 L8.9296875,10.5 Z" id="Shape"></path>
            </g>
        </g>
    </g>
</svg>