<?xml version="1.0" encoding="UTF-8"?>
<svg width="10.5px" height="12px" viewBox="0 0 10.5 12" version="1.1" xmlns="http://www.w3.org/2000/svg" xmlns:xlink="http://www.w3.org/1999/xlink">
    <title>book_solid</title>
    <g id="Page-1" stroke="none" stroke-width="1" fill="none" fill-rule="evenodd">
        <g id="iconografia_sistema-copy" transform="translate(-326.000000, -1163.500000)" fill="#000000" fill-rule="nonzero">
            <g id="book_solid" transform="translate(326.000000, 1163.500000)">
                <path d="M10.5,8.4375 C10.5,8.625 10.4296875,8.7734375 10.2890625,8.8828125 C10.2421875,9.0546875 10.21875,9.34375 10.21875,9.75 C10.21875,10.15625 10.2421875,10.4453125 10.2890625,10.6171875 C10.4296875,10.7421875 10.5,10.890625 10.5,11.0625 L10.5,11.4375 C10.5,11.59375 10.4453125,11.7265625 10.3359375,11.8359375 C10.2265625,11.9453125 10.09375,12 9.9375,12 L2.25,12 C1.625,12 1.09375,11.78125 0.65625,11.34375 C0.21875,10.90625 0,10.375 0,9.75 L0,2.25 C0,1.625 0.21875,1.09375 0.65625,0.65625 C1.09375,0.21875 1.625,0 2.25,0 L9.9375,0 C10.09375,0 10.2265625,0.0546875 10.3359375,0.1640625 C10.4453125,0.2734375 10.5,0.40625 10.5,0.5625 L10.5,8.4375 Z M3,3.140625 L3,3.609375 C3,3.703125 3.046875,3.75 3.140625,3.75 L8.109375,3.75 C8.203125,3.75 8.25,3.703125 8.25,3.609375 L8.25,3.140625 C8.25,3.046875 8.203125,3 8.109375,3 L3.140625,3 C3.046875,3 3,3.046875 3,3.140625 Z M3,4.640625 L3,5.109375 C3,5.203125 3.046875,5.25 3.140625,5.25 L8.109375,5.25 C8.203125,5.25 8.25,5.203125 8.25,5.109375 L8.25,4.640625 C8.25,4.546875 8.203125,4.5 8.109375,4.5 L3.140625,4.5 C3.046875,4.5 3,4.546875 3,4.640625 Z M8.9296875,10.5 C8.8828125,10 8.8828125,9.5 8.9296875,9 L2.25,9 C2.046875,9 1.87109375,9.07421875 1.72265625,9.22265625 C1.57421875,9.37109375 1.5,9.546875 1.5,9.75 C1.5,9.953125 1.57421875,10.1289062 1.72265625,10.2773438 C1.87109375,10.4257812 2.046875,10.5 2.25,10.5 L8.9296875,10.5 Z" id="Shape"></path>
            </g>
        </g>
    </g>
</svg>