<?xml version="1.0" encoding="UTF-8"?>
<svg width="12px" height="12px" viewBox="0 0 12 12" version="1.1" xmlns="http://www.w3.org/2000/svg" xmlns:xlink="http://www.w3.org/1999/xlink">
    <title>book-reader</title>
    <g id="Page-1" stroke="none" stroke-width="1" fill="none" fill-rule="evenodd">
        <g id="iconografia_sistema-copy" transform="translate(-325.000000, -1055.500000)" fill="#000000" fill-rule="nonzero">
            <g id="book-reader" transform="translate(325.000000, 1055.500000)">
                <path d="M10.78125,4.5 C11.0625,4.5 11.3359375,4.6015625 11.6015625,4.8046875 C11.8671875,5.0078125 12,5.296875 12,5.671875 L12,9.84375 C12,10.15625 11.890625,10.4257812 11.671875,10.6523438 C11.453125,10.8789062 11.1875,11 10.875,11.015625 C9.078125,11.109375 7.6953125,11.40625 6.7265625,11.90625 C6.6171875,11.953125 6.5,11.984375 6.375,12 L6.328125,12 L6.3046875,12 L5.6953125,12 L5.671875,12 L5.625,12 C5.5,11.984375 5.3828125,11.953125 5.2734375,11.90625 C4.3046875,11.40625 2.921875,11.109375 1.125,11.015625 C0.8125,11 0.546875,10.8789062 0.328125,10.6523438 C0.109375,10.4257812 0,10.15625 0,9.84375 L0,5.671875 C0,5.296875 0.1328125,5.0078125 0.3984375,4.8046875 C0.6640625,4.6015625 0.9375,4.5 1.21875,4.5 C1.234375,4.5 1.25,4.5 1.265625,4.5 C3.3125,4.625 4.890625,5 6,5.625 C7.109375,5 8.6875,4.625 10.734375,4.5 C10.75,4.5 10.765625,4.5 10.78125,4.5 Z M5.625,11.2265625 L5.625,6.2578125 C4.609375,5.6953125 3.140625,5.359375 1.21875,5.25 C1.09375,5.25 0.984375,5.2890625 0.890625,5.3671875 C0.796875,5.4453125 0.75,5.546875 0.75,5.671875 L0.75,9.84375 C0.75,9.96875 0.7890625,10.0703125 0.8671875,10.1484375 C0.9453125,10.2265625 1.046875,10.265625 1.171875,10.265625 C3.0625,10.375 4.546875,10.6953125 5.625,11.2265625 Z M11.25,9.84375 L11.25,5.671875 C11.25,5.59375 11.234375,5.52734375 11.203125,5.47265625 C11.171875,5.41796875 11.1328125,5.375 11.0859375,5.34375 C11.0390625,5.3125 10.9921875,5.2890625 10.9453125,5.2734375 C10.8984375,5.2578125 10.8632812,5.25 10.8398438,5.25 C10.8164062,5.25 10.796875,5.25 10.78125,5.25 C8.859375,5.359375 7.390625,5.6953125 6.375,6.2578125 L6.375,11.2265625 C7.453125,10.6953125 8.9375,10.375 10.828125,10.265625 C10.953125,10.265625 11.0546875,10.2265625 11.1328125,10.1484375 C11.2109375,10.0703125 11.25,9.96875 11.25,9.84375 Z M6,4.5 C5.375,4.5 4.84375,4.28125 4.40625,3.84375 C3.96875,3.40625 3.75,2.875 3.75,2.25 C3.75,1.625 3.96875,1.09375 4.40625,0.65625 C4.84375,0.21875 5.375,0 6,0 C6.625,0 7.15625,0.21875 7.59375,0.65625 C8.03125,1.09375 8.25,1.625 8.25,2.25 C8.25,2.65625 8.1484375,3.03125 7.9453125,3.375 C7.7421875,3.71875 7.46875,3.9921875 7.125,4.1953125 C6.78125,4.3984375 6.40625,4.5 6,4.5 Z M7.0546875,1.1953125 C6.7578125,0.8984375 6.40625,0.75 6,0.75 C5.59375,0.75 5.2421875,0.8984375 4.9453125,1.1953125 C4.6484375,1.4921875 4.5,1.84375 4.5,2.25 C4.5,2.65625 4.6484375,3.0078125 4.9453125,3.3046875 C5.2421875,3.6015625 5.59375,3.75 6,3.75 C6.40625,3.75 6.7578125,3.6015625 7.0546875,3.3046875 C7.3515625,3.0078125 7.5,2.65625 7.5,2.25 C7.5,1.84375 7.3515625,1.4921875 7.0546875,1.1953125 Z" id="Shape"></path>
            </g>
        </g>
    </g>
</svg>