<?xml version="1.0" encoding="UTF-8"?>
<svg width="10.5px" height="12px" viewBox="0 0 10.5 12" version="1.1" xmlns="http://www.w3.org/2000/svg" xmlns:xlink="http://www.w3.org/1999/xlink">
    <title>book-user</title>
    <g id="Page-1" stroke="none" stroke-width="1" fill="none" fill-rule="evenodd">
        <g id="iconografia_sistema-copy" transform="translate(-33.000000, -746.500000)" fill="#000000" fill-rule="nonzero">
            <g id="book-user" transform="translate(33.000000, 746.500000)">
                <path d="M6.9375,4.7109375 C6.578125,5.0703125 6.140625,5.25 5.625,5.25 C5.109375,5.25 4.66796875,5.06640625 4.30078125,4.69921875 C3.93359375,4.33203125 3.75,3.890625 3.75,3.375 C3.75,2.859375 3.93359375,2.41796875 4.30078125,2.05078125 C4.66796875,1.68359375 5.109375,1.5 5.625,1.5 C6.140625,1.5 6.58203125,1.68359375 6.94921875,2.05078125 C7.31640625,2.41796875 7.5,2.859375 7.5,3.375 C7.5,3.890625 7.3125,4.3359375 6.9375,4.7109375 Z M6.421875,2.578125 C6.203125,2.359375 5.9375,2.25 5.625,2.25 C5.3125,2.25 5.046875,2.359375 4.828125,2.578125 C4.609375,2.796875 4.5,3.0625 4.5,3.375 C4.5,3.6875 4.609375,3.953125 4.828125,4.171875 C5.046875,4.390625 5.3125,4.5 5.625,4.5 C5.9375,4.5 6.203125,4.390625 6.421875,4.171875 C6.640625,3.953125 6.75,3.6875 6.75,3.375 C6.75,3.0625 6.640625,2.796875 6.421875,2.578125 Z M10.5,9.1875 C10.5,9.4375 10.3828125,9.609375 10.1484375,9.703125 C10.0390625,10.203125 10.0390625,10.71875 10.1484375,11.25 L10.21875,11.25 C10.40625,11.25 10.5,11.34375 10.5,11.53125 L10.5,11.71875 C10.5,11.90625 10.40625,12 10.21875,12 L1.5,12 C1.09375,12 0.7421875,11.8515625 0.4453125,11.5546875 C0.1484375,11.2578125 0,10.90625 0,10.5 L0,1.875 C0,1.359375 0.18359375,0.91796875 0.55078125,0.55078125 C0.91796875,0.18359375 1.359375,0 1.875,0 L9.9375,0 C10.09375,0 10.2265625,0.0546875 10.3359375,0.1640625 C10.4453125,0.2734375 10.5,0.40625 10.5,0.5625 L10.5,9.1875 Z M9.46875,11.25 C9.4375,11 9.421875,10.75 9.421875,10.5 C9.421875,10.25 9.4375,10 9.46875,9.75 L1.5,9.75 C1.296875,9.75 1.12109375,9.82421875 0.97265625,9.97265625 C0.82421875,10.1210938 0.75,10.296875 0.75,10.5 C0.75,10.703125 0.82421875,10.8789062 0.97265625,11.0273438 C1.12109375,11.1757812 1.296875,11.25 1.5,11.25 L9.46875,11.25 Z M9.75,9 L9.75,0.75 L1.875,0.75 C1.5625,0.75 1.296875,0.859375 1.078125,1.078125 C0.859375,1.296875 0.75,1.5625 0.75,1.875 L0.75,9.2109375 C0.984375,9.0703125 1.234375,9 1.5,9 L9.75,9 Z M3.515625,8.25 C3.28125,8.25 3.07421875,8.171875 2.89453125,8.015625 C2.71484375,7.859375 2.625,7.640625 2.625,7.359375 C2.625,7.046875 2.7109375,6.7578125 2.8828125,6.4921875 C3.0546875,6.2265625 3.29296875,6.015625 3.59765625,5.859375 C3.90234375,5.703125 4.2265625,5.625 4.5703125,5.625 C4.7109375,5.640625 4.875,5.67578125 5.0625,5.73046875 C5.25,5.78515625 5.4375,5.8125 5.625,5.8125 C5.8125,5.8125 6,5.78515625 6.1875,5.73046875 C6.375,5.67578125 6.5390625,5.640625 6.6796875,5.625 C7.2109375,5.625 7.66796875,5.79296875 8.05078125,6.12890625 C8.43359375,6.46484375 8.625,6.875 8.625,7.359375 C8.625,7.640625 8.53515625,7.859375 8.35546875,8.015625 C8.17578125,8.171875 7.96875,8.25 7.734375,8.25 L3.515625,8.25 Z M4.5703125,6.375 C4.2421875,6.375 3.9609375,6.46875 3.7265625,6.65625 C3.4921875,6.84375 3.375,7.078125 3.375,7.359375 C3.375,7.453125 3.421875,7.5 3.515625,7.5 L7.734375,7.5 C7.828125,7.5 7.875,7.453125 7.875,7.359375 C7.875,7.078125 7.7578125,6.84375 7.5234375,6.65625 C7.2890625,6.46875 7.0078125,6.375 6.6796875,6.375 C6.6484375,6.375 6.58984375,6.390625 6.50390625,6.421875 C6.41796875,6.453125 6.296875,6.484375 6.140625,6.515625 C5.984375,6.546875 5.8125,6.5625 5.625,6.5625 C5.4375,6.5625 5.265625,6.546875 5.109375,6.515625 C4.953125,6.484375 4.83203125,6.453125 4.74609375,6.421875 C4.66015625,6.390625 4.6015625,6.375 4.5703125,6.375 Z" id="Shape"></path>
            </g>
        </g>
    </g>
</svg>