<?xml version="1.0" encoding="UTF-8"?>
<svg width="15px" height="12px" viewBox="0 0 15 12" version="1.1" xmlns="http://www.w3.org/2000/svg" xmlns:xlink="http://www.w3.org/1999/xlink">
    <title>chart-network</title>
    <g id="Page-1" stroke="none" stroke-width="1" fill="none" fill-rule="evenodd">
        <g id="iconografia_sistema-copy" transform="translate(-31.000000, -491.500000)" fill="#000000" fill-rule="nonzero">
            <g id="chart-network" transform="translate(31.000000, 491.500000)">
                <path d="M12.046875,4.7578125 L10.921875,5.6015625 L10.453125,4.9921875 L11.578125,4.1484375 L12.046875,4.7578125 Z M13.5,4.5 C13.09375,4.5 12.7421875,4.3515625 12.4453125,4.0546875 C12.1484375,3.7578125 12,3.40625 12,3 C12,2.6875 12.0859375,2.40625 12.2578125,2.15625 C12.3671875,2 12.5,1.8671875 12.65625,1.7578125 C12.90625,1.5859375 13.1875,1.5 13.5,1.5 C13.8125,1.5 14.09375,1.5859375 14.34375,1.7578125 C14.421875,1.8046875 14.4960938,1.86328125 14.5664062,1.93359375 C14.6367188,2.00390625 14.6953125,2.078125 14.7421875,2.15625 C14.9140625,2.40625 15,2.6875 15,3 C15,3.3125 14.9140625,3.59375 14.7421875,3.84375 C14.6328125,4 14.5,4.1328125 14.34375,4.2421875 C14.09375,4.4140625 13.8125,4.5 13.5,4.5 Z M14.015625,2.484375 C13.875,2.328125 13.703125,2.25 13.5,2.25 C13.296875,2.25 13.1210938,2.32421875 12.9726562,2.47265625 C12.8242188,2.62109375 12.75,2.796875 12.75,3 C12.75,3.203125 12.8242188,3.37890625 12.9726562,3.52734375 C13.1210938,3.67578125 13.296875,3.75 13.5,3.75 C13.703125,3.75 13.8789062,3.67578125 14.0273438,3.52734375 C14.1757812,3.37890625 14.25,3.203125 14.25,3 C14.25,2.796875 14.171875,2.625 14.015625,2.484375 Z M2.34375,5.8828125 C2.5,5.9921875 2.6328125,6.125 2.7421875,6.28125 C2.9140625,6.53125 3,6.8125 3,7.125 C3,7.53125 2.8515625,7.8828125 2.5546875,8.1796875 C2.2578125,8.4765625 1.90625,8.625 1.5,8.625 C1.09375,8.625 0.7421875,8.4765625 0.4453125,8.1796875 C0.1484375,7.8828125 0,7.53125 0,7.125 C0,6.8125 0.0859375,6.53125 0.2578125,6.28125 C0.3671875,6.125 0.5,5.9921875 0.65625,5.8828125 C0.90625,5.7109375 1.1875,5.625 1.5,5.625 C1.8125,5.625 2.09375,5.7109375 2.34375,5.8828125 Z M0.9609375,7.6640625 C1.1171875,7.8046875 1.296875,7.875 1.5,7.875 C1.703125,7.875 1.87890625,7.80078125 2.02734375,7.65234375 C2.17578125,7.50390625 2.25,7.328125 2.25,7.125 C2.25,6.921875 2.17578125,6.74609375 2.02734375,6.59765625 C1.87890625,6.44921875 1.703125,6.375 1.5,6.375 C1.296875,6.375 1.12109375,6.44921875 0.97265625,6.59765625 C0.82421875,6.74609375 0.75,6.921875 0.75,7.125 C0.75,7.328125 0.8203125,7.5078125 0.9609375,7.6640625 Z M3.5625,7.5 L3.5625,6.75 L4.6875,6.75 L4.6875,7.5 L3.5625,7.5 Z M14.5546875,9.4453125 C14.6328125,9.5078125 14.6953125,9.578125 14.7421875,9.65625 C14.9140625,9.90625 15,10.1875 15,10.5 C15,10.8125 14.9140625,11.09375 14.7421875,11.34375 C14.6328125,11.5 14.5,11.6328125 14.34375,11.7421875 C14.09375,11.9140625 13.8125,12 13.5,12 C13.09375,12 12.7421875,11.8515625 12.4453125,11.5546875 C12.1484375,11.2578125 12,10.90625 12,10.5 C12,10.359375 12.0234375,10.21875 12.0703125,10.078125 L9.890625,8.765625 C9.359375,9.421875 8.6875,9.75 7.875,9.75 C7.15625,9.75 6.5390625,9.4921875 6.0234375,8.9765625 C5.5078125,8.4609375 5.25,7.84375 5.25,7.125 C5.25,6.671875 5.35546875,6.25390625 5.56640625,5.87109375 C5.77734375,5.48828125 6.0703125,5.171875 6.4453125,4.921875 L5.53125,2.9765625 C5.421875,2.9921875 5.328125,3 5.25,3 C4.84375,3 4.4921875,2.8515625 4.1953125,2.5546875 C3.8984375,2.2578125 3.75,1.90625 3.75,1.5 C3.75,1.1875 3.8359375,0.90625 4.0078125,0.65625 C4.1171875,0.5 4.25,0.3671875 4.40625,0.2578125 C4.65625,0.0859375 4.9375,0 5.25,0 C5.5625,0 5.84375,0.0859375 6.09375,0.2578125 C6.25,0.3671875 6.3828125,0.5 6.4921875,0.65625 C6.6640625,0.90625 6.75,1.1875 6.75,1.5 C6.75,1.96875 6.5625,2.3515625 6.1875,2.6484375 L7.125,4.6171875 C7.40625,4.5390625 7.65625,4.5 7.875,4.5 C8.59375,4.5 9.2109375,4.7578125 9.7265625,5.2734375 C10.2421875,5.7890625 10.5,6.40625 10.5,7.125 C10.5,7.484375 10.4296875,7.8203125 10.2890625,8.1328125 L12.4453125,9.421875 C12.5078125,9.359375 12.578125,9.3046875 12.65625,9.2578125 C12.90625,9.0859375 13.1875,9 13.5,9 C13.8125,9 14.09375,9.0859375 14.34375,9.2578125 C14.421875,9.3046875 14.4921875,9.3671875 14.5546875,9.4453125 Z M4.7109375,2.0390625 C4.8671875,2.1796875 5.046875,2.25 5.25,2.25 C5.453125,2.25 5.62890625,2.17578125 5.77734375,2.02734375 C5.92578125,1.87890625 6,1.703125 6,1.5 C6,1.296875 5.92578125,1.12109375 5.77734375,0.97265625 C5.62890625,0.82421875 5.453125,0.75 5.25,0.75 C5.046875,0.75 4.87109375,0.82421875 4.72265625,0.97265625 C4.57421875,1.12109375 4.5,1.296875 4.5,1.5 C4.5,1.703125 4.5703125,1.8828125 4.7109375,2.0390625 Z M6.5390625,8.4609375 C6.9140625,8.8203125 7.359375,9 7.875,9 C8.390625,9 8.83203125,8.81640625 9.19921875,8.44921875 C9.56640625,8.08203125 9.75,7.640625 9.75,7.125 C9.75,6.609375 9.56640625,6.16796875 9.19921875,5.80078125 C8.83203125,5.43359375 8.390625,5.25 7.875,5.25 C7.359375,5.25 6.91796875,5.43359375 6.55078125,5.80078125 C6.18359375,6.16796875 6,6.609375 6,7.125 C6,7.640625 6.1796875,8.0859375 6.5390625,8.4609375 Z M12.9609375,11.015625 C13.1171875,11.171875 13.296875,11.25 13.5,11.25 C13.703125,11.25 13.8789062,11.1757812 14.0273438,11.0273438 C14.1757812,10.8789062 14.25,10.703125 14.25,10.5 C14.25,10.296875 14.1757812,10.1210938 14.0273438,9.97265625 C13.8789062,9.82421875 13.703125,9.75 13.5,9.75 C13.296875,9.75 13.1210938,9.82421875 12.9726562,9.97265625 C12.8242188,10.1210938 12.75,10.296875 12.75,10.5 C12.75,10.703125 12.8203125,10.875 12.9609375,11.015625 Z" id="Shape"></path>
            </g>
        </g>
    </g>
</svg>