<?xml version="1.0" encoding="UTF-8"?>
<svg width="15px" height="12px" viewBox="0 0 15 12" version="1.1" xmlns="http://www.w3.org/2000/svg" xmlns:xlink="http://www.w3.org/1999/xlink">
    <title>chart-network_solid</title>
    <g id="Page-1" stroke="none" stroke-width="1" fill="none" fill-rule="evenodd">
        <g id="iconografia_sistema-copy" transform="translate(-31.000000, -563.500000)" fill="#000000" fill-rule="nonzero">
            <g id="chart-network_solid" transform="translate(31.000000, 563.500000)">
                <path d="M14.5546875,4.0546875 C14.2578125,4.3515625 13.90625,4.5 13.5,4.5 C13.09375,4.5 12.7421875,4.3515625 12.4453125,4.0546875 C12.1484375,3.7578125 12,3.40625 12,3 C12,2.59375 12.1484375,2.2421875 12.4453125,1.9453125 C12.7421875,1.6484375 13.09375,1.5 13.5,1.5 C13.90625,1.5 14.2578125,1.6484375 14.5546875,1.9453125 C14.8515625,2.2421875 15,2.59375 15,3 C15,3.40625 14.8515625,3.7578125 14.5546875,4.0546875 Z M0.4453125,6.0703125 C0.7421875,5.7734375 1.09375,5.625 1.5,5.625 C1.90625,5.625 2.2578125,5.7734375 2.5546875,6.0703125 C2.8515625,6.3671875 3,6.71875 3,7.125 C3,7.53125 2.8515625,7.8828125 2.5546875,8.1796875 C2.2578125,8.4765625 1.90625,8.625 1.5,8.625 C1.09375,8.625 0.7421875,8.4765625 0.4453125,8.1796875 C0.1484375,7.8828125 0,7.53125 0,7.125 C0,6.71875 0.1484375,6.3671875 0.4453125,6.0703125 Z M12.046875,4.7578125 L10.921875,5.6015625 L10.453125,4.9921875 L11.578125,4.1484375 L12.046875,4.7578125 Z M13.5,9 C13.90625,9 14.2578125,9.1484375 14.5546875,9.4453125 C14.8515625,9.7421875 15,10.09375 15,10.5 C15,10.90625 14.8515625,11.2578125 14.5546875,11.5546875 C14.2578125,11.8515625 13.90625,12 13.5,12 C13.09375,12 12.7421875,11.8515625 12.4453125,11.5546875 C12.1484375,11.2578125 12,10.90625 12,10.5 C12,10.453125 12.0078125,10.375 12.0234375,10.265625 L9.7734375,8.9296875 C9.2578125,9.4765625 8.625,9.75 7.875,9.75 C7.15625,9.75 6.5390625,9.4921875 6.0234375,8.9765625 C5.5078125,8.4609375 5.25,7.84375 5.25,7.125 C5.25,6.265625 5.59375,5.578125 6.28125,5.0625 L5.3203125,3 C5.3203125,3 5.3125,3 5.296875,3 C5.28125,3 5.265625,3 5.25,3 C4.84375,3 4.4921875,2.8515625 4.1953125,2.5546875 C3.8984375,2.2578125 3.75,1.90625 3.75,1.5 C3.75,1.09375 3.8984375,0.7421875 4.1953125,0.4453125 C4.4921875,0.1484375 4.84375,0 5.25,0 C5.65625,0 6.0078125,0.1484375 6.3046875,0.4453125 C6.6015625,0.7421875 6.75,1.09375 6.75,1.5 C6.75,1.890625 6.6171875,2.2265625 6.3515625,2.5078125 L7.3125,4.5703125 C7.5,4.5234375 7.6875,4.5 7.875,4.5 C8.59375,4.5 9.2109375,4.75390625 9.7265625,5.26171875 C10.2421875,5.76953125 10.5,6.390625 10.5,7.125 C10.5,7.390625 10.453125,7.6640625 10.359375,7.9453125 L12.609375,9.3046875 C12.875,9.1015625 13.171875,9 13.5,9 Z M7.078125,7.921875 C7.296875,8.140625 7.5625,8.25 7.875,8.25 C8.1875,8.25 8.453125,8.140625 8.671875,7.921875 C8.890625,7.703125 9,7.4375 9,7.125 C9,6.8125 8.890625,6.546875 8.671875,6.328125 C8.453125,6.109375 8.1875,6 7.875,6 C7.5625,6 7.296875,6.109375 7.078125,6.328125 C6.859375,6.546875 6.75,6.8125 6.75,7.125 C6.75,7.4375 6.859375,7.703125 7.078125,7.921875 Z M3.5625,7.5 L3.5625,6.75 L4.6875,6.75 L4.6875,7.5 L3.5625,7.5 Z" id="Shape"></path>
            </g>
        </g>
    </g>
</svg>