<?xml version="1.0" encoding="UTF-8"?>
<svg width="11.625px" height="11.625px" viewBox="0 0 11.625 11.625" version="1.1" xmlns="http://www.w3.org/2000/svg" xmlns:xlink="http://www.w3.org/1999/xlink">
    <title>dot-circle_solid</title>
    <g id="Page-1" stroke="none" stroke-width="1" fill="none" fill-rule="evenodd">
        <g id="iconografia_sistema-copy" transform="translate(-32.187500, -1145.687500)" fill="#000000" fill-rule="nonzero">
            <g id="dot-circle_solid" transform="translate(32.187500, 1145.687500)">
                <path d="M1.6875,1.7109375 C2.828125,0.5703125 4.203125,0 5.8125,0 C7.421875,0 8.79296875,0.56640625 9.92578125,1.69921875 C11.0585938,2.83203125 11.625,4.203125 11.625,5.8125 C11.625,7.421875 11.0585938,8.79296875 9.92578125,9.92578125 C8.79296875,11.0585938 7.421875,11.625 5.8125,11.625 C4.203125,11.625 2.83203125,11.0585938 1.69921875,9.92578125 C0.56640625,8.79296875 0,7.421875 0,5.8125 C0,4.203125 0.5625,2.8359375 1.6875,1.7109375 Z M7.125,7.1484375 C7.5,6.7734375 7.6875,6.328125 7.6875,5.8125 C7.6875,5.296875 7.50390625,4.85546875 7.13671875,4.48828125 C6.76953125,4.12109375 6.328125,3.9375 5.8125,3.9375 C5.296875,3.9375 4.85546875,4.12109375 4.48828125,4.48828125 C4.12109375,4.85546875 3.9375,5.296875 3.9375,5.8125 C3.9375,6.328125 4.12109375,6.76953125 4.48828125,7.13671875 C4.85546875,7.50390625 5.296875,7.6875 5.8125,7.6875 C6.328125,7.6875 6.765625,7.5078125 7.125,7.1484375 Z" id="Shape"></path>
            </g>
        </g>
    </g>
</svg>