<?xml version="1.0" encoding="UTF-8"?>
<svg width="12px" height="12px" viewBox="0 0 12 12" version="1.1" xmlns="http://www.w3.org/2000/svg" xmlns:xlink="http://www.w3.org/1999/xlink">
    <title>download_solid</title>
    <g id="Page-1" stroke="none" stroke-width="1" fill="none" fill-rule="evenodd">
        <g id="iconografia_sistema-copy" transform="translate(-368.000000, -679.500000)" fill="#000000" fill-rule="nonzero">
            <g id="download_solid" transform="translate(368.000000, 679.500000)">
                <path d="M5.0625,0 L6.9375,0 C7.09375,0 7.2265625,0.0546875 7.3359375,0.1640625 C7.4453125,0.2734375 7.5,0.40625 7.5,0.5625 L7.5,4.5 L9.5625,4.5 C9.765625,4.5 9.90625,4.59765625 9.984375,4.79296875 C10.0625,4.98828125 10.03125,5.15625 9.890625,5.296875 L6.328125,8.859375 C6.234375,8.953125 6.125,9 6,9 C5.875,9 5.765625,8.953125 5.671875,8.859375 L2.109375,5.296875 C1.96875,5.15625 1.9375,4.98828125 2.015625,4.79296875 C2.09375,4.59765625 2.234375,4.5 2.4375,4.5 L4.5,4.5 L4.5,0.5625 C4.5,0.40625 4.5546875,0.2734375 4.6640625,0.1640625 C4.7734375,0.0546875 4.90625,0 5.0625,0 Z M12,8.8125 L12,11.4375 C12,11.59375 11.9453125,11.7265625 11.8359375,11.8359375 C11.7265625,11.9453125 11.59375,12 11.4375,12 L0.5625,12 C0.40625,12 0.2734375,11.9453125 0.1640625,11.8359375 C0.0546875,11.7265625 0,11.59375 0,11.4375 L0,8.8125 C0,8.65625 0.0546875,8.5234375 0.1640625,8.4140625 C0.2734375,8.3046875 0.40625,8.25 0.5625,8.25 L4.0078125,8.25 L5.15625,9.3984375 C5.390625,9.6328125 5.671875,9.75 6,9.75 C6.328125,9.75 6.609375,9.6328125 6.84375,9.3984375 L7.9921875,8.25 L11.4375,8.25 C11.59375,8.25 11.7265625,8.3046875 11.8359375,8.4140625 C11.9453125,8.5234375 12,8.65625 12,8.8125 Z M8.953125,11.203125 C9.046875,11.109375 9.09375,11 9.09375,10.875 C9.09375,10.75 9.046875,10.640625 8.953125,10.546875 C8.859375,10.453125 8.75,10.40625 8.625,10.40625 C8.5,10.40625 8.390625,10.453125 8.296875,10.546875 C8.203125,10.640625 8.15625,10.75 8.15625,10.875 C8.15625,11 8.203125,11.109375 8.296875,11.203125 C8.390625,11.296875 8.5,11.34375 8.625,11.34375 C8.75,11.34375 8.859375,11.296875 8.953125,11.203125 Z M10.453125,11.203125 C10.546875,11.109375 10.59375,11 10.59375,10.875 C10.59375,10.75 10.546875,10.640625 10.453125,10.546875 C10.359375,10.453125 10.25,10.40625 10.125,10.40625 C10,10.40625 9.890625,10.453125 9.796875,10.546875 C9.703125,10.640625 9.65625,10.75 9.65625,10.875 C9.65625,11 9.703125,11.109375 9.796875,11.203125 C9.890625,11.296875 10,11.34375 10.125,11.34375 C10.25,11.34375 10.359375,11.296875 10.453125,11.203125 Z" id="Shape"></path>
            </g>
        </g>
    </g>
</svg>