<?xml version="1.0" encoding="UTF-8"?>
<svg width="13.5px" height="12px" viewBox="0 0 13.5 12" version="1.1" xmlns="http://www.w3.org/2000/svg" xmlns:xlink="http://www.w3.org/1999/xlink">
    <title>edit</title>
    <g id="Page-1" stroke="none" stroke-width="1" fill="none" fill-rule="evenodd">
        <g id="iconografia_sistema-copy" transform="translate(-367.000000, -313.500000)" fill="#000000" fill-rule="nonzero">
            <g id="edit" transform="translate(367.000000, 313.500000)">
                <path d="M9.796875,7.40625 L10.265625,6.9375 C10.3125,6.890625 10.3632812,6.87890625 10.4179688,6.90234375 C10.4726562,6.92578125 10.5,6.96875 10.5,7.03125 L10.5,10.875 C10.5,11.1875 10.390625,11.453125 10.171875,11.671875 C9.953125,11.890625 9.6875,12 9.375,12 L1.125,12 C0.8125,12 0.546875,11.890625 0.328125,11.671875 C0.109375,11.453125 0,11.1875 0,10.875 L0,2.625 C0,2.3125 0.109375,2.046875 0.328125,1.828125 C0.546875,1.609375 0.8125,1.5 1.125,1.5 L7.96875,1.5 C8.03125,1.5 8.07421875,1.52734375 8.09765625,1.58203125 C8.12109375,1.63671875 8.109375,1.6875 8.0625,1.734375 L7.59375,2.203125 C7.578125,2.234375 7.546875,2.25 7.5,2.25 L1.125,2.25 C1.015625,2.25 0.92578125,2.28515625 0.85546875,2.35546875 C0.78515625,2.42578125 0.75,2.515625 0.75,2.625 L0.75,10.875 C0.75,10.984375 0.78515625,11.0742188 0.85546875,11.1445312 C0.92578125,11.2148438 1.015625,11.25 1.125,11.25 L9.375,11.25 C9.484375,11.25 9.57421875,11.2148438 9.64453125,11.1445312 C9.71484375,11.0742188 9.75,10.984375 9.75,10.875 L9.75,7.5 C9.75,7.453125 9.765625,7.421875 9.796875,7.40625 Z M13.21875,2.90625 L5.8828125,10.2421875 L3.5390625,10.5 C3.3828125,10.515625 3.25,10.46875 3.140625,10.359375 C3.03125,10.25 2.984375,10.1171875 3,9.9609375 L3.2578125,7.6171875 L10.59375,0.28125 C10.78125,0.09375 11.0117188,0 11.2851562,0 C11.5585938,0 11.7890625,0.09375 11.9765625,0.28125 L13.21875,1.5234375 C13.40625,1.7109375 13.5,1.94140625 13.5,2.21484375 C13.5,2.48828125 13.40625,2.71875 13.21875,2.90625 Z M11.015625,4.0546875 L9.4453125,2.484375 L3.984375,7.96875 L3.796875,9.7265625 L5.5546875,9.515625 L11.015625,4.0546875 Z M12.6796875,2.0625 L11.4375,0.8203125 C11.328125,0.7109375 11.21875,0.7109375 11.109375,0.8203125 L9.984375,1.9453125 L11.5546875,3.515625 L12.6796875,2.390625 C12.7890625,2.28125 12.7890625,2.171875 12.6796875,2.0625 Z" id="Shape"></path>
            </g>
        </g>
    </g>
</svg>