<?xml version="1.0" encoding="UTF-8"?>
<svg width="11.9957386px" height="12px" viewBox="0 0 11.9957386 12" version="1.1" xmlns="http://www.w3.org/2000/svg" xmlns:xlink="http://www.w3.org/1999/xlink">
    <title>file-certificate</title>
    <g id="Page-1" stroke="none" stroke-width="1" fill="none" fill-rule="evenodd">
        <g id="iconografia_sistema-copy" transform="translate(-32.027699, -220.500000)" fill="#000000" fill-rule="nonzero">
            <g id="file-certificate" transform="translate(32.027699, 220.500000)">
                <path d="M11.6676136,2.296875 C11.8863636,2.515625 11.9957386,2.78125 11.9957386,3.09375 L11.9957386,10.875 C11.9957386,11.1875 11.8863636,11.453125 11.6676136,11.671875 C11.4488636,11.890625 11.1832386,12 10.8707386,12 L4.49573864,12 C4.43323864,12 4.37855114,11.984375 4.33167614,11.953125 L2.99573864,11.296875 L1.65980114,11.953125 C1.53480114,12.015625 1.41370739,12.0117188 1.29651989,11.9414062 C1.17933239,11.8710938 1.12073864,11.765625 1.12073864,11.625 L1.12073864,9.1875 C1.10511364,9.1875 1.08558239,9.18359375 1.06214489,9.17578125 C1.03870739,9.16796875 1.02698864,9.1640625 1.02698864,9.1640625 C0.855113636,9.1171875 0.745738636,9.0078125 0.698863636,8.8359375 C0.620738636,8.5390625 0.558238636,8.3515625 0.511363636,8.2734375 C0.464488636,8.1953125 0.339488636,8.046875 0.136363636,7.828125 C0.0113636364,7.703125 -0.0276988636,7.5546875 0.0191761364,7.3828125 C0.0973011364,7.1015625 0.136363636,6.91015625 0.136363636,6.80859375 C0.136363636,6.70703125 0.0973011364,6.515625 0.0191761364,6.234375 C-0.0276988636,6.0625 0.0113636364,5.9140625 0.136363636,5.7890625 C0.339488636,5.5703125 0.464488636,5.421875 0.511363636,5.34375 C0.558238636,5.265625 0.620738636,5.078125 0.698863636,4.78125 C0.745738636,4.609375 0.855113636,4.5 1.02698864,4.453125 C1.23011364,4.40625 1.37073864,4.36328125 1.44886364,4.32421875 C1.52698864,4.28515625 1.59730114,4.2421875 1.65980114,4.1953125 C1.72230114,4.1484375 1.83167614,4.046875 1.98792614,3.890625 C2.08167614,3.796875 2.19105114,3.75 2.31605114,3.75 C2.34730114,3.75 2.38636364,3.7578125 2.43323864,3.7734375 C2.71448864,3.8515625 2.90198864,3.890625 2.99573864,3.890625 L2.99573864,1.125 C2.99573864,0.8125 3.10511364,0.546875 3.32386364,0.328125 C3.54261364,0.109375 3.80823864,0 4.12073864,0 L8.90198864,0 C9.21448864,0 9.48011364,0.109375 9.69886364,0.328125 L11.6676136,2.296875 Z M8.99573864,0.7734375 L8.99573864,3 L11.2457386,3 C11.2144886,2.9375 11.1754261,2.8828125 11.1285511,2.8359375 L9.15980114,0.8671875 C9.11292614,0.8203125 9.05823864,0.7890625 8.99573864,0.7734375 Z M0.769176136,7.4296875 C0.909801136,7.5546875 1.01136364,7.6640625 1.07386364,7.7578125 C1.13636364,7.8515625 1.19105114,7.94921875 1.23792614,8.05078125 C1.28480114,8.15234375 1.33167614,8.296875 1.37855114,8.484375 C1.73792614,8.578125 2.02698864,8.7265625 2.24573864,8.9296875 C2.48011364,8.8203125 2.73011364,8.765625 2.99573864,8.765625 C3.26136364,8.765625 3.51136364,8.8203125 3.74573864,8.9296875 C3.98011364,8.7265625 4.26917614,8.578125 4.61292614,8.484375 C4.69105114,8.21875 4.76526989,8.0234375 4.83558239,7.8984375 C4.90589489,7.7734375 5.03480114,7.6171875 5.22230114,7.4296875 C5.11292614,7.0078125 5.11292614,6.59375 5.22230114,6.1875 C5.03480114,6 4.90589489,5.84375 4.83558239,5.71875 C4.76526989,5.59375 4.69105114,5.3984375 4.61292614,5.1328125 C4.44105114,5.0859375 4.30433239,5.0390625 4.20276989,4.9921875 C4.10120739,4.9453125 4.00355114,4.890625 3.90980114,4.828125 C3.81605114,4.765625 3.70667614,4.671875 3.58167614,4.546875 C3.34730114,4.609375 3.15198864,4.640625 2.99573864,4.640625 C2.83948864,4.640625 2.64417614,4.609375 2.40980114,4.546875 C2.22230114,4.71875 2.06605114,4.84375 1.94105114,4.921875 C1.81605114,5 1.62855114,5.0703125 1.37855114,5.1328125 C1.30042614,5.3984375 1.22620739,5.59375 1.15589489,5.71875 C1.08558239,5.84375 0.956676136,6 0.769176136,6.1875 C0.878551136,6.59375 0.878551136,7.0078125 0.769176136,7.4296875 Z M3.15980114,10.546875 L4.12073864,11.015625 L4.12073864,9.609375 C4.02698864,9.703125 3.91761364,9.75 3.79261364,9.75 C3.71448864,9.75 3.63636364,9.7265625 3.55823864,9.6796875 C3.38636364,9.5703125 3.19886364,9.515625 2.99573864,9.515625 C2.79261364,9.515625 2.60511364,9.5703125 2.43323864,9.6796875 C2.35511364,9.7265625 2.27698864,9.75 2.19886364,9.75 C2.07386364,9.75 1.96448864,9.703125 1.87073864,9.609375 L1.87073864,11.015625 L2.83167614,10.546875 C2.94105114,10.484375 3.05042614,10.484375 3.15980114,10.546875 Z M11.2457386,10.875 L11.2457386,3.75 L8.80823864,3.75 C8.65198864,3.75 8.51917614,3.6953125 8.40980114,3.5859375 C8.30042614,3.4765625 8.24573864,3.34375 8.24573864,3.1875 L8.24573864,0.75 L4.12073864,0.75 C4.05823864,0.75 3.99573864,0.765625 3.93323864,0.796875 C3.87073864,0.828125 3.82386364,0.875 3.79261364,0.9375 C3.76136364,1 3.74573864,1.0625 3.74573864,1.125 L3.74573864,3.7734375 C3.85511364,3.7890625 3.94105114,3.828125 4.00355114,3.890625 C4.20667614,4.09375 4.34730114,4.21875 4.42542614,4.265625 C4.50355114,4.3125 4.68323864,4.375 4.96448864,4.453125 C5.13636364,4.5 5.24573864,4.609375 5.29261364,4.78125 C5.37073864,5.078125 5.43323864,5.265625 5.48011364,5.34375 C5.52698864,5.421875 5.65198864,5.5703125 5.85511364,5.7890625 C5.98011364,5.9140625 6.01917614,6.0625 5.97230114,6.234375 C5.89417614,6.515625 5.85511364,6.70703125 5.85511364,6.80859375 C5.85511364,6.91015625 5.89417614,7.1015625 5.97230114,7.3828125 C6.01917614,7.5546875 5.98011364,7.703125 5.85511364,7.828125 C5.65198864,8.046875 5.52698864,8.1953125 5.48011364,8.2734375 C5.43323864,8.3515625 5.37073864,8.5390625 5.29261364,8.8359375 C5.24573864,9.0078125 5.13636364,9.1171875 4.96448864,9.1640625 C4.90198864,9.1796875 4.87073864,9.1875 4.87073864,9.1875 L4.87073864,11.25 L10.8707386,11.25 C10.9801136,11.25 11.0699574,11.2148438 11.1402699,11.1445312 C11.2105824,11.0742188 11.2457386,10.984375 11.2457386,10.875 Z" id="Shape"></path>
            </g>
        </g>
    </g>
</svg>