<?xml version="1.0" encoding="UTF-8"?>
<svg width="9px" height="12px" viewBox="0 0 9 12" version="1.1" xmlns="http://www.w3.org/2000/svg" xmlns:xlink="http://www.w3.org/1999/xlink">
    <title>file</title>
    <g id="Page-1" stroke="none" stroke-width="1" fill="none" fill-rule="evenodd">
        <g id="iconografia_sistema-copy" transform="translate(-34.000000, -1235.500000)" fill="#000000" fill-rule="nonzero">
            <g id="file" transform="translate(34.000000, 1235.500000)">
                <path d="M8.671875,2.296875 C8.890625,2.515625 9,2.78125 9,3.09375 L9,10.875 C9,11.1875 8.890625,11.453125 8.671875,11.671875 C8.453125,11.890625 8.1875,12 7.875,12 L1.125,12 C0.8125,12 0.546875,11.890625 0.328125,11.671875 C0.109375,11.453125 0,11.1875 0,10.875 L0,1.125 C0,0.8125 0.109375,0.546875 0.328125,0.328125 C0.546875,0.109375 0.8125,0 1.125,0 L5.90625,0 C6.21875,0 6.484375,0.109375 6.703125,0.328125 L8.671875,2.296875 Z M8.1328125,2.8359375 L6.1640625,0.8671875 C6.1171875,0.8203125 6.0625,0.78125 6,0.75 L6,3 L8.25,3 C8.21875,2.9375 8.1796875,2.8828125 8.1328125,2.8359375 Z M7.875,11.25 C7.984375,11.25 8.07421875,11.2148438 8.14453125,11.1445312 C8.21484375,11.0742188 8.25,10.984375 8.25,10.875 L8.25,3.75 L5.8125,3.75 C5.65625,3.75 5.5234375,3.6953125 5.4140625,3.5859375 C5.3046875,3.4765625 5.25,3.34375 5.25,3.1875 L5.25,0.75 L1.125,0.75 C1.015625,0.75 0.92578125,0.78515625 0.85546875,0.85546875 C0.78515625,0.92578125 0.75,1.015625 0.75,1.125 L0.75,10.875 C0.75,10.984375 0.78515625,11.0742188 0.85546875,11.1445312 C0.92578125,11.2148438 1.015625,11.25 1.125,11.25 L7.875,11.25 Z" id="Shape"></path>
            </g>
        </g>
    </g>
</svg>