<?xml version="1.0" encoding="UTF-8"?>
<svg width="9px" height="12px" viewBox="0 0 9 12" version="1.1" xmlns="http://www.w3.org/2000/svg" xmlns:xlink="http://www.w3.org/1999/xlink">
    <title>file-pdf_solid</title>
    <g id="Page-1" stroke="none" stroke-width="1" fill="none" fill-rule="evenodd">
        <g id="iconografia_sistema-copy" transform="translate(-34.000000, -782.500000)" fill="#000000" fill-rule="nonzero">
            <g id="file-pdf_solid" transform="translate(34.000000, 782.500000)">
                <path d="M4.265625,6 C4.234375,5.890625 4.2109375,5.74609375 4.1953125,5.56640625 C4.1796875,5.38671875 4.171875,5.23046875 4.171875,5.09765625 C4.171875,4.96484375 4.1875,4.8984375 4.21875,4.8984375 C4.3125,4.8984375 4.359375,5.0546875 4.359375,5.3671875 C4.359375,5.6796875 4.328125,5.890625 4.265625,6 Z M4.21875,7.1015625 C4.4375,7.5078125 4.7109375,7.828125 5.0390625,8.0625 C4.8515625,8.09375 4.359375,8.265625 3.5625,8.578125 C3.765625,8.203125 3.984375,7.7109375 4.21875,7.1015625 Z M2.015625,10.03125 C2.078125,9.859375 2.3515625,9.546875 2.8359375,9.09375 C2.7421875,9.25 2.6484375,9.38671875 2.5546875,9.50390625 C2.4609375,9.62109375 2.3828125,9.71484375 2.3203125,9.78515625 C2.2578125,9.85546875 2.203125,9.91015625 2.15625,9.94921875 C2.109375,9.98828125 2.07421875,10.0117188 2.05078125,10.0195312 C2.02734375,10.0273438 2.015625,10.03125 2.015625,10.03125 Z M5.8125,3.75 L9,3.75 L9,11.4375 C9,11.59375 8.9453125,11.7265625 8.8359375,11.8359375 C8.7265625,11.9453125 8.59375,12 8.4375,12 L0.5625,12 C0.40625,12 0.2734375,11.9453125 0.1640625,11.8359375 C0.0546875,11.7265625 0,11.59375 0,11.4375 L0,0.5625 C0,0.40625 0.0546875,0.2734375 0.1640625,0.1640625 C0.2734375,0.0546875 0.40625,0 0.5625,0 L5.25,0 L5.25,3.1875 C5.25,3.34375 5.3046875,3.4765625 5.4140625,3.5859375 C5.5234375,3.6953125 5.65625,3.75 5.8125,3.75 Z M5.625,7.78125 C5.171875,7.5 4.8359375,7.078125 4.6171875,6.515625 C4.8046875,5.78125 4.859375,5.28125 4.78125,5.015625 C4.734375,4.796875 4.62890625,4.64453125 4.46484375,4.55859375 C4.30078125,4.47265625 4.1328125,4.4609375 3.9609375,4.5234375 C3.7890625,4.5859375 3.6875,4.6953125 3.65625,4.8515625 C3.5625,5.1953125 3.625,5.796875 3.84375,6.65625 C3.484375,7.5 3.1640625,8.171875 2.8828125,8.671875 C2.4296875,8.890625 2.0546875,9.1484375 1.7578125,9.4453125 C1.4609375,9.7421875 1.40625,10.015625 1.59375,10.265625 C1.71875,10.421875 1.890625,10.5 2.109375,10.5 C2.5,10.5 2.9765625,10.015625 3.5390625,9.046875 C4.5078125,8.734375 5.125,8.5546875 5.390625,8.5078125 C5.953125,8.8046875 6.453125,8.953125 6.890625,8.953125 C7.203125,8.953125 7.3984375,8.8203125 7.4765625,8.5546875 C7.5546875,8.2890625 7.515625,8.0859375 7.359375,7.9453125 C7.109375,7.7109375 6.53125,7.65625 5.625,7.78125 Z M8.8359375,2.4609375 C8.9453125,2.5703125 9,2.703125 9,2.859375 L9,3 L6,3 L6,0 L6.140625,0 C6.296875,0 6.4296875,0.0546875 6.5390625,0.1640625 L8.8359375,2.4609375 Z M7.1015625,8.4375 C7.0078125,8.546875 6.671875,8.4765625 6.09375,8.2265625 C6.765625,8.2109375 7.1015625,8.28125 7.1015625,8.4375 Z" id="Shape"></path>
            </g>
        </g>
    </g>
</svg>