<?xml version="1.0" encoding="UTF-8"?>
<svg width="13.5px" height="12px" viewBox="0 0 13.5 12" version="1.1" xmlns="http://www.w3.org/2000/svg" xmlns:xlink="http://www.w3.org/1999/xlink">
    <title>file-import</title>
    <g id="Page-1" stroke="none" stroke-width="1" fill="none" fill-rule="evenodd">
        <g id="iconografia_sistema-copy" transform="translate(-31.000000, -764.500000)" fill="#000000" fill-rule="nonzero">
            <g id="file-import" transform="translate(31.000000, 764.500000)">
                <path d="M13.2890625,6.65625 C13.4296875,6.78125 13.5,6.9375 13.5,7.125 C13.5,7.3125 13.4296875,7.46875 13.2890625,7.59375 L11.625,9.1875 C11.40625,9.390625 11.1640625,9.4375 10.8984375,9.328125 C10.6328125,9.203125 10.5,9.0078125 10.5,8.7421875 L10.5,7.5 L3.9375,7.5 C3.8125,7.5 3.75,7.4375 3.75,7.3125 L3.75,6.9375 C3.75,6.8125 3.8125,6.75 3.9375,6.75 L8.25,6.75 L8.25,3.75 L5.8125,3.75 C5.65625,3.75 5.5234375,3.6953125 5.4140625,3.5859375 C5.3046875,3.4765625 5.25,3.34375 5.25,3.1875 L5.25,0.75 L1.125,0.75 C1.015625,0.75 0.92578125,0.78515625 0.85546875,0.85546875 C0.78515625,0.92578125 0.75,1.015625 0.75,1.125 L0.75,10.875 C0.75,10.984375 0.78515625,11.0742188 0.85546875,11.1445312 C0.92578125,11.2148438 1.015625,11.25 1.125,11.25 L7.875,11.25 C7.984375,11.25 8.07421875,11.2148438 8.14453125,11.1445312 C8.21484375,11.0742188 8.25,10.984375 8.25,10.875 L8.25,8.25 L9,8.25 L9,10.875 C9,11.1875 8.890625,11.453125 8.671875,11.671875 C8.453125,11.890625 8.1875,12 7.875,12 L1.125,12 C0.8125,12 0.546875,11.890625 0.328125,11.671875 C0.109375,11.453125 0,11.1875 0,10.875 L0,1.125 C0,0.921875 0.05078125,0.734375 0.15234375,0.5625 C0.25390625,0.390625 0.390625,0.25390625 0.5625,0.15234375 C0.734375,0.05078125 0.921875,0 1.125,0 L5.90625,0 C6.21875,0 6.484375,0.109375 6.703125,0.328125 L8.671875,2.296875 C8.890625,2.515625 9,2.78125 9,3.09375 L9,6.75 L10.5,6.75 L10.5,5.5078125 C10.5,5.2421875 10.6328125,5.046875 10.8984375,4.921875 C11.1640625,4.8125 11.40625,4.859375 11.625,5.0625 L13.2890625,6.65625 Z M6,3 L8.25,3 C8.21875,2.9375 8.1796875,2.8828125 8.1328125,2.8359375 L6.1640625,0.8671875 C6.1171875,0.8203125 6.0625,0.7890625 6,0.7734375 L6,3 Z M11.25,8.5078125 L12.703125,7.125 L11.25,5.7421875 L11.25,8.5078125 Z" id="Shape"></path>
            </g>
        </g>
    </g>
</svg>