<?xml version="1.0" encoding="UTF-8"?>
<svg width="9px" height="12px" viewBox="0 0 9 12" version="1.1" xmlns="http://www.w3.org/2000/svg" xmlns:xlink="http://www.w3.org/1999/xlink">
    <title>file-download_solid</title>
    <g id="Page-1" stroke="none" stroke-width="1" fill="none" fill-rule="evenodd">
        <g id="iconografia_sistema-copy" transform="translate(-34.000000, -800.500000)" fill="#000000" fill-rule="nonzero">
            <g id="file-download_solid" transform="translate(34.000000, 800.500000)">
                <path d="M5.25,3.1875 C5.25,3.34375 5.3046875,3.4765625 5.4140625,3.5859375 C5.5234375,3.6953125 5.65625,3.75 5.8125,3.75 L9,3.75 L9,11.4375 C9,11.59375 8.9453125,11.7265625 8.8359375,11.8359375 C8.7265625,11.9453125 8.59375,12 8.4375,12 L0.5625,12 C0.40625,12 0.2734375,11.9453125 0.1640625,11.8359375 C0.0546875,11.7265625 0,11.59375 0,11.4375 L0,0.5625 C0,0.40625 0.0546875,0.2734375 0.1640625,0.1640625 C0.2734375,0.0546875 0.40625,0 0.5625,0 L5.25,0 L5.25,3.1875 Z M7.03125,8.1328125 C7.15625,8.0234375 7.1875,7.890625 7.125,7.734375 C7.0625,7.578125 6.9453125,7.5 6.7734375,7.5 L5.25,7.5 L5.25,5.625 C5.25,5.515625 5.21484375,5.42578125 5.14453125,5.35546875 C5.07421875,5.28515625 4.984375,5.25 4.875,5.25 L4.125,5.25 C4.015625,5.25 3.92578125,5.28515625 3.85546875,5.35546875 C3.78515625,5.42578125 3.75,5.515625 3.75,5.625 L3.75,7.5 L2.2265625,7.5 C2.0546875,7.5 1.9375,7.578125 1.875,7.734375 C1.8125,7.890625 1.84375,8.0234375 1.96875,8.1328125 L4.21875,10.3828125 C4.296875,10.4609375 4.390625,10.5 4.5,10.5 C4.609375,10.5 4.703125,10.4609375 4.78125,10.3828125 L7.03125,8.1328125 Z M8.8359375,2.4609375 C8.9453125,2.5703125 9,2.703125 9,2.859375 L9,3 L6,3 L6,0 L6.140625,0 C6.296875,0 6.4296875,0.0546875 6.5390625,0.1640625 L8.8359375,2.4609375 Z" id="Shape"></path>
            </g>
        </g>
    </g>
</svg>