<?xml version="1.0" encoding="UTF-8"?>
<svg width="13.5234375px" height="12px" viewBox="0 0 13.5234375 12" version="1.1" xmlns="http://www.w3.org/2000/svg" xmlns:xlink="http://www.w3.org/1999/xlink">
    <title>file-import_solid</title>
    <g id="Page-1" stroke="none" stroke-width="1" fill="none" fill-rule="evenodd">
        <g id="iconografia_sistema-copy" transform="translate(-31.000000, -836.500000)" fill="#000000" fill-rule="nonzero">
            <g id="file-import_solid" transform="translate(31.000000, 836.500000)">
                <path d="M9,2.859375 L9,3 L6,3 L6,0 L6.140625,0 C6.296875,0 6.4296875,0.0546875 6.5390625,0.1640625 L8.8359375,2.4609375 C8.9453125,2.5703125 9,2.703125 9,2.859375 Z M13.3828125,7.21875 C13.5703125,7.40625 13.5703125,7.59375 13.3828125,7.78125 L11.1328125,10.03125 C11.0234375,10.15625 10.890625,10.1875 10.734375,10.125 C10.578125,10.0625 10.5,9.9453125 10.5,9.7734375 L10.5,8.25 L9,8.25 L9,6.75 L10.5,6.75 L10.5,5.2265625 C10.5,5.0546875 10.578125,4.9375 10.734375,4.875 C10.890625,4.8125 11.0234375,4.84375 11.1328125,4.96875 L13.3828125,7.21875 Z M4.5,7.875 C4.5,7.984375 4.53515625,8.07421875 4.60546875,8.14453125 C4.67578125,8.21484375 4.765625,8.25 4.875,8.25 L9,8.25 L9,11.4375 C9,11.59375 8.9453125,11.7265625 8.8359375,11.8359375 C8.7265625,11.9453125 8.59375,12 8.4375,12 L0.5625,12 C0.40625,12 0.2734375,11.9453125 0.1640625,11.8359375 C0.0546875,11.7265625 0,11.59375 0,11.4375 L0,0.5625 C0,0.40625 0.0546875,0.2734375 0.1640625,0.1640625 C0.2734375,0.0546875 0.40625,0 0.5625,0 L5.25,0 L5.25,3.1875 C5.25,3.34375 5.3046875,3.4765625 5.4140625,3.5859375 C5.5234375,3.6953125 5.65625,3.75 5.8125,3.75 L9,3.75 L9,6.75 L4.875,6.75 C4.765625,6.75 4.67578125,6.78515625 4.60546875,6.85546875 C4.53515625,6.92578125 4.5,7.015625 4.5,7.125 L4.5,7.875 Z" id="Shape"></path>
            </g>
        </g>
    </g>
</svg>