<?xml version="1.0" encoding="UTF-8"?>
<svg width="12px" height="9px" viewBox="0 0 12 9" version="1.1" xmlns="http://www.w3.org/2000/svg" xmlns:xlink="http://www.w3.org/1999/xlink">
    <title>film</title>
    <g id="Page-1" stroke="none" stroke-width="1" fill="none" fill-rule="evenodd">
        <g id="iconografia_sistema-copy" transform="translate(-325.000000, -1219.000000)" fill="#000000" fill-rule="nonzero">
            <g id="film" transform="translate(325.000000, 1219.000000)">
                <path d="M11.4375,0 C11.59375,0 11.7265625,0.0546875 11.8359375,0.1640625 C11.9453125,0.2734375 12,0.40625 12,0.5625 L12,8.4375 C12,8.59375 11.9453125,8.7265625 11.8359375,8.8359375 C11.7265625,8.9453125 11.59375,9 11.4375,9 L11.25,9 L11.25,8.53125 C11.25,8.34375 11.15625,8.25 10.96875,8.25 L10.03125,8.25 C9.84375,8.25 9.75,8.34375 9.75,8.53125 L9.75,9 L2.25,9 L2.25,8.53125 C2.25,8.34375 2.15625,8.25 1.96875,8.25 L1.03125,8.25 C0.84375,8.25 0.75,8.34375 0.75,8.53125 L0.75,9 L0.5625,9 C0.40625,9 0.2734375,8.9453125 0.1640625,8.8359375 C0.0546875,8.7265625 0,8.59375 0,8.4375 L0,0.5625 C0,0.40625 0.0546875,0.2734375 0.1640625,0.1640625 C0.2734375,0.0546875 0.40625,0 0.5625,0 L0.75,0 L0.75,0.46875 C0.75,0.65625 0.84375,0.75 1.03125,0.75 L1.96875,0.75 C2.15625,0.75 2.25,0.65625 2.25,0.46875 L2.25,0 L9.75,0 L9.75,0.46875 C9.75,0.65625 9.84375,0.75 10.03125,0.75 L10.96875,0.75 C11.15625,0.75 11.25,0.65625 11.25,0.46875 L11.25,0 L11.4375,0 Z M2.25,7.21875 L2.25,6.28125 C2.25,6.09375 2.15625,6 1.96875,6 L1.03125,6 C0.84375,6 0.75,6.09375 0.75,6.28125 L0.75,7.21875 C0.75,7.40625 0.84375,7.5 1.03125,7.5 L1.96875,7.5 C2.15625,7.5 2.25,7.40625 2.25,7.21875 Z M2.25,4.96875 L2.25,4.03125 C2.25,3.84375 2.15625,3.75 1.96875,3.75 L1.03125,3.75 C0.84375,3.75 0.75,3.84375 0.75,4.03125 L0.75,4.96875 C0.75,5.15625 0.84375,5.25 1.03125,5.25 L1.96875,5.25 C2.15625,5.25 2.25,5.15625 2.25,4.96875 Z M2.25,2.71875 L2.25,1.78125 C2.25,1.59375 2.15625,1.5 1.96875,1.5 L1.03125,1.5 C0.84375,1.5 0.75,1.59375 0.75,1.78125 L0.75,2.71875 C0.75,2.90625 0.84375,3 1.03125,3 L1.96875,3 C2.15625,3 2.25,2.90625 2.25,2.71875 Z M9,7.96875 L9,5.15625 C9,4.96875 8.90625,4.875 8.71875,4.875 L3.28125,4.875 C3.09375,4.875 3,4.96875 3,5.15625 L3,7.96875 C3,8.15625 3.09375,8.25 3.28125,8.25 L8.71875,8.25 C8.90625,8.25 9,8.15625 9,7.96875 Z M9,3.84375 L9,1.03125 C9,0.84375 8.90625,0.75 8.71875,0.75 L3.28125,0.75 C3.09375,0.75 3,0.84375 3,1.03125 L3,3.84375 C3,4.03125 3.09375,4.125 3.28125,4.125 L8.71875,4.125 C8.90625,4.125 9,4.03125 9,3.84375 Z M11.25,7.21875 L11.25,6.28125 C11.25,6.09375 11.15625,6 10.96875,6 L10.03125,6 C9.84375,6 9.75,6.09375 9.75,6.28125 L9.75,7.21875 C9.75,7.40625 9.84375,7.5 10.03125,7.5 L10.96875,7.5 C11.15625,7.5 11.25,7.40625 11.25,7.21875 Z M11.25,4.96875 L11.25,4.03125 C11.25,3.84375 11.15625,3.75 10.96875,3.75 L10.03125,3.75 C9.84375,3.75 9.75,3.84375 9.75,4.03125 L9.75,4.96875 C9.75,5.15625 9.84375,5.25 10.03125,5.25 L10.96875,5.25 C11.15625,5.25 11.25,5.15625 11.25,4.96875 Z M11.25,2.71875 L11.25,1.78125 C11.25,1.59375 11.15625,1.5 10.96875,1.5 L10.03125,1.5 C9.84375,1.5 9.75,1.59375 9.75,1.78125 L9.75,2.71875 C9.75,2.90625 9.84375,3 10.03125,3 L10.96875,3 C11.15625,3 11.25,2.90625 11.25,2.71875 Z" id="Shape"></path>
            </g>
        </g>
    </g>
</svg>