<?xml version="1.0" encoding="UTF-8"?>
<svg width="15px" height="12px" viewBox="0 0 15 12" version="1.1" xmlns="http://www.w3.org/2000/svg" xmlns:xlink="http://www.w3.org/1999/xlink">
    <title>folders</title>
    <g id="Page-1" stroke="none" stroke-width="1" fill="none" fill-rule="evenodd">
        <g id="iconografia_sistema-copy" transform="translate(-31.000000, -328.500000)" fill="#000000" fill-rule="nonzero">
            <g id="folders" transform="translate(31.000000, 328.500000)">
                <path d="M13.875,1.5 C14.1875,1.5 14.453125,1.609375 14.671875,1.828125 C14.890625,2.046875 15,2.3125 15,2.625 L15,7.875 C15,8.1875 14.890625,8.453125 14.671875,8.671875 C14.453125,8.890625 14.1875,9 13.875,9 L12,9 L12,10.875 C12,11.1875 11.890625,11.453125 11.671875,11.671875 C11.453125,11.890625 11.1875,12 10.875,12 L1.125,12 C0.8125,12 0.546875,11.890625 0.328125,11.671875 C0.109375,11.453125 0,11.1875 0,10.875 L0,4.125 C0,3.8125 0.109375,3.546875 0.328125,3.328125 C0.546875,3.109375 0.8125,3 1.125,3 L3,3 L3,1.125 C3,0.8125 3.109375,0.546875 3.328125,0.328125 C3.546875,0.109375 3.8125,0 4.125,0 L7.5703125,0 C7.7734375,0 7.9453125,0.0703125 8.0859375,0.2109375 L9.375,1.5 L13.875,1.5 Z M11.25,10.875 L11.25,9 L4.125,9 C3.8125,9 3.546875,8.890625 3.328125,8.671875 C3.109375,8.453125 3,8.1875 3,7.875 L3,3.75 L1.125,3.75 C1.015625,3.75 0.92578125,3.78515625 0.85546875,3.85546875 C0.78515625,3.92578125 0.75,4.015625 0.75,4.125 L0.75,10.875 C0.75,10.984375 0.78515625,11.0742188 0.85546875,11.1445312 C0.92578125,11.2148438 1.015625,11.25 1.125,11.25 L10.875,11.25 C10.984375,11.25 11.0742188,11.2148438 11.1445312,11.1445312 C11.2148438,11.0742188 11.25,10.984375 11.25,10.875 Z M14.25,7.875 L14.25,2.625 C14.25,2.515625 14.2148438,2.42578125 14.1445312,2.35546875 C14.0742188,2.28515625 13.984375,2.25 13.875,2.25 L9.375,2.25 C9.171875,2.25 8.9921875,2.1796875 8.8359375,2.0390625 L7.5703125,0.75 L4.125,0.75 C4.015625,0.75 3.92578125,0.78515625 3.85546875,0.85546875 C3.78515625,0.92578125 3.75,1.015625 3.75,1.125 L3.75,7.875 C3.75,7.984375 3.78515625,8.07421875 3.85546875,8.14453125 C3.92578125,8.21484375 4.015625,8.25 4.125,8.25 L13.875,8.25 C13.984375,8.25 14.0742188,8.21484375 14.1445312,8.14453125 C14.2148438,8.07421875 14.25,7.984375 14.25,7.875 Z" id="Shape"></path>
            </g>
        </g>
    </g>
</svg>