<?xml version="1.0" encoding="UTF-8"?>
<svg width="12px" height="12px" viewBox="0 0 12 12" version="1.1" xmlns="http://www.w3.org/2000/svg" xmlns:xlink="http://www.w3.org/1999/xlink">
    <title>folder-tree</title>
    <g id="Page-1" stroke="none" stroke-width="1" fill="none" fill-rule="evenodd">
        <g id="iconografia_sistema-copy" transform="translate(-31.750000, -184.500000)" fill="#000000" fill-rule="nonzero">
            <g id="folder-tree" transform="translate(31.750000, 184.500000)">
                <path d="M6,5.25 C5.796875,5.25 5.62109375,5.17578125 5.47265625,5.02734375 C5.32421875,4.87890625 5.25,4.703125 5.25,4.5 L5.25,3 L0.75,3 L0.75,9 L5.25,9 L5.25,7.5 C5.25,7.296875 5.32421875,7.12109375 5.47265625,6.97265625 C5.62109375,6.82421875 5.796875,6.75 6,6.75 L7.875,6.75 L8.625,7.5 L11.25,7.5 C11.453125,7.5 11.6289062,7.57421875 11.7773438,7.72265625 C11.9257812,7.87109375 12,8.046875 12,8.25 L12,11.25 C12,11.453125 11.9257812,11.6289062 11.7773438,11.7773438 C11.6289062,11.9257812 11.453125,12 11.25,12 L6,12 C5.796875,12 5.62109375,11.9257812 5.47265625,11.7773438 C5.32421875,11.6289062 5.25,11.453125 5.25,11.25 L5.25,9.75 L0.375,9.75 C0.265625,9.75 0.17578125,9.71484375 0.10546875,9.64453125 C0.03515625,9.57421875 0,9.484375 0,9.375 L0,0.1875 C0,0.0625 0.0625,0 0.1875,0 L0.5625,0 C0.6875,0 0.75,0.0625 0.75,0.1875 L0.75,2.25 L5.25,2.25 L5.25,0.75 C5.25,0.546875 5.32421875,0.37109375 5.47265625,0.22265625 C5.62109375,0.07421875 5.796875,0 6,0 L7.875,0 L8.625,0.75 L11.25,0.75 C11.453125,0.75 11.6289062,0.82421875 11.7773438,0.97265625 C11.9257812,1.12109375 12,1.296875 12,1.5 L12,4.5 C12,4.703125 11.9257812,4.87890625 11.7773438,5.02734375 C11.6289062,5.17578125 11.453125,5.25 11.25,5.25 L6,5.25 Z M6,7.5 L6,11.25 L11.25,11.25 L11.25,8.25 L8.3203125,8.25 L7.5703125,7.5 L6,7.5 Z M6,0.75 L6,4.5 L11.25,4.5 L11.25,1.5 L8.3203125,1.5 L7.5703125,0.75 L6,0.75 Z" id="Shape"></path>
            </g>
        </g>
    </g>
</svg>