<?xml version="1.0" encoding="UTF-8"?>
<svg width="15px" height="9px" viewBox="0 0 15 9" version="1.1" xmlns="http://www.w3.org/2000/svg" xmlns:xlink="http://www.w3.org/1999/xlink">
    <title>font-case</title>
    <g id="Page-1" stroke="none" stroke-width="1" fill="none" fill-rule="evenodd">
        <g id="iconografia_sistema-copy" transform="translate(-31.023438, -348.000000)" fill="#000000" fill-rule="nonzero">
            <g id="font-case" transform="translate(31.023438, 348.000000)">
                <path d="M14.8125,2.25 C14.9375,2.25 15,2.3125 15,2.4375 L15,8.8125 C15,8.9375 14.9375,9 14.8125,9 L14.4375,9 C14.3125,9 14.25,8.9375 14.25,8.8125 L14.25,7.96875 C13.640625,8.65625 12.890625,9 12,9 C11.171875,9 10.4648438,8.70703125 9.87890625,8.12109375 C9.29296875,7.53515625 9,6.828125 9,6 L9,5.25 C9,4.421875 9.29296875,3.71484375 9.87890625,3.12890625 C10.4648438,2.54296875 11.171875,2.25 12,2.25 C12.890625,2.25 13.640625,2.59375 14.25,3.28125 L14.25,2.4375 C14.25,2.3125 14.3125,2.25 14.4375,2.25 L14.8125,2.25 Z M14.25,6 L14.25,5.25 C14.25,4.625 14.03125,4.09375 13.59375,3.65625 C13.15625,3.21875 12.625,3 12,3 C11.375,3 10.84375,3.21875 10.40625,3.65625 C9.96875,4.09375 9.75,4.625 9.75,5.25 L9.75,6 C9.75,6.625 9.96875,7.15625 10.40625,7.59375 C10.84375,8.03125 11.375,8.25 12,8.25 C12.625,8.25 13.15625,8.03125 13.59375,7.59375 C14.03125,7.15625 14.25,6.625 14.25,6 Z M4.7109375,0.234375 L8.2265625,8.7421875 C8.2421875,8.7578125 8.25,8.78125 8.25,8.8125 C8.25,8.9375 8.1875,9 8.0625,9 L7.6640625,9 C7.5703125,9 7.5078125,8.9609375 7.4765625,8.8828125 L6.28125,6 L1.96875,6 L0.7734375,8.8828125 C0.7421875,8.9609375 0.6796875,9 0.5859375,9 L0.1875,9 C0.0625,9 0,8.9375 0,8.8125 C0,8.78125 0.0078125,8.7578125 0.0234375,8.7421875 L3.5390625,0.234375 C3.6171875,0.078125 3.734375,0 3.890625,0 L4.359375,0 C4.515625,0 4.6328125,0.078125 4.7109375,0.234375 Z M2.2734375,5.25 L5.9765625,5.25 L4.125,0.796875 L2.2734375,5.25 Z" id="Shape"></path>
            </g>
        </g>
    </g>
</svg>