<?xml version="1.0" encoding="UTF-8"?>
<svg width="12px" height="9px" viewBox="0 0 12 9" version="1.1" xmlns="http://www.w3.org/2000/svg" xmlns:xlink="http://www.w3.org/1999/xlink">
    <title>image_solid</title>
    <g id="Page-1" stroke="none" stroke-width="1" fill="none" fill-rule="evenodd">
        <g id="iconografia_sistema-copy" transform="translate(-32.000000, -1093.000000)" fill="#000000" fill-rule="nonzero">
            <g id="image_solid" transform="translate(32.000000, 1093.000000)">
                <path d="M10.875,9 L1.125,9 C0.8125,9 0.546875,8.890625 0.328125,8.671875 C0.109375,8.453125 0,8.1875 0,7.875 L0,1.125 C0,0.8125 0.109375,0.546875 0.328125,0.328125 C0.546875,0.109375 0.8125,0 1.125,0 L10.875,0 C11.1875,0 11.453125,0.109375 11.671875,0.328125 C11.890625,0.546875 12,0.8125 12,1.125 L12,7.875 C12,8.1875 11.890625,8.453125 11.671875,8.671875 C11.453125,8.890625 11.1875,9 10.875,9 Z M3.5390625,1.7109375 C3.2890625,1.4453125 2.984375,1.3125 2.625,1.3125 C2.265625,1.3125 1.95703125,1.44140625 1.69921875,1.69921875 C1.44140625,1.95703125 1.3125,2.265625 1.3125,2.625 C1.3125,2.984375 1.44140625,3.29296875 1.69921875,3.55078125 C1.95703125,3.80859375 2.265625,3.9375 2.625,3.9375 C2.984375,3.9375 3.29296875,3.80859375 3.55078125,3.55078125 C3.80859375,3.29296875 3.9375,2.984375 3.9375,2.625 C3.9375,2.265625 3.8046875,1.9609375 3.5390625,1.7109375 Z M1.5,7.5 L10.5,7.5 L10.5,4.875 L8.4375,2.8125 C8.3125,2.6875 8.1875,2.6875 8.0625,2.8125 L4.875,6 L3.5625,4.6875 C3.4375,4.5625 3.3125,4.5625 3.1875,4.6875 L1.5,6.375 L1.5,7.5 Z" id="Shape"></path>
            </g>
        </g>
    </g>
</svg>