<?xml version="1.0" encoding="UTF-8"?>
<svg width="12px" height="9px" viewBox="0 0 12 9" version="1.1" xmlns="http://www.w3.org/2000/svg" xmlns:xlink="http://www.w3.org/1999/xlink">
    <title>image</title>
    <g id="Page-1" stroke="none" stroke-width="1" fill="none" fill-rule="evenodd">
        <g id="iconografia_sistema-copy" transform="translate(-32.000000, -1003.000000)" fill="#000000" fill-rule="nonzero">
            <g id="image" transform="translate(32.000000, 1003.000000)">
                <path d="M10.875,0 C11.1875,0 11.453125,0.109375 11.671875,0.328125 C11.890625,0.546875 12,0.8125 12,1.125 L12,7.875 C12,8.1875 11.890625,8.453125 11.671875,8.671875 C11.453125,8.890625 11.1875,9 10.875,9 L1.125,9 C0.8125,9 0.546875,8.890625 0.328125,8.671875 C0.109375,8.453125 0,8.1875 0,7.875 L0,1.125 C0,0.8125 0.109375,0.546875 0.328125,0.328125 C0.546875,0.109375 0.8125,0 1.125,0 L10.875,0 Z M11.25,7.875 L11.25,1.125 C11.25,1.015625 11.2148438,0.92578125 11.1445312,0.85546875 C11.0742188,0.78515625 10.984375,0.75 10.875,0.75 L1.125,0.75 C1.015625,0.75 0.92578125,0.78515625 0.85546875,0.85546875 C0.78515625,0.92578125 0.75,1.015625 0.75,1.125 L0.75,7.875 C0.75,7.984375 0.78515625,8.07421875 0.85546875,8.14453125 C0.92578125,8.21484375 1.015625,8.25 1.125,8.25 L10.875,8.25 C10.984375,8.25 11.0742188,8.21484375 11.1445312,8.14453125 C11.2148438,8.07421875 11.25,7.984375 11.25,7.875 Z M3.5390625,3.5625 C3.2890625,3.8125 2.984375,3.9375 2.625,3.9375 C2.265625,3.9375 1.95703125,3.80859375 1.69921875,3.55078125 C1.44140625,3.29296875 1.3125,2.984375 1.3125,2.625 C1.3125,2.265625 1.44140625,1.95703125 1.69921875,1.69921875 C1.95703125,1.44140625 2.265625,1.3125 2.625,1.3125 C2.984375,1.3125 3.29296875,1.44140625 3.55078125,1.69921875 C3.80859375,1.95703125 3.9375,2.265625 3.9375,2.625 C3.9375,2.984375 3.8046875,3.296875 3.5390625,3.5625 Z M3.0234375,2.2265625 C2.9140625,2.1171875 2.78125,2.0625 2.625,2.0625 C2.46875,2.0625 2.3359375,2.1171875 2.2265625,2.2265625 C2.1171875,2.3359375 2.0625,2.46875 2.0625,2.625 C2.0625,2.78125 2.1171875,2.9140625 2.2265625,3.0234375 C2.3359375,3.1328125 2.46875,3.1875 2.625,3.1875 C2.78125,3.1875 2.9140625,3.1328125 3.0234375,3.0234375 C3.1328125,2.9140625 3.1875,2.78125 3.1875,2.625 C3.1875,2.46875 3.1328125,2.3359375 3.0234375,2.2265625 Z M7.4765625,2.6015625 C7.5859375,2.4921875 7.71875,2.4375 7.875,2.4375 C8.03125,2.4375 8.1640625,2.4921875 8.2734375,2.6015625 L10.3359375,4.6640625 C10.4453125,4.7734375 10.5,4.90625 10.5,5.0625 L10.5,7.21875 C10.5,7.40625 10.40625,7.5 10.21875,7.5 L1.78125,7.5 C1.59375,7.5 1.5,7.40625 1.5,7.21875 L1.5,6.5625 C1.5,6.40625 1.5546875,6.2734375 1.6640625,6.1640625 L3.7265625,4.1015625 C3.8359375,3.9921875 3.96875,3.9375 4.125,3.9375 C4.28125,3.9375 4.4140625,3.9921875 4.5234375,4.1015625 L5.25,4.828125 L7.4765625,2.6015625 Z M9.75,6.75 L9.75,5.1328125 L7.875,3.2578125 L5.25,5.8828125 L4.125,4.7578125 L2.25,6.6328125 L2.25,6.75 L9.75,6.75 Z" id="Shape"></path>
            </g>
        </g>
    </g>
</svg>