<?xml version="1.0" encoding="UTF-8"?>
<svg width="12px" height="12.0117188px" viewBox="0 0 12 12.0117188" version="1.1" xmlns="http://www.w3.org/2000/svg" xmlns:xlink="http://www.w3.org/1999/xlink">
    <title>layer-group</title>
    <g id="Page-1" stroke="none" stroke-width="1" fill="none" fill-rule="evenodd">
        <g id="iconografia_sistema-copy" transform="translate(-368.000000, -460.488281)" fill="#000000" fill-rule="nonzero">
            <g id="layer-group" transform="translate(368.000000, 460.488281)">
                <path d="M11.6484375,5.47265625 C11.8828125,5.58203125 12,5.76171875 12,6.01171875 C12,6.26171875 11.8828125,6.44140625 11.6484375,6.55078125 L9.328125,7.55859375 L11.6484375,8.56640625 C11.8828125,8.67578125 12,8.859375 12,9.1171875 C12,9.375 11.8828125,9.55078125 11.6484375,9.64453125 L6.375,11.9414062 C6.25,11.9882812 6.125,12.0117188 6,12.0117188 C5.875,12.0117188 5.75,11.9882812 5.625,11.9414062 L0.3515625,9.64453125 C0.1171875,9.55078125 0,9.375 0,9.1171875 C0,8.859375 0.1171875,8.67578125 0.3515625,8.56640625 L2.671875,7.55859375 L0.3515625,6.55078125 C0.1171875,6.44140625 0,6.26171875 0,6.01171875 C0,5.76171875 0.1171875,5.58203125 0.3515625,5.47265625 L2.671875,4.46484375 L0.3515625,3.45703125 C0.1171875,3.34765625 0,3.1640625 0,2.90625 C0,2.6484375 0.1171875,2.47265625 0.3515625,2.37890625 L5.625,0.08203125 C5.875,-0.02734375 6.125,-0.02734375 6.375,0.08203125 L11.6484375,2.37890625 C11.8828125,2.47265625 12,2.6484375 12,2.90625 C12,3.1640625 11.8828125,3.34765625 11.6484375,3.45703125 L9.3046875,4.46484375 L11.6484375,5.47265625 Z M1.0546875,2.91796875 L5.9296875,5.02734375 C5.9765625,5.04296875 6.0234375,5.04296875 6.0703125,5.02734375 L10.9453125,2.91796875 L6.0703125,0.80859375 C6.0234375,0.77734375 5.9765625,0.77734375 5.9296875,0.80859375 L1.0546875,2.91796875 Z M10.9453125,9.10546875 L8.34375,7.98046875 L6.375,8.84765625 C6.25,8.89453125 6.125,8.91796875 6,8.91796875 C5.875,8.91796875 5.75,8.89453125 5.625,8.84765625 L3.65625,7.98046875 L1.0546875,9.10546875 L5.9296875,11.2148438 C5.9765625,11.2460938 6.0234375,11.2460938 6.0703125,11.2148438 L10.9453125,9.10546875 Z M6.0703125,8.12109375 L10.9453125,6.01171875 L8.34375,4.88671875 L6.375,5.73046875 C6.25,5.79296875 6.125,5.82421875 6,5.82421875 C5.875,5.82421875 5.75,5.79296875 5.625,5.73046875 L3.65625,4.88671875 L1.0546875,6.01171875 L5.9296875,8.12109375 C5.9765625,8.13671875 6.0234375,8.13671875 6.0703125,8.12109375 Z" id="Shape"></path>
            </g>
        </g>
    </g>
</svg>