<?xml version="1.0" encoding="UTF-8"?>
<svg width="10.40625px" height="5.2265625px" viewBox="0 0 10.40625 5.2265625" version="1.1" xmlns="http://www.w3.org/2000/svg" xmlns:xlink="http://www.w3.org/1999/xlink">
    <title>long-arrow-alt-right_regular</title>
    <g id="Page-1" stroke="none" stroke-width="1" fill="none" fill-rule="evenodd">
        <g id="iconografia_sistema-copy" transform="translate(-369.000000, -628.945312)" fill="#000000" fill-rule="nonzero">
            <g id="long-arrow-alt-right_regular" transform="translate(369.000000, 628.945312)">
                <path d="M7.96875,5.1328125 C7.890625,5.2265625 7.79296875,5.25 7.67578125,5.203125 C7.55859375,5.15625 7.5,5.0703125 7.5,4.9453125 L7.5,3.2578125 L0.28125,3.2578125 C0.203125,3.2578125 0.13671875,3.23046875 0.08203125,3.17578125 C0.02734375,3.12109375 0,3.0546875 0,2.9765625 L0,2.2265625 C0,2.1640625 0.02734375,2.1015625 0.08203125,2.0390625 C0.13671875,1.9765625 0.203125,1.9453125 0.28125,1.9453125 L7.5,1.9453125 L7.5,0.28125 C7.5,0.15625 7.55859375,0.0703125 7.67578125,0.0234375 C7.79296875,-0.0234375 7.890625,0 7.96875,0.09375 L10.3125,2.4140625 C10.4375,2.5390625 10.4375,2.671875 10.3125,2.8125 L7.96875,5.1328125 Z" id="Path"></path>
            </g>
        </g>
    </g>
</svg>