<?xml version="1.0" encoding="UTF-8"?>
<svg width="9px" height="9px" viewBox="0 0 9 9" version="1.1" xmlns="http://www.w3.org/2000/svg" xmlns:xlink="http://www.w3.org/1999/xlink">
    <title>plus</title>
    <g id="Page-1" stroke="none" stroke-width="1" fill="none" fill-rule="evenodd">
        <g id="iconografia_sistema-copy" transform="translate(-369.000000, -789.000000)" fill="#000000" fill-rule="nonzero">
            <g id="plus" transform="translate(369.000000, 789.000000)">
                <path d="M8.8125,3.9375 C8.9375,3.9375 9,4 9,4.125 L9,4.875 C9,5 8.9375,5.0625 8.8125,5.0625 L5.0625,5.0625 L5.0625,8.8125 C5.0625,8.9375 5,9 4.875,9 L4.125,9 C4,9 3.9375,8.9375 3.9375,8.8125 L3.9375,5.0625 L0.1875,5.0625 C0.0625,5.0625 0,5 0,4.875 L0,4.125 C0,4 0.0625,3.9375 0.1875,3.9375 L3.9375,3.9375 L3.9375,0.1875 C3.9375,0.0625 4,0 4.125,0 L4.875,0 C5,0 5.0625,0.0625 5.0625,0.1875 L5.0625,3.9375 L8.8125,3.9375 Z" id="Path"></path>
            </g>
        </g>
    </g>
</svg>