<?xml version="1.0" encoding="UTF-8"?>
<svg width="12px" height="12px" viewBox="0 0 12 12" version="1.1" xmlns="http://www.w3.org/2000/svg" xmlns:xlink="http://www.w3.org/1999/xlink">
    <title>print_solid 2</title>
    <g id="Page-1" stroke="none" stroke-width="1" fill="none" fill-rule="evenodd">
        <g id="iconografia_sistema-copy" transform="translate(-32.000000, -545.500000)" fill="#000000" fill-rule="nonzero">
            <g id="print_solid" transform="translate(32.000000, 545.500000)">
                <path d="M10.5,4.5 C10.921875,4.5 11.2773438,4.64453125 11.5664062,4.93359375 C11.8554688,5.22265625 12,5.578125 12,6 L12,8.625 C12,8.734375 11.9648438,8.82421875 11.8945312,8.89453125 C11.8242188,8.96484375 11.734375,9 11.625,9 L10.5,9 L10.5,11.25 C10.5,11.453125 10.4257812,11.6289062 10.2773438,11.7773438 C10.1289062,11.9257812 9.953125,12 9.75,12 L2.25,12 C2.046875,12 1.87109375,11.9257812 1.72265625,11.7773438 C1.57421875,11.6289062 1.5,11.453125 1.5,11.25 L1.5,9 L0.375,9 C0.265625,9 0.17578125,8.96484375 0.10546875,8.89453125 C0.03515625,8.82421875 0,8.734375 0,8.625 L0,6 C0,5.578125 0.14453125,5.22265625 0.43359375,4.93359375 C0.72265625,4.64453125 1.078125,4.5 1.5,4.5 L1.5,0.75 C1.5,0.546875 1.57421875,0.37109375 1.72265625,0.22265625 C1.87109375,0.07421875 2.046875,0 2.25,0 L8.6953125,0 C8.8984375,0 9.0703125,0.0703125 9.2109375,0.2109375 L10.2890625,1.2890625 C10.4296875,1.4296875 10.5,1.6015625 10.5,1.8046875 L10.5,4.5 Z M9,10.5 L9,8.25 L3,8.25 L3,10.5 L9,10.5 Z M9,5.25 L9,3 L7.875,3 C7.765625,3 7.67578125,2.96484375 7.60546875,2.89453125 C7.53515625,2.82421875 7.5,2.734375 7.5,2.625 L7.5,1.5 L3,1.5 L3,5.25 L9,5.25 Z M9.7265625,6.7734375 C9.8359375,6.8828125 9.96875,6.9375 10.125,6.9375 C10.28125,6.9375 10.4140625,6.8828125 10.5234375,6.7734375 C10.6328125,6.6640625 10.6875,6.53125 10.6875,6.375 C10.6875,6.21875 10.6328125,6.0859375 10.5234375,5.9765625 C10.4140625,5.8671875 10.28125,5.8125 10.125,5.8125 C9.96875,5.8125 9.8359375,5.8671875 9.7265625,5.9765625 C9.6171875,6.0859375 9.5625,6.21875 9.5625,6.375 C9.5625,6.53125 9.6171875,6.6640625 9.7265625,6.7734375 Z" id="Shape"></path>
            </g>
        </g>
    </g>
</svg>