<?xml version="1.0" encoding="UTF-8"?>
<svg width="12.0117188px" height="12.0117188px" viewBox="0 0 12.0117188 12.0117188" version="1.1" xmlns="http://www.w3.org/2000/svg" xmlns:xlink="http://www.w3.org/1999/xlink">
    <title>search_regular</title>
    <g id="Page-1" stroke="none" stroke-width="1" fill="none" fill-rule="evenodd">
        <g id="iconografia_sistema-copy" transform="translate(-368.000000, -643.500000)" fill="#000000" fill-rule="nonzero">
            <g id="search_regular" transform="translate(368.000000, 643.500000)">
                <path d="M11.90625,10.9921875 C12.046875,11.1171875 12.046875,11.25 11.90625,11.390625 L11.390625,11.90625 C11.25,12.046875 11.1171875,12.046875 10.9921875,11.90625 L8.15625,9.0703125 C8.09375,9.0078125 8.0625,8.9453125 8.0625,8.8828125 L8.0625,8.5546875 C7.140625,9.3515625 6.078125,9.75 4.875,9.75 C3.53125,9.75 2.3828125,9.2734375 1.4296875,8.3203125 C0.4765625,7.3671875 0,6.21875 0,4.875 C0,3.53125 0.4765625,2.3828125 1.4296875,1.4296875 C2.3828125,0.4765625 3.53125,0 4.875,0 C6.21875,0 7.3671875,0.4765625 8.3203125,1.4296875 C9.2734375,2.3828125 9.75,3.53125 9.75,4.875 C9.75,6.078125 9.3515625,7.140625 8.5546875,8.0625 L8.8828125,8.0625 C8.9609375,8.0625 9.0234375,8.09375 9.0703125,8.15625 L11.90625,10.9921875 Z M2.2265625,7.5234375 C2.9609375,8.2578125 3.84375,8.625 4.875,8.625 C5.90625,8.625 6.7890625,8.2578125 7.5234375,7.5234375 C8.2578125,6.7890625 8.625,5.90625 8.625,4.875 C8.625,3.84375 8.2578125,2.9609375 7.5234375,2.2265625 C6.7890625,1.4921875 5.90625,1.125 4.875,1.125 C3.84375,1.125 2.9609375,1.4921875 2.2265625,2.2265625 C1.4921875,2.9609375 1.125,3.84375 1.125,4.875 C1.125,5.90625 1.4921875,6.7890625 2.2265625,7.5234375 Z" id="Shape"></path>
            </g>
        </g>
    </g>
</svg>