<?xml version="1.0" encoding="UTF-8"?>
<svg width="12.0117188px" height="12px" viewBox="0 0 12.0117188 12" version="1.1" xmlns="http://www.w3.org/2000/svg" xmlns:xlink="http://www.w3.org/1999/xlink">
    <title>shapes</title>
    <g id="Page-1" stroke="none" stroke-width="1" fill="none" fill-rule="evenodd">
        <g id="iconografia_sistema-copy" transform="translate(-32.000000, -635.500000)" fill="#000000" fill-rule="nonzero">
            <g id="shapes" transform="translate(32.000000, 635.500000)">
                <path d="M11.25,6.75 C11.453125,6.75 11.6289062,6.82421875 11.7773438,6.97265625 C11.9257812,7.12109375 12,7.296875 12,7.5 L12,11.25 C12,11.453125 11.9257812,11.6289062 11.7773438,11.7773438 C11.6289062,11.9257812 11.453125,12 11.25,12 L7.5,12 C7.296875,12 7.12109375,11.9257812 6.97265625,11.7773438 C6.82421875,11.6289062 6.75,11.453125 6.75,11.25 L6.75,7.5 C6.75,7.296875 6.82421875,7.12109375 6.97265625,6.97265625 C7.12109375,6.82421875 7.296875,6.75 7.5,6.75 L11.25,6.75 Z M11.25,11.25 L11.25,7.5 L7.5,7.5 L7.5,11.25 L11.25,11.25 Z M0.8671875,6.890625 C1.4609375,6.296875 2.171875,6 3,6 C3.828125,6 4.53515625,6.29296875 5.12109375,6.87890625 C5.70703125,7.46484375 6,8.171875 6,9 C6,9.828125 5.70703125,10.5351562 5.12109375,11.1210938 C4.53515625,11.7070312 3.828125,12 3,12 C2.171875,12 1.46484375,11.7070312 0.87890625,11.1210938 C0.29296875,10.5351562 0,9.828125 0,9 C0,8.171875 0.2890625,7.46875 0.8671875,6.890625 Z M1.40625,10.59375 C1.84375,11.03125 2.375,11.25 3,11.25 C3.625,11.25 4.15625,11.03125 4.59375,10.59375 C5.03125,10.15625 5.25,9.625 5.25,9 C5.25,8.375 5.03125,7.84375 4.59375,7.40625 C4.15625,6.96875 3.625,6.75 3,6.75 C2.375,6.75 1.84375,6.96875 1.40625,7.40625 C0.96875,7.84375 0.75,8.375 0.75,9 C0.75,9.625 0.96875,10.15625 1.40625,10.59375 Z M11.8828125,4.7109375 C12.0546875,4.9921875 12.0546875,5.27734375 11.8828125,5.56640625 C11.7109375,5.85546875 11.4609375,6 11.1328125,6 L6.1171875,6 C5.7890625,6 5.5390625,5.85546875 5.3671875,5.56640625 C5.1953125,5.27734375 5.1953125,4.9921875 5.3671875,4.7109375 L7.875,0.421875 C8.046875,0.140625 8.296875,0 8.625,0 C8.953125,0 9.203125,0.140625 9.375,0.421875 L11.8828125,4.7109375 Z M11.2265625,5.203125 C11.2578125,5.15625 11.2578125,5.1171875 11.2265625,5.0859375 L8.71875,0.796875 C8.703125,0.765625 8.671875,0.75 8.625,0.75 C8.578125,0.75 8.546875,0.765625 8.53125,0.796875 L6.0234375,5.0859375 C5.9921875,5.1171875 5.9921875,5.15625 6.0234375,5.203125 C6.0390625,5.234375 6.0703125,5.25 6.1171875,5.25 L11.1328125,5.25 C11.1796875,5.25 11.2109375,5.234375 11.2265625,5.203125 Z" id="Shape"></path>
            </g>
        </g>
    </g>
</svg>