<?xml version="1.0" encoding="UTF-8"?>
<svg width="12.0234375px" height="9px" viewBox="0 0 12.0234375 9" version="1.1" xmlns="http://www.w3.org/2000/svg" xmlns:xlink="http://www.w3.org/1999/xlink">
    <title>sign-out</title>
    <g id="Page-1" stroke="none" stroke-width="1" fill="none" fill-rule="evenodd">
        <g id="iconografia_sistema-copy" transform="translate(-368.000000, -369.000000)" fill="#444444" fill-rule="nonzero">
            <g id="sign-out" transform="translate(368.000000, 369.000000)">
                <path d="M1.125,0 L4.21875,0 C4.40625,0 4.5,0.09375 4.5,0.28125 L4.5,0.46875 C4.5,0.65625 4.40625,0.75 4.21875,0.75 L1.125,0.75 C1.015625,0.75 0.92578125,0.78515625 0.85546875,0.85546875 C0.78515625,0.92578125 0.75,1.015625 0.75,1.125 L0.75,7.875 C0.75,7.984375 0.78515625,8.07421875 0.85546875,8.14453125 C0.92578125,8.21484375 1.015625,8.25 1.125,8.25 L4.21875,8.25 C4.40625,8.25 4.5,8.34375 4.5,8.53125 L4.5,8.71875 C4.5,8.90625 4.40625,9 4.21875,9 L1.125,9 C0.8125,9 0.546875,8.890625 0.328125,8.671875 C0.109375,8.453125 0,8.1875 0,7.875 L0,1.125 C0,0.8125 0.109375,0.546875 0.328125,0.328125 C0.546875,0.109375 0.8125,0 1.125,0 Z M7.6640625,0.46875 C7.8046875,0.328125 7.9375,0.328125 8.0625,0.46875 L11.9296875,4.3125 C12.0546875,4.4375 12.0546875,4.5625 11.9296875,4.6875 L8.0625,8.53125 C7.9375,8.671875 7.8046875,8.671875 7.6640625,8.53125 L7.5,8.3671875 C7.359375,8.2421875 7.359375,8.109375 7.5,7.96875 L10.59375,4.8984375 L4.03125,4.8984375 C3.84375,4.8984375 3.75,4.8046875 3.75,4.6171875 L3.75,4.3828125 C3.75,4.1953125 3.84375,4.1015625 4.03125,4.1015625 L10.59375,4.1015625 L7.5,1.03125 C7.359375,0.890625 7.359375,0.7578125 7.5,0.6328125 L7.6640625,0.46875 Z" id="Shape"></path>
            </g>
        </g>
    </g>
</svg>