<?xml version="1.0" encoding="UTF-8"?>
<svg width="11.625px" height="10.5px" viewBox="0 0 11.625 10.5" version="1.1" xmlns="http://www.w3.org/2000/svg" xmlns:xlink="http://www.w3.org/1999/xlink">
    <title>sort-amount-up</title>
    <g id="Page-1" stroke="none" stroke-width="1" fill="none" fill-rule="evenodd">
        <g id="iconografia_sistema-copy" transform="translate(-368.375000, -497.250000)" fill="#000000" fill-rule="nonzero">
            <g id="sort-amount-up" transform="translate(368.375000, 497.250000)">
                <path d="M6.9375,8.25 C7.0625,8.25 7.125,8.3125 7.125,8.4375 L7.125,8.8125 C7.125,8.9375 7.0625,9 6.9375,9 L5.8125,9 C5.6875,9 5.625,8.9375 5.625,8.8125 L5.625,8.4375 C5.625,8.3125 5.6875,8.25 5.8125,8.25 L6.9375,8.25 Z M8.4375,6 C8.5625,6 8.625,6.0625 8.625,6.1875 L8.625,6.5625 C8.625,6.6875 8.5625,6.75 8.4375,6.75 L5.8125,6.75 C5.6875,6.75 5.625,6.6875 5.625,6.5625 L5.625,6.1875 C5.625,6.0625 5.6875,6 5.8125,6 L8.4375,6 Z M11.4375,1.5 C11.5625,1.5 11.625,1.5625 11.625,1.6875 L11.625,2.0625 C11.625,2.1875 11.5625,2.25 11.4375,2.25 L5.8125,2.25 C5.6875,2.25 5.625,2.1875 5.625,2.0625 L5.625,1.6875 C5.625,1.5625 5.6875,1.5 5.8125,1.5 L11.4375,1.5 Z M9.9375,3.75 C10.0625,3.75 10.125,3.8125 10.125,3.9375 L10.125,4.3125 C10.125,4.4375 10.0625,4.5 9.9375,4.5 L5.8125,4.5 C5.6875,4.5 5.625,4.4375 5.625,4.3125 L5.625,3.9375 C5.625,3.8125 5.6875,3.75 5.8125,3.75 L9.9375,3.75 Z M2.4375,0.09375 L4.40625,2.015625 C4.46875,2.0625 4.5,2.125 4.5,2.203125 C4.5,2.28125 4.46875,2.3515625 4.40625,2.4140625 L4.2890625,2.53125 C4.2265625,2.59375 4.15625,2.625 4.078125,2.625 C4,2.625 3.9375,2.59375 3.890625,2.53125 L2.625,1.3125 L2.625,10.3125 C2.625,10.4375 2.5625,10.5 2.4375,10.5 L2.0625,10.5 C1.9375,10.5 1.875,10.4375 1.875,10.3125 L1.875,1.3125 L0.609375,2.5546875 C0.5625,2.6015625 0.5,2.625 0.421875,2.625 C0.34375,2.625 0.2734375,2.6015625 0.2109375,2.5546875 L0.0703125,2.4140625 C0.0234375,2.3515625 0,2.28125 0,2.203125 C0,2.125 0.03125,2.0625 0.09375,2.015625 L2.0625,0.09375 C2.109375,0.03125 2.171875,0 2.25,0 C2.328125,0 2.390625,0.03125 2.4375,0.09375 Z" id="Shape"></path>
            </g>
        </g>
    </g>
</svg>