<?xml version="1.0" encoding="UTF-8"?>
<svg width="7.546875px" height="7.546875px" viewBox="0 0 7.546875 7.546875" version="1.1" xmlns="http://www.w3.org/2000/svg" xmlns:xlink="http://www.w3.org/1999/xlink">
    <title>times</title>
    <g id="Page-1" stroke="none" stroke-width="1" fill="none" fill-rule="evenodd">
        <g id="iconografia_sistema-copy" transform="translate(-370.000000, -735.726562)" fill="#000000" fill-rule="nonzero">
            <g id="times" transform="translate(370.000000, 735.726562)">
                <path d="M4.8984375,3.7734375 L7.40625,6.3046875 C7.59375,6.4765625 7.59375,6.6484375 7.40625,6.8203125 L6.8203125,7.40625 C6.6484375,7.59375 6.4765625,7.59375 6.3046875,7.40625 L3.7734375,4.8984375 L1.2421875,7.40625 C1.0703125,7.59375 0.8984375,7.59375 0.7265625,7.40625 L0.140625,6.8203125 C-0.046875,6.6484375 -0.046875,6.4765625 0.140625,6.3046875 L2.6484375,3.7734375 L0.140625,1.2421875 C-0.046875,1.0703125 -0.046875,0.8984375 0.140625,0.7265625 L0.7265625,0.140625 C0.8984375,-0.046875 1.0703125,-0.046875 1.2421875,0.140625 L3.7734375,2.6484375 L6.3046875,0.140625 C6.4765625,-0.046875 6.6484375,-0.046875 6.8203125,0.140625 L7.40625,0.7265625 C7.59375,0.8984375 7.59375,1.0703125 7.40625,1.2421875 L4.8984375,3.7734375 Z" id="Path"></path>
            </g>
        </g>
    </g>
</svg>