<?xml version="1.0" encoding="UTF-8"?>
<svg width="10.5px" height="12px" viewBox="0 0 10.5 12" version="1.1" xmlns="http://www.w3.org/2000/svg" xmlns:xlink="http://www.w3.org/1999/xlink">
    <title>trash</title>
    <g id="Page-1" stroke="none" stroke-width="1" fill="none" fill-rule="evenodd">
        <g id="iconografia_sistema-copy" transform="translate(-369.000000, -697.500000)" fill="#000000" fill-rule="nonzero">
            <g id="trash" transform="translate(369.000000, 697.500000)">
                <path d="M10.3125,1.5 C10.4375,1.5 10.5,1.5625 10.5,1.6875 L10.5,2.0625 C10.5,2.1875 10.4375,2.25 10.3125,2.25 L9.8671875,2.25 L9.09375,10.96875 C9.0625,11.25 8.9375,11.4921875 8.71875,11.6953125 C8.5,11.8984375 8.25,12 7.96875,12 L2.53125,12 C2.25,12 2,11.8984375 1.78125,11.6953125 C1.5625,11.4921875 1.4375,11.25 1.40625,10.96875 L0.6328125,2.25 L0.1875,2.25 C0.0625,2.25 0,2.1875 0,2.0625 L0,1.6875 C0,1.5625 0.0625,1.5 0.1875,1.5 L2.625,1.5 L3.421875,0.4453125 C3.515625,0.3203125 3.6484375,0.21484375 3.8203125,0.12890625 C3.9921875,0.04296875 4.15625,0 4.3125,0 L6.1875,0 C6.34375,0 6.5078125,0.04296875 6.6796875,0.12890625 C6.8515625,0.21484375 6.984375,0.3203125 7.078125,0.4453125 L7.875,1.5 L10.3125,1.5 Z M4.0078125,0.890625 L3.5625,1.5 L6.9375,1.5 L6.4921875,0.890625 C6.4140625,0.796875 6.3125,0.75 6.1875,0.75 L4.3125,0.75 C4.1875,0.75 4.0859375,0.796875 4.0078125,0.890625 Z M8.34375,10.8984375 L9.1171875,2.25 L1.3828125,2.25 L2.15625,10.8984375 C2.15625,10.9921875 2.1953125,11.0742188 2.2734375,11.1445312 C2.3515625,11.2148438 2.4375,11.25 2.53125,11.25 L7.96875,11.25 C8.03125,11.25 8.08984375,11.234375 8.14453125,11.203125 C8.19921875,11.171875 8.24609375,11.1289062 8.28515625,11.0742188 C8.32421875,11.0195312 8.34375,10.9609375 8.34375,10.8984375 Z" id="Shape"></path>
            </g>
        </g>
    </g>
</svg>