<?xml version="1.0" encoding="UTF-8"?>
<svg width="10.5px" height="12px" viewBox="0 0 10.5 12" version="1.1" xmlns="http://www.w3.org/2000/svg" xmlns:xlink="http://www.w3.org/1999/xlink">
    <title>user-graduate</title>
    <g id="Page-1" stroke="none" stroke-width="1" fill="none" fill-rule="evenodd">
        <g id="iconografia_sistema-copy" transform="translate(-326.023438, -1001.500000)" fill="#000000" fill-rule="nonzero">
            <g id="user-graduate" transform="translate(326.023438, 1001.500000)">
                <path d="M7.4765625,7.5234375 C7.6171875,7.5234375 7.78125,7.54296875 7.96875,7.58203125 C8.15625,7.62109375 8.41015625,7.7109375 8.73046875,7.8515625 C9.05078125,7.9921875 9.33203125,8.17578125 9.57421875,8.40234375 C9.81640625,8.62890625 10.03125,8.95703125 10.21875,9.38671875 C10.40625,9.81640625 10.5,10.3125 10.5,10.875 C10.5,11.1875 10.390625,11.453125 10.171875,11.671875 C9.953125,11.890625 9.6875,12 9.375,12 L1.125,12 C0.8125,12 0.546875,11.890625 0.328125,11.671875 C0.109375,11.453125 0,11.1875 0,10.875 C0,10.3125 0.09375,9.81640625 0.28125,9.38671875 C0.46875,8.95703125 0.68359375,8.62890625 0.92578125,8.40234375 C1.16796875,8.17578125 1.44921875,7.9921875 1.76953125,7.8515625 C2.08984375,7.7109375 2.34375,7.62109375 2.53125,7.58203125 C2.71875,7.54296875 2.8828125,7.5234375 3.0234375,7.5234375 L5.25,9.375 L7.4765625,7.5234375 Z M4.875,11.25 L4.875,10.03125 L2.765625,8.296875 C2.671875,8.3125 2.59375,8.328125 2.53125,8.34375 C2.46875,8.359375 2.3125,8.42578125 2.0625,8.54296875 C1.8125,8.66015625 1.60546875,8.80078125 1.44140625,8.96484375 C1.27734375,9.12890625 1.12109375,9.37890625 0.97265625,9.71484375 C0.82421875,10.0507812 0.75,10.4375 0.75,10.875 C0.75,10.984375 0.78515625,11.0742188 0.85546875,11.1445312 C0.92578125,11.2148438 1.015625,11.25 1.125,11.25 L4.875,11.25 Z M9.75,10.875 C9.75,10.4375 9.67578125,10.0507812 9.52734375,9.71484375 C9.37890625,9.37890625 9.22265625,9.12890625 9.05859375,8.96484375 C8.89453125,8.80078125 8.6875,8.66015625 8.4375,8.54296875 C8.1875,8.42578125 8.03125,8.359375 7.96875,8.34375 C7.90625,8.328125 7.828125,8.3125 7.734375,8.296875 L5.625,10.03125 L5.625,11.25 L9.375,11.25 C9.484375,11.25 9.57421875,11.2148438 9.64453125,11.1445312 C9.71484375,11.0742188 9.75,10.984375 9.75,10.875 Z M0.3046875,2.34375 C0.1015625,2.28125 0,2.125 0,1.875 C0,1.625 0.1015625,1.46875 0.3046875,1.40625 L4.8515625,0.046875 C4.9765625,0.015625 5.109375,0 5.25,0 C5.390625,0 5.5234375,0.015625 5.6484375,0.046875 L10.1953125,1.40625 C10.3984375,1.46875 10.5,1.625 10.5,1.875 C10.5,2.125 10.3984375,2.28125 10.1953125,2.34375 L8.3671875,2.8828125 C8.5390625,3.2890625 8.625,3.703125 8.625,4.125 C8.625,5.0625 8.296875,5.859375 7.640625,6.515625 C6.984375,7.171875 6.1875,7.5 5.25,7.5 C4.3125,7.5 3.515625,7.171875 2.859375,6.515625 C2.203125,5.859375 1.875,5.0625 1.875,4.125 C1.875,3.703125 1.9609375,3.2890625 2.1328125,2.8828125 L1.03125,2.5546875 L1.03125,3.28125 C1.21875,3.390625 1.3125,3.546875 1.3125,3.75 C1.3125,3.9375 1.2265625,4.09375 1.0546875,4.21875 L1.40625,5.671875 C1.421875,5.734375 1.42578125,5.7890625 1.41796875,5.8359375 C1.41015625,5.8828125 1.390625,5.921875 1.359375,5.953125 C1.328125,5.984375 1.2890625,6 1.2421875,6 L0.2578125,6 C0.1953125,6 0.14453125,5.96484375 0.10546875,5.89453125 C0.06640625,5.82421875 0.0625,5.75 0.09375,5.671875 L0.4453125,4.21875 C0.2734375,4.09375 0.1875,3.9375 0.1875,3.75 C0.1875,3.546875 0.28125,3.390625 0.46875,3.28125 L0.46875,2.390625 L0.3046875,2.34375 Z M3.3984375,5.9765625 C3.9140625,6.4921875 4.53125,6.75 5.25,6.75 C5.96875,6.75 6.5859375,6.4921875 7.1015625,5.9765625 C7.6171875,5.4609375 7.875,4.84375 7.875,4.125 C7.875,3.78125 7.796875,3.4375 7.640625,3.09375 L5.6484375,3.703125 C5.3828125,3.78125 5.1171875,3.78125 4.8515625,3.703125 L2.859375,3.09375 C2.703125,3.4375 2.625,3.78125 2.625,4.125 C2.625,4.84375 2.8828125,5.4609375 3.3984375,5.9765625 Z M5.0625,0.7734375 L1.359375,1.875 L5.0625,2.9765625 C5.171875,3.0078125 5.296875,3.0078125 5.4375,2.9765625 L9.140625,1.875 L5.4375,0.7734375 C5.328125,0.7421875 5.203125,0.7421875 5.0625,0.7734375 Z" id="Shape"></path>
            </g>
        </g>
    </g>
</svg>