<?xml version="1.0" encoding="UTF-8"?>
<svg width="13.5px" height="9px" viewBox="0 0 13.5 9" version="1.1" xmlns="http://www.w3.org/2000/svg" xmlns:xlink="http://www.w3.org/1999/xlink">
    <title>video 2</title>
    <g id="Page-1" stroke="none" stroke-width="1" fill="none" fill-rule="evenodd">
        <g id="iconografia_sistema-copy" transform="translate(-31.000000, -1039.000000)" fill="#000000" fill-rule="nonzero">
            <g id="video" transform="translate(31.000000, 1039.000000)">
                <path d="M12.75,0.75 C12.953125,0.75 13.1289062,0.8203125 13.2773438,0.9609375 C13.4257812,1.1015625 13.5,1.28125 13.5,1.5 L13.5,7.5 C13.5,7.71875 13.4257812,7.8984375 13.2773438,8.0390625 C13.1289062,8.1796875 12.953125,8.25 12.75,8.25 C12.59375,8.25 12.453125,8.203125 12.328125,8.109375 L9.75,6.46875 L9.75,7.875 C9.75,8.1875 9.6328125,8.453125 9.3984375,8.671875 C9.1640625,8.890625 8.875,9 8.53125,9 L1.21875,9 C0.875,9 0.5859375,8.890625 0.3515625,8.671875 C0.1171875,8.453125 0,8.1875 0,7.875 L0,1.125 C0,0.8125 0.1171875,0.546875 0.3515625,0.328125 C0.5859375,0.109375 0.875,0 1.21875,0 L8.53125,0 C8.875,0 9.1640625,0.109375 9.3984375,0.328125 C9.6328125,0.546875 9.75,0.8125 9.75,1.125 L9.75,2.53125 L12.328125,0.890625 C12.453125,0.796875 12.59375,0.75 12.75,0.75 Z M9,7.875 L9,1.125 C9,1.015625 8.953125,0.92578125 8.859375,0.85546875 C8.765625,0.78515625 8.65625,0.75 8.53125,0.75 L1.21875,0.75 C1.140625,0.75 1.0625,0.765625 0.984375,0.796875 C0.90625,0.828125 0.84765625,0.875 0.80859375,0.9375 C0.76953125,1 0.75,1.0625 0.75,1.125 L0.75,7.875 C0.75,7.984375 0.796875,8.07421875 0.890625,8.14453125 C0.984375,8.21484375 1.09375,8.25 1.21875,8.25 L8.53125,8.25 C8.65625,8.25 8.765625,8.21484375 8.859375,8.14453125 C8.953125,8.07421875 9,7.984375 9,7.875 Z M12.75,7.5 L12.75,1.5 L9.75,3.421875 L9.75,5.578125 L12.7265625,7.4765625 L12.75,7.5 Z" id="Shape"></path>
            </g>
        </g>
    </g>
</svg>