<?xml version="1.0" encoding="UTF-8"?>
<svg width="11.25px" height="9.00551471px" viewBox="0 0 11.25 9.00551471" version="1.1" xmlns="http://www.w3.org/2000/svg" xmlns:xlink="http://www.w3.org/1999/xlink">
    <title>volume_solid 2</title>
    <g id="Page-1" stroke="none" stroke-width="1" fill="none" fill-rule="evenodd">
        <g id="iconografia_sistema-copy" transform="translate(-32.000000, -1110.997243)" fill="#000000" fill-rule="nonzero">
            <g id="volume_solid" transform="translate(32.000000, 1110.997243)">
                <path d="M5.0390625,0.166819853 C5.2109375,-0.00505514706 5.4140625,-0.0441176471 5.6484375,0.0496323529 C5.8828125,0.143382353 6,0.315257353 6,0.565257353 L6,8.44025735 C6,8.69025735 5.8828125,8.86213235 5.6484375,8.95588235 C5.4140625,9.04963235 5.2109375,9.01056985 5.0390625,8.83869485 L2.953125,6.75275735 L0.5625,6.75275735 C0.40625,6.75275735 0.2734375,6.69806985 0.1640625,6.58869485 C0.0546875,6.47931985 0,6.34650735 0,6.19025735 L0,2.81525735 C0,2.65900735 0.0546875,2.52619485 0.1640625,2.41681985 C0.2734375,2.30744485 0.40625,2.25275735 0.5625,2.25275735 L2.953125,2.25275735 L5.0390625,0.166819853 Z M10.7109375,2.41681985 C11.0703125,3.05744485 11.25,3.75275735 11.25,4.50275735 C11.25,5.25275735 11.0742188,5.9519761 10.7226562,6.6004136 C10.3710938,7.2488511 9.875,7.76838235 9.234375,8.15900735 C9.09375,8.25275735 8.94921875,8.2801011 8.80078125,8.2410386 C8.65234375,8.2019761 8.5390625,8.11994485 8.4609375,7.99494485 C8.3828125,7.85431985 8.359375,7.7097886 8.390625,7.5613511 C8.421875,7.4129136 8.5078125,7.29181985 8.6484375,7.19806985 C8.9453125,7.01056985 9.20703125,6.77619485 9.43359375,6.49494485 C9.66015625,6.21369485 9.83203125,5.90119485 9.94921875,5.55744485 C10.0664062,5.21369485 10.125,4.86213235 10.125,4.50275735 C10.125,4.14338235 10.0664062,3.79181985 9.94921875,3.44806985 C9.83203125,3.10431985 9.66015625,2.79181985 9.43359375,2.51056985 C9.20703125,2.22931985 8.9453125,1.99494485 8.6484375,1.80744485 C8.5078125,1.71369485 8.421875,1.5926011 8.390625,1.4441636 C8.359375,1.2957261 8.3828125,1.1551011 8.4609375,1.0222886 C8.5390625,0.889476103 8.65625,0.803538603 8.8125,0.764476103 C8.96875,0.725413603 9.109375,0.752757353 9.234375,0.846507353 C9.875,1.23713235 10.3671875,1.76056985 10.7109375,2.41681985 Z M7.921875,2.69806985 C8.25,2.88556985 8.51171875,3.1394761 8.70703125,3.4597886 C8.90234375,3.7801011 9,4.12775735 9,4.50275735 C9,4.87775735 8.90234375,5.2254136 8.70703125,5.5457261 C8.51171875,5.8660386 8.25,6.11994485 7.921875,6.30744485 C7.796875,6.38556985 7.65625,6.40119485 7.5,6.35431985 C7.34375,6.30744485 7.23046875,6.2176011 7.16015625,6.0847886 C7.08984375,5.9519761 7.07421875,5.8113511 7.11328125,5.6629136 C7.15234375,5.5144761 7.2421875,5.40119485 7.3828125,5.32306985 C7.7109375,5.13556985 7.875,4.86213235 7.875,4.50275735 C7.875,4.14338235 7.7109375,3.86994485 7.3828125,3.68244485 C7.2421875,3.60431985 7.15234375,3.4910386 7.11328125,3.3426011 C7.07421875,3.1941636 7.08984375,3.0535386 7.16015625,2.9207261 C7.23046875,2.7879136 7.34375,2.69806985 7.5,2.65119485 C7.65625,2.60431985 7.796875,2.61994485 7.921875,2.69806985 Z" id="Shape"></path>
            </g>
        </g>
    </g>
</svg>