<?xml version="1.0" encoding="UTF-8"?>
<svg width="14.25px" height="12px" viewBox="0 0 14.25 12" version="1.1" xmlns="http://www.w3.org/2000/svg" xmlns:xlink="http://www.w3.org/1999/xlink">
    <title>waveform 3</title>
    <g id="Page-1" stroke="none" stroke-width="1" fill="none" fill-rule="evenodd">
        <g id="iconografia_sistema-copy" transform="translate(-31.375000, -581.500000)" fill="#000000" fill-rule="nonzero">
            <g id="waveform" transform="translate(31.375000, 581.500000)">
                <path d="M5.0625,2.25 C5.1875,2.25 5.25,2.3125 5.25,2.4375 L5.25,9.5625 C5.25,9.6875 5.1875,9.75 5.0625,9.75 L4.6875,9.75 C4.5625,9.75 4.5,9.6875 4.5,9.5625 L4.5,2.4375 C4.5,2.3125 4.5625,2.25 4.6875,2.25 L5.0625,2.25 Z M2.8125,4.5 C2.9375,4.5 3,4.5625 3,4.6875 L3,7.3125 C3,7.4375 2.9375,7.5 2.8125,7.5 L2.4375,7.5 C2.3125,7.5 2.25,7.4375 2.25,7.3125 L2.25,4.6875 C2.25,4.5625 2.3125,4.5 2.4375,4.5 L2.8125,4.5 Z M0.5625,5.25 C0.6875,5.25 0.75,5.3125 0.75,5.4375 L0.75,6.5625 C0.75,6.6875 0.6875,6.75 0.5625,6.75 L0.1875,6.75 C0.0625,6.75 0,6.6875 0,6.5625 L0,5.4375 C0,5.3125 0.0625,5.25 0.1875,5.25 L0.5625,5.25 Z M9.5625,3 C9.6875,3 9.75,3.0625 9.75,3.1875 L9.75,8.8125 C9.75,8.9375 9.6875,9 9.5625,9 L9.1875,9 C9.0625,9 9,8.9375 9,8.8125 L9,3.1875 C9,3.0625 9.0625,3 9.1875,3 L9.5625,3 Z M14.0625,5.25 C14.1875,5.25 14.25,5.3125 14.25,5.4375 L14.25,6.5625 C14.25,6.6875 14.1875,6.75 14.0625,6.75 L13.6875,6.75 C13.5625,6.75 13.5,6.6875 13.5,6.5625 L13.5,5.4375 C13.5,5.3125 13.5625,5.25 13.6875,5.25 L14.0625,5.25 Z M11.8125,1.5 C11.9375,1.5 12,1.5625 12,1.6875 L12,10.3125 C12,10.4375 11.9375,10.5 11.8125,10.5 L11.4375,10.5 C11.3125,10.5 11.25,10.4375 11.25,10.3125 L11.25,1.6875 C11.25,1.5625 11.3125,1.5 11.4375,1.5 L11.8125,1.5 Z M7.3125,0 C7.4375,0 7.5,0.0625 7.5,0.1875 L7.5,11.8125 C7.5,11.9375 7.4375,12 7.3125,12 L6.9375,12 C6.8125,12 6.75,11.9375 6.75,11.8125 L6.75,0.1875 C6.75,0.0625 6.8125,0 6.9375,0 L7.3125,0 Z" id="Shape"></path>
            </g>
        </g>
    </g>
</svg>