<?xml version="1.0" encoding="utf-8"?>
<!-- Generator: Adobe Illustrator 27.5.0, SVG Export Plug-In . SVG Version: 6.00 Build 0)  -->
<svg version="1.1" id="Capa_1" xmlns="http://www.w3.org/2000/svg" xmlns:xlink="http://www.w3.org/1999/xlink" x="0px" y="0px"
	 viewBox="0 0 116.7 30" style="enable-background:new 0 0 116.7 30;" xml:space="preserve">
<style type="text/css">
	.st0{filter:url(#Adobe_OpacityMaskFilter);}
	.st1{fill-rule:evenodd;clip-rule:evenodd;fill:#FFFFFF;}
	.st2{mask:url(#mask-2_00000047062588515522952630000014546773727482600125_);fill-rule:evenodd;clip-rule:evenodd;fill:#0069B3;}
	.st3{fill-rule:evenodd;clip-rule:evenodd;fill:#0069B3;}
	.st4{filter:url(#Adobe_OpacityMaskFilter_00000014593985070417673880000010611951733998192820_);}
	.st5{mask:url(#mask-4_00000029733877786729695220000000646503531435241370_);fill-rule:evenodd;clip-rule:evenodd;}
	.st6{fill-rule:evenodd;clip-rule:evenodd;}
	.st7{filter:url(#Adobe_OpacityMaskFilter_00000104676179173669637240000017948495314910875795_);}
	.st8{mask:url(#mask-6_00000173856910766241644320000010545168437960069523_);fill-rule:evenodd;clip-rule:evenodd;}
</style>
<g id="Page-1">
	<g id="_x30_1-3_x5F_pagina_x5F_inicio_x5F_menu_x5F_examenes_x28_Vall_x29_" transform="translate(-101.000000, -15.000000)">
		<g id="logo_valladolid" transform="translate(101.000000, 15.000000)">
			<g id="Group-3" transform="translate(8.054500, 7.978100)">
				<g id="Clip-2">
				</g>
				<defs>
					<filter id="Adobe_OpacityMaskFilter" filterUnits="userSpaceOnUse" x="0" y="0" width="21.9" height="22">
						<feColorMatrix  type="matrix" values="1 0 0 0 0  0 1 0 0 0  0 0 1 0 0  0 0 0 1 0"/>
					</filter>
				</defs>
				
					<mask maskUnits="userSpaceOnUse" x="0" y="0" width="21.9" height="22" id="mask-2_00000047062588515522952630000014546773727482600125_">
					<g class="st0">
						<polygon id="path-1_00000110452265581338901760000015472404081725524916_" class="st1" points="0,0 21.9,0 21.9,22 0,22 
													"/>
					</g>
				</mask>
				<path id="Fill-1" class="st2" d="M16.8,2.5c-1.2,1-2.6,2.3-4,3.7c-1.4,1.5-3,3.2-4.7,5.1c0,0-3.5,4.1-3.5,4.1
					c0,0-3.5,4.2-3.5,4.2C0.8,20,0.4,20.2,0,20.3C2.1,21.4,4.4,22,6.9,22c8.3,0,15-6.7,15-15c0-2.5-0.6-4.9-1.8-7
					C19.1,0.6,18,1.5,16.8,2.5"/>
			</g>
			<path id="Fill-4" class="st3" d="M14.7,18.5c2-2.3,3.7-4.3,5.3-5.8c2.8-2.8,5.2-4.8,7.4-6C24.7,2.6,20.1,0,15,0
				C10.3,0,6.2,2.2,3.4,5.5C6,3.1,8.6,1.6,11.1,1.3c1-0.1,1.9,0.2,2.7,0.9C14.6,3,15,3.8,15,4.9c0,0,0,0.1,0,0.1
				c0,0.8-0.3,2.1-0.9,3.8c-0.6,1.7-1.4,3.9-2.5,6.5C9.4,20.8,8.1,24.4,7.8,26v0.8c0,0,0,0.1,0,0.1c0.1-0.1,0.1-0.1,0.2-0.3
				C10.5,23.5,12.7,20.8,14.7,18.5"/>
			<path id="Fill-6" class="st3" d="M9.6,14.9c2.3-5.3,3.5-8.7,3.6-10.1V4.7c0,0,0-0.2,0-0.2V4c0-0.7-0.3-1-1-1h-0.3
				c0,0-0.2,0-0.3,0C9,3.4,6.3,4.9,3.7,7.6c-1.9,2-3.1,3.9-3.6,5.5C0.1,13.8,0,14.4,0,15c0,0.1,0,0.3,0,0.4c0.1,0.1,0.1,0.2,0.3,0.3
				l0.1,0c0,0,0.5,0.1,0.5,0.1c0.7,0.1,0.7,0.6,0.7,0.7c0,0.2-0.1,0.7-1,0.9c-0.2,0-0.3,0-0.5-0.1C0.8,21.3,3,24.7,6,27
				c-0.1-0.1-0.1-0.3-0.1-0.3S5.8,26,5.8,26c0.1-1,0.4-2.4,1.1-4.2C7.5,19.9,8.4,17.6,9.6,14.9"/>
			<g id="Group-10" transform="translate(34.242800, 0.000000)">
				<g id="Clip-9">
				</g>
				<defs>
					
						<filter id="Adobe_OpacityMaskFilter_00000020360442040930027910000002411469900797246374_" filterUnits="userSpaceOnUse" x="0" y="0" width="10.6" height="13.7">
						<feColorMatrix  type="matrix" values="1 0 0 0 0  0 1 0 0 0  0 0 1 0 0  0 0 0 1 0"/>
					</filter>
				</defs>
				
					<mask maskUnits="userSpaceOnUse" x="0" y="0" width="10.6" height="13.7" id="mask-4_00000029733877786729695220000000646503531435241370_">
					<g style="filter:url(#Adobe_OpacityMaskFilter_00000020360442040930027910000002411469900797246374_);">
						<polygon id="path-3_00000147200121914385841610000012077081290328831914_" class="st1" points="0,0 10.6,0 10.6,13.7 0,13.7 
													"/>
					</g>
				</mask>
				<path id="Fill-8" class="st5" d="M1.2,12.9c0.2,0,0.4,0.1,0.6,0.1c0.7,0.3,1.3,0.4,1.6,0.5c0.3,0.1,0.7,0.1,1.1,0.1
					c0.8,0,1.5-0.2,2.2-0.5c0.7-0.3,1.2-0.8,1.5-1.4c0.4-0.6,0.5-1.3,0.5-1.9c0-0.6-0.1-1.1-0.4-1.7C8,7.6,7.4,6.9,6.5,6
					c-1-0.9-1.6-1.6-1.8-2C4.4,3.6,4.2,3.2,4.2,2.7c0-0.5,0.2-1,0.6-1.4c0.4-0.4,1-0.6,1.6-0.6c0.8,0,1.5,0.2,2,0.7
					C9,2,9.3,2.6,9.3,3.4c0,0.2,0,0.5,0,0.9h0.3l1-4.3h-0.4C10,0.3,9.9,0.5,9.7,0.6C9.6,0.7,9.5,0.8,9.3,0.8c-0.1,0-0.2,0-0.3,0
					c0,0-0.2-0.1-0.6-0.2C7.8,0.3,7.5,0.1,7.3,0.1C6.9,0,6.6,0,6.2,0C5.2,0,4.3,0.3,3.6,1c-0.7,0.7-1,1.4-1,2.3C2.6,3.9,2.7,4.4,3,5
					c0.2,0.3,0.6,0.8,1.2,1.4c1.3,1.3,2.1,2.3,2.4,2.8C6.9,9.6,7,10,7,10.4c0,0.7-0.2,1.3-0.7,1.8C5.9,12.7,5.2,13,4.4,13
					c-0.9,0-1.6-0.3-2.2-0.8c-0.6-0.6-0.8-1.3-0.8-2.1c0-0.3,0-0.7,0.1-1.2H1.1L0,13.7h0.4C0.6,13.2,0.9,12.9,1.2,12.9"/>
			</g>
			<path id="Fill-11" class="st6" d="M48.4,2.7c0.3,0,0.5-0.1,0.7-0.3c0.2-0.2,0.3-0.4,0.3-0.7c0-0.3-0.1-0.5-0.3-0.7
				c-0.2-0.2-0.4-0.3-0.7-0.3c-0.3,0-0.5,0.1-0.7,0.3c-0.2,0.2-0.3,0.4-0.3,0.7c0,0.3,0.1,0.5,0.3,0.7C47.9,2.6,48.2,2.7,48.4,2.7"
				/>
			<path id="Fill-13" class="st6" d="M45.9,13.6c0.4,0,0.8-0.2,1.2-0.5c0.6-0.4,1.1-1,1.5-1.7l-0.3-0.2c-0.3,0.5-0.7,0.9-1,1.2
				c-0.1,0.1-0.2,0.1-0.3,0.1c-0.1,0-0.1,0-0.2-0.1c-0.1-0.1-0.1-0.1-0.1-0.2c0-0.1,0.1-0.4,0.2-0.8l2-6.8l-3.4,0.5v0.4
				c0.4-0.1,0.7-0.1,0.9-0.1c0.2,0,0.3,0,0.4,0.1c0.1,0.1,0.2,0.2,0.2,0.4c0,0.2-0.1,0.6-0.3,1.3l-1.3,4.4c-0.2,0.6-0.3,1-0.3,1.2
				c0,0.2,0.1,0.4,0.2,0.6C45.4,13.5,45.6,13.6,45.9,13.6"/>
			<path id="Fill-15" class="st6" d="M55,9.7c-0.2-0.5-0.8-1.2-1.6-2.1c-0.3-0.3-0.5-0.6-0.6-0.8c-0.1-0.2-0.1-0.4-0.1-0.6
				c0-0.3,0.1-0.6,0.4-0.8c0.2-0.2,0.6-0.3,1-0.3c0.5,0,0.9,0.2,1.3,0.6c0.3,0.4,0.5,1,0.5,1.9h0.4l0.6-3h-0.4
				c-0.2,0.3-0.4,0.5-0.7,0.5c-0.1,0-0.3-0.1-0.7-0.2c-0.3-0.1-0.5-0.2-0.6-0.2c-0.2,0-0.4,0-0.6,0c-0.7,0-1.3,0.2-1.8,0.6
				c-0.5,0.4-0.7,1-0.7,1.6c0,0.3,0.1,0.7,0.2,1c0.2,0.3,0.5,0.9,1.1,1.5c0.6,0.7,1,1.2,1.1,1.6c0.1,0.2,0.2,0.5,0.2,0.7
				c0,0.4-0.1,0.7-0.4,1c-0.3,0.3-0.7,0.4-1.2,0.4c-0.6,0-1.1-0.2-1.5-0.6c-0.4-0.4-0.6-1.1-0.6-2.1h-0.4l-0.6,3.1h0.4
				c0.1-0.3,0.4-0.4,0.7-0.4c0.1,0,0.3,0,0.5,0.1c0.6,0.2,1.1,0.3,1.6,0.3c0.9,0,1.6-0.3,2.1-0.8c0.6-0.5,0.8-1.1,0.8-1.8
				C55.4,10.6,55.3,10.2,55,9.7"/>
			<path id="Fill-17" class="st6" d="M61.2,11.2c-0.5,0.7-0.8,1.1-0.9,1.2c-0.2,0.2-0.4,0.3-0.6,0.3c-0.1,0-0.1,0-0.2-0.1
				c0-0.1-0.1-0.1-0.1-0.2c0-0.2,0.1-0.6,0.3-1.3l1.8-5.7h1.4l0.2-0.6h-1.4l0.8-2.6h-0.4c-0.6,0.9-1.2,1.6-1.7,2
				c-0.5,0.4-1.1,0.7-1.8,0.9l-0.1,0.4H60l-1.7,5.6c-0.2,0.7-0.3,1.2-0.3,1.6c0,0.3,0.1,0.5,0.3,0.7c0.2,0.2,0.4,0.3,0.7,0.3
				c0.3,0,0.7-0.1,1-0.4c0.5-0.3,1-0.9,1.6-1.8L61.2,11.2z"/>
			<path id="Fill-19" class="st6" d="M66.7,6.2c0.8-0.7,1.5-1,2.1-1c0.3,0,0.6,0.1,0.7,0.3c0.2,0.2,0.3,0.4,0.3,0.7
				c0,0.4-0.2,0.9-0.6,1.4c-0.4,0.5-1,0.9-1.8,1.3C66.8,9,66,9.2,65,9.3C65.4,7.9,65.9,6.9,66.7,6.2 M66.1,13.6
				c1.4,0,2.8-0.8,4.4-2.3l-0.2-0.3c-0.9,0.6-1.5,1.1-1.9,1.3c-0.4,0.2-0.9,0.3-1.4,0.3c-0.6,0-1.1-0.2-1.5-0.6
				c-0.4-0.4-0.6-0.9-0.6-1.5c0-0.2,0-0.5,0.1-0.8c1.3-0.1,2.4-0.4,3.1-0.6c1.1-0.4,1.9-0.9,2.5-1.5c0.4-0.5,0.6-1,0.6-1.5
				c0-0.4-0.2-0.7-0.5-1c-0.3-0.3-0.8-0.4-1.5-0.4c-0.9,0-1.9,0.3-2.8,0.8c-0.9,0.6-1.6,1.3-2.2,2.3c-0.6,1-0.9,2-0.9,2.9
				c0,0.7,0.2,1.4,0.7,2C64.5,13.3,65.2,13.6,66.1,13.6"/>
			<path id="Fill-21" class="st6" d="M73.6,7.1l-1.8,6.3h1.4c0.6-1.9,1-3.1,1.2-3.4c0.3-0.8,0.8-1.5,1.4-2.4C76.5,6.8,77,6.2,77.4,6
				c0.2-0.2,0.5-0.2,0.7-0.2c0.1,0,0.2,0,0.3,0.1c0.1,0.1,0.1,0.2,0.1,0.4c0,0.2-0.1,0.6-0.3,1.3l-1.8,5.8h1.5
				c0.5-1.5,1-2.8,1.5-3.7c0.8-1.5,1.7-2.6,2.7-3.4c0.3-0.3,0.6-0.4,0.9-0.4c0.1,0,0.2,0,0.3,0.1c0.1,0.1,0.1,0.2,0.1,0.4
				c0,0.1,0,0.2,0,0.4c0,0.1-0.1,0.5-0.4,1.2L82,11c-0.3,0.9-0.5,1.6-0.5,1.9c0,0.2,0.1,0.4,0.2,0.6c0.1,0.2,0.3,0.2,0.5,0.2
				c0.2,0,0.5-0.1,0.8-0.2c0.3-0.2,0.6-0.4,1-0.9c0.4-0.4,0.7-0.8,0.8-1l-0.3-0.2c-0.3,0.5-0.6,0.8-0.9,1.1
				c-0.1,0.1-0.2,0.2-0.3,0.2c-0.1,0-0.1,0-0.1-0.1c-0.1-0.1-0.1-0.1-0.1-0.2c0-0.1,0.1-0.5,0.4-1.3l1.2-3.7
				c0.1-0.4,0.2-0.8,0.2-1.2c0-0.5-0.1-0.8-0.3-1c-0.2-0.2-0.5-0.3-0.8-0.3c-0.5,0-1.1,0.2-1.6,0.7c-1,0.8-2,2.2-3.2,4.1L79.8,7
				C79.9,6.5,80,6.1,80,5.8c0-0.3-0.1-0.6-0.3-0.8c-0.2-0.2-0.5-0.3-0.8-0.3c-0.4,0-0.7,0.1-1.1,0.3c-0.6,0.4-1.2,0.9-1.8,1.7
				C75.6,7.2,75.1,8,74.5,9l1.3-4.4l-3.3,0.6l0.1,0.3c0.4-0.1,0.6-0.1,0.7-0.1c0.2,0,0.4,0.1,0.5,0.2c0.1,0.1,0.2,0.2,0.2,0.4
				c0,0.1,0,0.2-0.1,0.3L73.6,7.1z"/>
			<path id="Fill-23" class="st6" d="M91.6,11c-0.9,1-1.8,1.5-2.6,1.5c-0.3,0-0.6-0.1-0.9-0.4c-0.2-0.2-0.4-0.6-0.4-1
				c0-0.9,0.3-1.8,0.8-2.9c0.6-1.1,1.2-1.8,1.9-2.4c0.5-0.4,1-0.6,1.4-0.6c0.4,0,0.7,0.1,0.9,0.4c0.2,0.2,0.3,0.6,0.3,1.2
				C93.3,8.2,92.7,9.6,91.6,11L91.6,11z M93.6,11.3l1.9-6.5L94,5l-0.3,1c-0.1-0.4-0.4-0.7-0.6-0.9c-0.3-0.2-0.6-0.3-1.1-0.3
				c-0.7,0-1.5,0.3-2.3,0.8c-1,0.7-1.9,1.6-2.5,2.7c-0.7,1.1-1,2.2-1,3.2c0,0.7,0.2,1.2,0.6,1.6c0.4,0.4,0.8,0.6,1.3,0.6
				c0.5,0,1.1-0.2,1.6-0.5c0.8-0.4,1.6-1.2,2.6-2.3l-0.2,0.7c-0.1,0.5-0.2,0.9-0.2,1.2c0,0.3,0.1,0.5,0.2,0.6
				c0.1,0.1,0.3,0.2,0.5,0.2c0.3,0,0.7-0.2,1.1-0.5c0.4-0.3,0.8-0.8,1.2-1.4l-0.3-0.2c-0.3,0.6-0.5,1-0.7,1.1
				c-0.1,0.1-0.2,0.1-0.2,0.1c-0.1,0-0.1,0-0.1-0.1c0-0.1-0.1-0.2-0.1-0.2c0-0.1,0-0.1,0-0.2L93.6,11.3z"/>
			<path id="Fill-25" class="st6" d="M45.5,17.8c-0.1-0.4-0.1-0.7-0.4-1c-0.3-0.3-0.5-0.4-0.9-0.4c-0.3,0-0.5,0.1-0.7,0.3
				c-0.2,0.2-0.3,0.4-0.3,0.7c0,0.3,0.2,0.6,0.6,0.9c0.4,0.3,0.5,0.5,0.6,0.7c0.1,0.2,0.6,1.6-0.6,3.8c-0.1,0.2-0.5,0.9-0.8,1.2
				c-0.3,0.4-2,2.5-3.1,3.5c-0.1-1.9-0.6-5.4-0.9-6.5c-0.5-2.1-1.1-4.3-1.3-4.6l-3.4,0.7l0.1,0.4c0.4-0.1,0.6-0.1,0.8-0.1
				c0.5,0,0.8,0.2,1,0.6c0.6,1.2,1.8,6.9,2,11.9h0.4c1.6-1.7,2.5-2.6,2.6-2.8c1.3-1.5,2.2-2.6,2.7-3.5
				C44.5,22.8,45.9,20.2,45.5,17.8"/>
			<path id="Fill-27" class="st6" d="M50.2,27.3c-0.9,1-1.8,1.5-2.6,1.5c-0.3,0-0.6-0.1-0.9-0.4c-0.2-0.2-0.4-0.6-0.4-1
				c0-0.9,0.3-1.8,0.8-2.9c0.6-1.1,1.2-1.8,1.9-2.4c0.5-0.4,1-0.6,1.4-0.6c0.4,0,0.7,0.1,0.9,0.4c0.2,0.2,0.3,0.6,0.3,1.2
				C51.9,24.6,51.3,26,50.2,27.3L50.2,27.3z M52.2,27.7l1.9-6.5l-1.5,0.2l-0.3,1c-0.1-0.4-0.4-0.7-0.6-0.9c-0.3-0.2-0.6-0.3-1.1-0.3
				c-0.7,0-1.5,0.3-2.3,0.8c-1,0.7-1.9,1.6-2.5,2.7c-0.7,1.1-1,2.2-1,3.2c0,0.7,0.2,1.2,0.6,1.6c0.4,0.4,0.8,0.6,1.3,0.6
				c0.5,0,1.1-0.2,1.6-0.5c0.8-0.4,1.6-1.2,2.6-2.3l-0.2,0.7c-0.1,0.5-0.2,0.9-0.2,1.2c0,0.3,0.1,0.5,0.2,0.6
				c0.1,0.1,0.3,0.2,0.5,0.2c0.3,0,0.7-0.2,1.1-0.5c0.4-0.3,0.8-0.8,1.2-1.4l-0.3-0.2c-0.3,0.6-0.5,1-0.7,1.1
				c-0.1,0.1-0.2,0.1-0.2,0.1c-0.1,0-0.1,0-0.1-0.1c0-0.1-0.1-0.1-0.1-0.2c0-0.1,0-0.1,0-0.2L52.2,27.7z"/>
			<path id="Fill-29" class="st6" d="M60.2,16l-3.3,0.5v0.3c0.3,0,0.5-0.1,0.7-0.1c0.3,0,0.4,0,0.6,0.1c0.1,0.1,0.2,0.2,0.2,0.4
				c0,0.1-0.1,0.5-0.3,1.3l-2.7,9.1c-0.2,0.7-0.3,1.2-0.3,1.4c0,0.2,0.1,0.4,0.2,0.6c0.2,0.2,0.4,0.3,0.6,0.3c0.3,0,0.7-0.1,1-0.4
				c0.5-0.3,1-0.9,1.6-1.8l-0.3-0.3c-0.3,0.6-0.7,1-1,1.3c-0.1,0.1-0.2,0.2-0.4,0.2c-0.1,0-0.2,0-0.2-0.1c-0.1-0.1-0.1-0.1-0.1-0.2
				c0-0.1,0.1-0.5,0.2-1.1L60.2,16z"/>
			<path id="Fill-31" class="st6" d="M62.7,28.8c-0.1,0.1-0.2,0.2-0.4,0.2c-0.1,0-0.1,0-0.2-0.1c-0.1-0.1-0.1-0.1-0.1-0.2
				c0-0.1,0.1-0.5,0.2-1.1L65.7,16l-3.3,0.5v0.3c0.3,0,0.5-0.1,0.7-0.1c0.3,0,0.4,0,0.6,0.1c0.1,0.1,0.2,0.2,0.2,0.4
				c0,0.1-0.1,0.5-0.3,1.3l-2.7,9.1c-0.2,0.7-0.3,1.2-0.3,1.4c0,0.2,0.1,0.4,0.2,0.6c0.2,0.2,0.4,0.3,0.6,0.3c0.3,0,0.7-0.1,1-0.4
				c0.5-0.3,1-0.9,1.6-1.8l-0.3-0.3C63.3,28.1,63,28.5,62.7,28.8"/>
			<path id="Fill-33" class="st6" d="M71.1,27.3c-0.9,1-1.8,1.5-2.6,1.5c-0.3,0-0.6-0.1-0.9-0.4c-0.2-0.2-0.4-0.6-0.4-1
				c0-0.9,0.3-1.8,0.8-2.9c0.6-1.1,1.2-1.8,1.9-2.4c0.5-0.4,1-0.6,1.4-0.6c0.4,0,0.7,0.1,0.9,0.4c0.2,0.2,0.3,0.6,0.3,1.2
				C72.7,24.6,72.2,26,71.1,27.3L71.1,27.3z M73.1,27.7l1.9-6.5l-1.5,0.2l-0.3,1c-0.1-0.4-0.4-0.7-0.6-0.9c-0.3-0.2-0.6-0.3-1.1-0.3
				c-0.7,0-1.5,0.3-2.3,0.8c-1,0.7-1.9,1.6-2.5,2.7c-0.7,1.1-1,2.2-1,3.2c0,0.7,0.2,1.2,0.6,1.6c0.4,0.4,0.8,0.6,1.3,0.6
				c0.5,0,1.1-0.2,1.6-0.5c0.8-0.4,1.6-1.2,2.6-2.3l-0.2,0.7c-0.1,0.5-0.2,0.9-0.2,1.2c0,0.3,0.1,0.5,0.2,0.6
				c0.1,0.1,0.3,0.2,0.5,0.2c0.3,0,0.7-0.2,1.1-0.5c0.4-0.3,0.8-0.8,1.2-1.4L74,27.8c-0.3,0.6-0.5,1-0.7,1.1
				c-0.1,0.1-0.2,0.1-0.2,0.1c-0.1,0-0.1,0-0.1-0.1c0-0.1-0.1-0.1-0.1-0.2c0-0.1,0-0.1,0-0.2L73.1,27.7z"/>
			<path id="Fill-35" class="st6" d="M81.1,26.7c-1.1,1.4-2,2.2-2.8,2.2c-0.3,0-0.6-0.1-0.9-0.4c-0.2-0.3-0.4-0.6-0.4-1.1
				c0-1.2,0.5-2.5,1.5-3.8c1-1.3,1.9-2,2.8-2c0.4,0,0.7,0.1,1,0.4c0.3,0.2,0.4,0.6,0.4,1C82.7,23.9,82.2,25.2,81.1,26.7 M83.1,28.9
				C83,29,83,29,82.9,29c0,0-0.1,0-0.1-0.1c0-0.1-0.1-0.1-0.1-0.2c0-0.2,0.1-0.6,0.3-1.2l3.4-11.6l-3.3,0.5v0.3
				c0.3,0,0.6-0.1,0.7-0.1c0.2,0,0.4,0.1,0.5,0.2c0.1,0.1,0.1,0.2,0.1,0.3c0,0.2,0,0.4-0.1,0.6c-0.1,0.2-0.1,0.5-0.2,0.9l-0.9,3.2
				c-0.3-0.3-0.5-0.6-0.8-0.7c-0.3-0.1-0.6-0.2-1-0.2c-0.7,0-1.5,0.3-2.4,0.8c-1.1,0.7-2,1.6-2.6,2.7c-0.7,1.1-1,2.1-1,3.1
				c0,0.7,0.2,1.3,0.6,1.8c0.4,0.4,0.9,0.7,1.4,0.7c0.5,0,1.1-0.2,1.7-0.6c0.8-0.6,1.8-1.6,2.8-3l-0.4,1.2c-0.2,0.6-0.3,1.1-0.3,1.5
				c0,0.3,0.1,0.5,0.2,0.7c0.1,0.2,0.3,0.2,0.5,0.2c0.3,0,0.7-0.2,1.1-0.5c0.4-0.4,0.8-0.8,1.1-1.5l-0.3-0.2
				C83.5,28.4,83.3,28.8,83.1,28.9"/>
			<g id="Group-39" transform="translate(105.747200, 15.901300)">
				<g id="Clip-38">
				</g>
				<defs>
					
						<filter id="Adobe_OpacityMaskFilter_00000005251599930729515370000014050035170992034215_" filterUnits="userSpaceOnUse" x="0" y="0" width="11" height="14.1">
						<feColorMatrix  type="matrix" values="1 0 0 0 0  0 1 0 0 0  0 0 1 0 0  0 0 0 1 0"/>
					</filter>
				</defs>
				
					<mask maskUnits="userSpaceOnUse" x="0" y="0" width="11" height="14.1" id="mask-6_00000173856910766241644320000010545168437960069523_">
					<g style="filter:url(#Adobe_OpacityMaskFilter_00000005251599930729515370000014050035170992034215_);">
						<polygon id="path-5_00000061460318974709040560000008923255087086427786_" class="st1" points="0,0 11,0 11,14.1 0,14.1 
													"/>
					</g>
				</mask>
				<path id="Fill-37" class="st8" d="M5.6,10.8c-1.1,1.4-2,2.2-2.8,2.2c-0.3,0-0.6-0.1-0.9-0.4c-0.2-0.3-0.4-0.6-0.4-1.1
					c0-1.2,0.5-2.5,1.5-3.8c1-1.3,1.9-2,2.8-2c0.4,0,0.7,0.1,1,0.4c0.3,0.2,0.4,0.6,0.4,1C7.2,8,6.7,9.3,5.6,10.8 M7.7,13
					c-0.1,0.1-0.1,0.1-0.2,0.1c0,0-0.1,0-0.1-0.1c0-0.1-0.1-0.1-0.1-0.2c0-0.2,0.1-0.6,0.3-1.2L11,0L7.6,0.5v0.3
					c0.3,0,0.6-0.1,0.7-0.1c0.2,0,0.4,0.1,0.5,0.2C9,1.1,9,1.2,9,1.3C9,1.5,9,1.7,8.9,2C8.9,2.2,8.8,2.5,8.7,2.8L7.8,6
					C7.5,5.7,7.2,5.5,7,5.3C6.7,5.2,6.4,5.1,6,5.1c-0.7,0-1.5,0.3-2.4,0.8C2.5,6.6,1.7,7.5,1,8.6c-0.7,1.1-1,2.1-1,3.1
					c0,0.7,0.2,1.3,0.6,1.8C1,13.9,1.5,14.1,2,14.1c0.5,0,1.1-0.2,1.7-0.6c0.8-0.6,1.8-1.6,2.8-3l-0.4,1.2c-0.2,0.6-0.3,1.1-0.3,1.5
					c0,0.3,0.1,0.5,0.2,0.7c0.1,0.2,0.3,0.2,0.5,0.2c0.3,0,0.7-0.2,1.1-0.5c0.4-0.4,0.8-0.8,1.1-1.5l-0.3-0.2
					C8,12.5,7.8,12.9,7.7,13"/>
			</g>
			<path id="Fill-40" class="st6" d="M91.3,27.5c-0.8,1.3-1.7,2-2.6,2c-0.5,0-0.9-0.2-1.2-0.5c-0.3-0.3-0.5-0.8-0.5-1.4
				c0-1.3,0.4-2.7,1.2-4c0.8-1.4,1.7-2,2.6-2c0.5,0,0.8,0.2,1.1,0.5c0.3,0.3,0.4,0.8,0.4,1.4C92.5,24.7,92.1,26.1,91.3,27.5
				 M91.2,21c-0.8,0-1.7,0.3-2.6,0.8c-0.9,0.6-1.6,1.3-2.2,2.3c-0.5,1-0.8,1.9-0.8,2.9c0,0.9,0.3,1.6,0.8,2.2
				c0.6,0.6,1.3,0.8,2.2,0.8c0.9,0,1.7-0.3,2.7-0.8c0.9-0.6,1.6-1.3,2.1-2.3c0.5-0.9,0.8-1.9,0.8-2.9c0-0.9-0.3-1.6-0.8-2.2
				C92.7,21.3,92,21,91.2,21"/>
			<path id="Fill-42" class="st6" d="M100.9,16l-3.3,0.5v0.3c0.3,0,0.5-0.1,0.7-0.1c0.3,0,0.4,0,0.6,0.1c0.1,0.1,0.2,0.2,0.2,0.4
				c0,0.1-0.1,0.5-0.3,1.3L96,27.7c-0.2,0.7-0.3,1.2-0.3,1.4c0,0.2,0.1,0.4,0.2,0.6c0.2,0.2,0.4,0.3,0.6,0.3c0.3,0,0.7-0.1,1-0.4
				c0.5-0.3,1-0.9,1.6-1.8l-0.3-0.3c-0.3,0.6-0.7,1-1,1.3c-0.1,0.1-0.2,0.2-0.4,0.2c-0.1,0-0.2,0-0.2-0.1c-0.1-0.1-0.1-0.1-0.1-0.2
				c0-0.1,0.1-0.5,0.3-1.1L100.9,16z"/>
			<path id="Fill-44" class="st6" d="M105.2,21l-3.4,0.5v0.4c0.4-0.1,0.7-0.1,0.9-0.1c0.2,0,0.3,0,0.4,0.1c0.1,0.1,0.2,0.2,0.2,0.4
				c0,0.2-0.1,0.6-0.3,1.3l-1.3,4.4c-0.2,0.6-0.3,1-0.3,1.2c0,0.2,0.1,0.4,0.2,0.6c0.2,0.2,0.4,0.2,0.6,0.2c0.4,0,0.8-0.2,1.2-0.5
				c0.6-0.4,1.1-1,1.5-1.7l-0.3-0.2c-0.3,0.5-0.7,0.9-1,1.2c-0.1,0.1-0.2,0.1-0.3,0.1c-0.1,0-0.1,0-0.2-0.1
				c-0.1-0.1-0.1-0.1-0.1-0.2c0-0.1,0.1-0.4,0.2-0.8L105.2,21z"/>
			<path id="Fill-46" class="st6" d="M105.5,17.4c-0.2-0.2-0.4-0.3-0.7-0.3c-0.3,0-0.5,0.1-0.7,0.3c-0.2,0.2-0.3,0.4-0.3,0.7
				c0,0.3,0.1,0.5,0.3,0.7c0.2,0.2,0.4,0.3,0.7,0.3c0.3,0,0.5-0.1,0.7-0.3c0.2-0.2,0.3-0.4,0.3-0.7
				C105.8,17.8,105.7,17.6,105.5,17.4"/>
		</g>
	</g>
</g>
</svg>
